<svg width="509" height="106" viewBox="0 0 509 106" fill="none" xmlns="http://www.w3.org/2000/svg">
<path d="M383.687 82.4369C385.671 80.6282 388.146 79.4478 390.799 79.0442C393.453 78.6406 396.166 79.032 398.598 80.169C401.202 81.3876 404.04 82.0222 406.914 82.0287C409.22 82.1414 411.512 81.6073 413.531 80.4865C414.297 80.0767 414.937 79.4649 415.38 78.7173C415.823 77.9697 416.054 77.1149 416.046 76.2456C416.058 75.4387 415.854 74.6434 415.455 73.9418C415.057 73.2402 414.479 72.6576 413.78 72.2542C411.635 71.0426 409.353 70.091 406.982 69.4193C404.267 68.6609 401.615 67.6902 399.051 66.5165C396.967 65.5705 395.04 64.3083 393.341 62.7745C391.792 61.443 390.567 59.7754 389.76 57.8986C388.948 55.8271 388.555 53.6146 388.605 51.3898C388.546 48.1037 389.368 44.8619 390.984 42.0009C392.576 39.2469 394.721 36.8531 397.283 34.9705C400.069 32.9676 403.194 31.4848 406.506 30.5935C410.109 29.6029 413.829 29.107 417.565 29.1194C422.331 29.0846 427.063 29.9303 431.523 31.614C435.593 33.0949 439.181 35.6589 441.902 39.03L435.104 44.813C433.581 46.0695 431.712 46.8333 429.745 47.0034C427.779 47.1735 425.807 46.7418 424.091 45.7655C421.762 44.5866 419.176 44.0096 416.568 44.0873C414.577 44.0685 412.604 44.4542 410.766 45.2212C409.948 45.5731 409.235 46.1326 408.698 46.8445C408.162 47.5565 407.82 48.3962 407.707 49.2807C407.607 50.0586 407.749 50.8485 408.114 51.5426C408.479 52.2366 409.049 52.801 409.747 53.1588C411.738 54.215 413.855 55.0151 416.046 55.54C421.215 56.7825 426.064 59.1007 430.277 62.3436C432.048 63.8996 433.439 65.8413 434.342 68.0194C435.246 70.1975 435.638 72.5539 435.489 74.9076C435.513 78.4358 434.59 81.9057 432.815 84.9542C431.189 87.78 428.951 90.2055 426.266 92.0526C423.437 93.9465 420.301 95.3353 416.998 96.1575C413.528 97.0626 409.956 97.5199 406.37 97.5182C400.937 97.6111 395.54 96.6005 390.508 94.5473C386.146 92.7692 382.265 89.9877 379.178 86.4283L383.687 82.4369Z" fill="white"/>
<path d="M497.375 97.3821C495.343 97.3822 493.336 96.9378 491.494 96.0799C489.653 95.2221 488.02 93.9716 486.712 92.416C485.404 90.8604 484.451 89.0374 483.921 87.0747C483.391 85.1119 483.296 83.0569 483.643 81.0535L486.861 62.6158C487.264 60.8367 487.476 59.0197 487.495 57.1956C487.564 55.0057 486.911 52.8539 485.637 51.0723C484.81 50.1551 483.776 49.4484 482.621 49.0106C481.467 48.5728 480.224 48.4166 478.997 48.555C477.264 48.4991 475.542 48.8494 473.969 49.5778C472.395 50.3063 471.013 51.3927 469.933 52.7505C467.567 55.6688 466.004 59.1558 465.401 62.8652L461.368 85.9067C460.792 89.1052 459.119 92.0022 456.636 94.0973C454.154 96.1925 451.018 97.3543 447.771 97.3821H438.707L453.822 11.5208C454.379 8.3101 456.046 5.39755 458.531 3.29181C461.016 1.18607 464.162 0.0209671 467.418 7.62939e-06L476.482 7.62939e-06L469.163 41.6153H469.412C471.414 38.7583 474.002 36.3615 477.003 34.5849C480.465 32.5173 484.44 31.4716 488.469 31.5687C491.629 31.4851 494.775 32.0086 497.738 33.1108C500.147 34.0358 502.322 35.4842 504.105 37.3517C505.77 39.1457 507.023 41.2819 507.776 43.611C508.551 45.9986 508.941 48.4941 508.932 51.0043C508.932 52.2063 508.932 53.3855 508.796 54.5648C508.714 55.711 508.54 56.8487 508.275 57.9666L501.341 97.3821H497.375Z" fill="white"/>
<path d="M284.684 97.7903C280.296 97.8309 275.93 97.1804 271.745 95.8626C267.979 94.6938 264.483 92.7899 261.457 90.261C258.462 87.7253 256.069 84.5529 254.454 80.9749C252.839 77.3969 252.042 73.5035 252.121 69.5781C252.098 64.3921 253.012 59.2446 254.817 54.3834C256.546 49.6623 259.218 45.3432 262.67 41.6897C266.121 38.0362 270.281 35.1249 274.894 33.1335C280.058 30.9111 285.635 29.8133 291.255 29.9131C295.702 29.8697 300.129 30.5201 304.376 31.8408C308.184 33.0043 311.726 34.9078 314.799 37.4424C317.821 39.9598 320.236 43.127 321.864 46.7081C323.492 50.2892 324.292 54.1919 324.204 58.1254C324.231 63.3561 323.317 68.5491 321.507 73.4561C319.784 78.191 317.107 82.5214 313.644 86.1789C310.127 89.8482 305.902 92.7646 301.226 94.7514C295.98 96.8945 290.348 97.9292 284.684 97.7903ZM303.877 60.3025C303.98 56.7436 302.705 53.2825 300.319 50.6414C299.03 49.3227 297.472 48.2961 295.752 47.631C294.032 46.9659 292.19 46.6778 290.349 46.786C287.765 46.7417 285.209 47.3171 282.893 48.4643C280.7 49.5487 278.767 51.0961 277.228 53C275.643 54.9581 274.422 57.1859 273.625 59.5768C272.757 62.1089 272.32 64.7692 272.334 67.4463C272.185 70.9962 273.429 74.4636 275.801 77.1074C277.085 78.4164 278.637 79.4325 280.35 80.0862C282.063 80.7398 283.897 81.0156 285.726 80.8947C288.237 80.9366 290.725 80.4144 293.008 79.3664C295.29 78.3185 297.308 76.7716 298.914 74.8395C300.533 72.901 301.778 70.6786 302.585 68.2854C303.465 65.7169 303.901 63.0175 303.877 60.3025Z" fill="white"/>
<path d="M57.2177 97.3821H56.6512C53.4156 97.3791 50.2904 96.2037 47.8536 94.0734C45.4167 91.943 43.8328 89.0018 43.3948 85.7933L40.381 63.2961H40.1317L23.8162 91.0775C22.6878 92.9969 21.0782 94.5883 19.1466 95.694C17.215 96.7998 15.0284 97.3817 12.8032 97.3821C9.41149 97.3821 6.15838 96.0353 3.75797 93.6372C1.35756 91.2391 0.00600299 87.9858 0 84.5914L0 54.8143H2.65128C4.41209 54.8128 6.15501 55.1678 7.77512 55.8581C9.39524 56.5483 10.8591 57.5595 12.0785 58.8307C13.2979 60.102 14.2477 61.607 14.8707 63.2552C15.4937 64.9035 15.7771 66.6608 15.7037 68.4215L15.4091 75.089H15.8623L27.9404 55.7668C29.3112 53.5894 31.2054 51.7906 33.4499 50.5347C35.6944 49.2789 38.2176 48.606 40.7889 48.5777C44.3983 48.5605 47.8976 49.8213 50.6677 52.1371C53.4379 54.453 55.3005 57.6747 55.9261 61.2324L58.4641 75.157H58.9173L71.8564 50.9589C72.9511 48.8093 74.6183 47.0044 76.6738 45.7436C78.7293 44.4829 81.0931 43.8155 83.5039 43.8152H94.8342L68.5933 90.7146C67.4683 92.7443 65.8188 94.434 63.8176 95.607C61.8164 96.7799 59.5369 97.393 57.2177 97.3821Z" fill="white"/>
<path d="M107.456 78.6269L107.592 78.8537C108.252 79.9372 109.114 80.8841 110.13 81.6431C111.271 82.4749 112.542 83.111 113.892 83.5255C115.302 83.9535 116.769 84.1675 118.242 84.1605C120.727 84.2125 123.19 83.7008 125.448 82.6637C127.341 81.6902 129.469 81.2696 131.589 81.4501C133.709 81.6306 135.735 82.4048 137.436 83.6842L141.832 87.1087C138.642 90.5841 134.706 93.2903 130.32 95.0235C125.973 96.65 121.365 97.4648 116.724 97.4275C113.204 97.458 109.701 96.9299 106.346 95.8626C103.296 94.9278 100.467 93.3849 98.0293 91.3269C95.6352 89.2306 93.7253 86.6382 92.4321 83.7296C91.0205 80.4762 90.325 76.957 90.3927 73.4108C90.3758 68.9637 91.2304 64.5566 92.908 60.4386C94.4434 56.5879 96.7053 53.0692 99.5702 50.0745C102.423 47.0849 105.854 44.7083 109.654 43.0894C113.774 41.3758 118.2 40.5193 122.661 40.5721C125.925 40.5349 129.172 41.0408 132.269 42.0689C135.035 42.9883 137.582 44.4709 139.747 46.4232C141.869 48.3961 143.519 50.8224 144.574 53.5216C145.779 56.5969 146.364 59.8802 146.296 63.1827C146.264 64.8067 146.136 66.4273 145.911 68.0359C145.681 69.8991 145.341 71.7469 144.891 73.5695H110.742C105.303 73.6149 106.776 77.4476 107.456 78.6269ZM130.728 58.5789V58.4429C130.3 57.1153 129.517 55.9308 128.462 55.0184C126.424 53.3622 123.829 52.5506 121.211 52.7505C119.421 52.7224 117.646 53.0701 115.999 53.7711C114.537 54.4045 113.177 55.253 111.965 56.2884C110.866 57.2455 109.926 58.3706 109.178 59.6222C108.502 60.7261 107.998 61.9267 107.683 63.1827H128.19C132.405 63.092 130.728 58.5789 130.728 58.5789Z" fill="white"/>
<path d="M379.428 46.3325C377.813 42.923 375.496 39.8935 372.629 37.4425C369.534 34.8695 365.961 32.9349 362.115 31.7501C357.86 30.431 353.426 29.7807 348.972 29.8224C343.359 29.7224 337.789 30.8202 332.634 33.0428C330.029 34.1956 327.559 35.6331 325.269 37.3291C326.601 39.1049 327.762 41.0033 328.736 42.9987C330.859 47.5559 332.001 52.5085 332.09 57.5357C332.84 55.8638 333.8 54.294 334.945 52.8639C336.484 50.96 338.416 49.4126 340.61 48.3282C342.926 47.1811 345.482 46.6056 348.066 46.65C349.91 46.5414 351.756 46.8293 353.479 47.4943C355.203 48.1593 356.765 49.186 358.059 50.5054C360.438 53.1487 361.705 56.6103 361.594 60.1665C361.605 62.8434 361.169 65.5034 360.302 68.036C359.523 70.5172 358.277 72.8265 356.631 74.8395C355.025 76.7716 353.007 78.3185 350.724 79.3664C348.442 80.4144 345.954 80.9366 343.443 80.8947C341.617 81.0138 339.787 80.7371 338.078 80.0834C336.369 79.4298 334.821 78.4147 333.54 77.1074C332.094 75.5154 331.08 73.579 330.594 71.4831C330.154 73.2575 329.617 75.0063 328.985 76.7219C327.003 82.0602 324.01 86.9654 320.17 91.1682C322.967 93.2901 326.111 94.9093 329.461 95.9534C333.646 97.2726 338.013 97.9231 342.4 97.8811C348.065 97.9822 353.69 96.9089 358.92 94.7287C363.606 92.7457 367.845 89.8379 371.383 86.1789C374.819 82.5476 377.486 78.2585 379.224 73.5695C381.045 68.6655 381.959 63.4705 381.92 58.2388C382.004 54.132 381.152 50.0602 379.428 46.3325Z" fill="white"/>
<path d="M263.315 19.8892H254.251C251.086 19.8869 247.977 20.7255 245.242 22.3193C242.507 23.9131 240.244 26.2049 238.683 28.9606L224.928 53.5896L216.612 68.1947L214.346 37.4425C214.128 34.5246 212.816 31.797 210.673 29.8073C208.529 27.8176 205.713 26.7131 202.789 26.7155H202.517C200.32 26.7182 198.168 27.3466 196.315 28.5272C194.461 29.7079 192.981 31.392 192.048 33.383L172.99 74.2045H172.605L172.854 46.7861C172.854 39.2567 168.322 34.1994 161.23 34.1994H153.842V83.0492C153.892 86.2744 155.001 89.3934 157 91.9239C158.999 94.4543 161.775 96.2552 164.899 97.0478C168.023 97.8404 171.321 97.5807 174.283 96.3088C177.245 95.0369 179.706 92.8237 181.284 90.0116C181.284 89.8528 181.488 89.6941 181.579 89.5126L188.082 76.8353L198.302 57.0595H198.551L201.883 85.0449C202.237 87.9884 203.517 90.7431 205.537 92.9116C207.557 95.0802 210.213 96.5505 213.122 97.1106C216.031 97.6707 219.043 97.2915 221.723 96.0279C224.403 94.7642 226.612 92.6813 228.033 90.0796L266.102 19.8892H263.315Z" fill="white"/>
</svg>
