<svg width="131" height="24" viewBox="0 0 131 24" fill="none" xmlns="http://www.w3.org/2000/svg">
<path d="M8.832 20.728C11.616 20.728 12.736 19 13.024 18.008H16.384C15.552 21.112 13.12 23.48 8.928 23.48C3.84 23.48 0.736 19.96 0.736 14.84C0.736 9.528 3.84 6.2 8.768 6.2C14.048 6.2 16.64 9.88 16.64 15.704H4.096C4.096 18.456 5.856 20.728 8.832 20.728ZM8.768 8.856C6.048 8.856 4.096 10.68 4.096 13.208H13.28C13.28 10.68 11.488 8.856 8.768 8.856ZM36.9918 6.2C40.2878 6.2 41.9838 8.184 41.9838 11.704V23H38.5918V12.664C38.5918 10.456 38.1438 9.048 35.8398 9.048C33.5678 9.048 32.1598 10.616 32.1598 13.048V23H28.7678V12.664C28.7678 10.456 28.3198 9.048 25.9838 9.048C23.7438 9.048 22.3038 10.616 22.3038 13.048V23H18.9438V6.648H22.3038V8.76H22.3678C23.2318 7.48 24.7678 6.2 27.2318 6.2C29.5358 6.2 30.9118 7.256 31.5838 9.016H31.6478C32.8638 7.448 34.4638 6.2 36.9918 6.2ZM46.988 3.896C46.06 3.896 45.1 3.256 45.1 2.104C45.1 0.952 46.06 0.344 46.988 0.344C47.98 0.344 48.908 0.952 48.908 2.104C48.908 3.256 47.98 3.896 46.988 3.896ZM45.324 6.648H48.684V23H45.324V6.648ZM51.914 0.119999H55.306V23H51.914V0.119999ZM59.8168 23.288C59.0488 23.288 58.4514 22.9573 58.0247 22.296C57.5981 21.6347 57.3848 20.664 57.3848 19.384C57.3848 18.168 57.5554 16.952 57.8968 15.736C58.2381 14.4987 58.7074 13.3253 59.3048 12.216C59.9021 11.1067 60.5741 10.1253 61.3208 9.272C62.0888 8.41867 62.8888 7.74667 63.7208 7.256C64.5741 6.744 65.4168 6.488 66.2488 6.488C66.6541 6.488 67.0381 6.57333 67.4008 6.744C67.7634 6.89333 68.0621 7.13867 68.2968 7.48C68.4248 7.672 68.5528 7.768 68.6808 7.768C68.8088 7.768 68.9368 7.672 69.0648 7.48C69.2994 7.13867 69.4914 6.92533 69.6408 6.84C69.7901 6.73333 69.9288 6.68 70.0568 6.68C70.3341 6.68 70.4408 6.82933 70.3768 7.128L67.5288 19.384C67.2088 20.7707 67.4221 21.464 68.1688 21.464C68.6594 21.464 69.0968 21.1333 69.4808 20.472C69.8861 19.8107 70.2914 18.7867 70.6968 17.4C70.7608 17.1653 70.8994 17.048 71.1128 17.048C71.2621 17.048 71.3581 17.112 71.4008 17.24C71.4434 17.368 71.4434 17.5173 71.4008 17.688C70.9954 19.6933 70.4514 21.1333 69.7688 22.008C69.0861 22.8613 68.2648 23.288 67.3048 23.288C66.4728 23.288 65.8754 22.936 65.5128 22.232C65.1714 21.528 65.1394 20.568 65.4167 19.352L65.8328 17.592C65.8754 17.4427 65.8434 17.3573 65.7368 17.336C65.6514 17.3147 65.5768 17.368 65.5128 17.496C64.3394 19.6507 63.2941 21.1547 62.3768 22.008C61.4808 22.8613 60.6274 23.288 59.8168 23.288ZM60.6168 21.656C61.1288 21.656 61.6941 21.3467 62.3128 20.728C62.9314 20.1093 63.5394 19.3093 64.1368 18.328C64.7554 17.3467 65.3208 16.2907 65.8328 15.16C66.3448 14.0293 66.7501 12.9413 67.0488 11.896C67.3688 10.8507 67.5288 9.96533 67.5288 9.24C67.5288 7.93867 67.0701 7.288 66.1528 7.288C65.5981 7.288 65.0114 7.544 64.3928 8.056C63.7741 8.54667 63.1768 9.21867 62.6008 10.072C62.0461 10.9253 61.5341 11.896 61.0648 12.984C60.6168 14.0507 60.2541 15.1707 59.9768 16.344C59.6994 17.496 59.5608 18.6267 59.5608 19.736C59.5608 20.4827 59.6461 20.9947 59.8168 21.272C60.0088 21.528 60.2754 21.656 60.6168 21.656ZM76.957 23.288C75.9117 23.288 75.133 22.8933 74.621 22.104C74.109 21.3147 74.013 20.3013 74.333 19.064L76.797 9.816C77.0743 8.81333 76.9037 8.312 76.285 8.312C75.837 8.312 75.389 8.632 74.941 9.272C74.5143 9.912 74.045 10.9573 73.533 12.408C73.4477 12.664 73.2983 12.792 73.085 12.792C72.9783 12.792 72.893 12.7493 72.829 12.664C72.765 12.5573 72.7543 12.4293 72.797 12.28C74.0343 8.41867 75.581 6.488 77.437 6.488C78.1623 6.488 78.653 6.78667 78.909 7.384C79.165 7.98133 79.1543 8.80267 78.877 9.848L76.349 19.384C76.1143 20.28 76.093 20.9733 76.285 21.464C76.4983 21.9333 76.8717 22.168 77.405 22.168C78.0237 22.168 78.6743 21.8693 79.357 21.272C80.061 20.6747 80.7223 19.896 81.341 18.936C81.9597 17.976 82.461 16.92 82.845 15.768C83.229 14.616 83.421 13.4853 83.421 12.376C83.421 11.48 83.325 10.776 83.133 10.264C82.941 9.73067 82.7383 9.28267 82.525 8.92C82.333 8.55733 82.237 8.16267 82.237 7.736C82.237 6.904 82.5997 6.488 83.325 6.488C84.349 6.488 84.861 7.61867 84.861 9.88C84.861 11.5013 84.6263 13.112 84.157 14.712C83.6877 16.2907 83.069 17.7307 82.301 19.032C81.533 20.312 80.6797 21.3467 79.741 22.136C78.8237 22.904 77.8957 23.288 76.957 23.288ZM88.1605 23.288C87.3925 23.288 86.7952 22.9573 86.3685 22.296C85.9418 21.6347 85.7285 20.664 85.7285 19.384C85.7285 18.168 85.8992 16.952 86.2405 15.736C86.5818 14.4987 87.0512 13.3253 87.6485 12.216C88.2458 11.1067 88.9178 10.1253 89.6645 9.272C90.4325 8.41867 91.2325 7.74667 92.0645 7.256C92.9178 6.744 93.7605 6.488 94.5925 6.488C94.9978 6.488 95.3818 6.57333 95.7445 6.744C96.1072 6.89333 96.4058 7.13867 96.6405 7.48C96.7685 7.672 96.8965 7.768 97.0245 7.768C97.1525 7.768 97.2805 7.672 97.4085 7.48C97.6432 7.13867 97.8352 6.92533 97.9845 6.84C98.1338 6.73333 98.2725 6.68 98.4005 6.68C98.6778 6.68 98.7845 6.82933 98.7205 7.128L95.8725 19.384C95.5525 20.7707 95.7658 21.464 96.5125 21.464C97.0032 21.464 97.4405 21.1333 97.8245 20.472C98.2298 19.8107 98.6352 18.7867 99.0405 17.4C99.1045 17.1653 99.2432 17.048 99.4565 17.048C99.6058 17.048 99.7018 17.112 99.7445 17.24C99.7872 17.368 99.7872 17.5173 99.7445 17.688C99.3392 19.6933 98.7952 21.1333 98.1125 22.008C97.4298 22.8613 96.6085 23.288 95.6485 23.288C94.8165 23.288 94.2192 22.936 93.8565 22.232C93.5152 21.528 93.4832 20.568 93.7605 19.352L94.1765 17.592C94.2192 17.4427 94.1872 17.3573 94.0805 17.336C93.9952 17.3147 93.9205 17.368 93.8565 17.496C92.6832 19.6507 91.6378 21.1547 90.7205 22.008C89.8245 22.8613 88.9712 23.288 88.1605 23.288ZM88.9605 21.656C89.4725 21.656 90.0378 21.3467 90.6565 20.728C91.2752 20.1093 91.8832 19.3093 92.4805 18.328C93.0992 17.3467 93.6645 16.2907 94.1765 15.16C94.6885 14.0293 95.0938 12.9413 95.3925 11.896C95.7125 10.8507 95.8725 9.96533 95.8725 9.24C95.8725 7.93867 95.4138 7.288 94.4965 7.288C93.9418 7.288 93.3552 7.544 92.7365 8.056C92.1178 8.54667 91.5205 9.21867 90.9445 10.072C90.3898 10.9253 89.8778 11.896 89.4085 12.984C88.9605 14.0507 88.5978 15.1707 88.3205 16.344C88.0432 17.496 87.9045 18.6267 87.9045 19.736C87.9045 20.4827 87.9898 20.9947 88.1605 21.272C88.3525 21.528 88.6192 21.656 88.9605 21.656ZM102.517 23C102.218 23 102.101 22.8613 102.165 22.584L105.205 9.816C105.311 9.34667 105.322 8.984 105.237 8.728C105.173 8.45067 104.981 8.312 104.661 8.312C104.277 8.312 103.85 8.6 103.381 9.176C102.933 9.73067 102.421 10.7973 101.845 12.376C101.759 12.6533 101.61 12.792 101.397 12.792C101.077 12.792 100.991 12.6 101.141 12.216C101.61 10.744 102.101 9.592 102.613 8.76C103.146 7.928 103.679 7.34133 104.213 7C104.746 6.65867 105.237 6.488 105.685 6.488C106.389 6.488 106.89 6.75467 107.189 7.288C107.487 7.8 107.498 8.65333 107.221 9.848L106.869 11.352C106.847 11.5013 106.879 11.5867 106.965 11.608C107.05 11.6293 107.125 11.576 107.189 11.448C107.999 9.592 108.735 8.30133 109.397 7.576C110.058 6.85067 110.815 6.488 111.669 6.488C112.245 6.488 112.671 6.648 112.949 6.968C113.247 7.26667 113.397 7.68267 113.397 8.216C113.397 8.74933 113.269 9.176 113.013 9.496C112.757 9.816 112.426 9.976 112.021 9.976C111.679 9.976 111.434 9.89067 111.285 9.72C111.135 9.54933 111.018 9.35733 110.933 9.144C110.869 8.90933 110.794 8.70667 110.709 8.536C110.623 8.36533 110.485 8.28 110.293 8.28C109.973 8.28 109.557 8.68533 109.045 9.496C108.533 10.3067 107.978 11.4053 107.381 12.792C106.805 14.1573 106.239 15.6933 105.685 17.4C105.151 19.1067 104.682 20.856 104.277 22.648C104.213 22.8827 104.063 23 103.829 23H102.517ZM114.536 23.288C113.768 23.288 113.17 22.9573 112.743 22.296C112.317 21.6347 112.104 20.664 112.104 19.384C112.104 18.168 112.274 16.952 112.616 15.736C112.957 14.4987 113.426 13.3253 114.024 12.216C114.621 11.1067 115.293 10.1253 116.04 9.272C116.808 8.41867 117.608 7.74667 118.44 7.256C119.293 6.744 120.136 6.488 120.968 6.488C121.373 6.488 121.757 6.57333 122.12 6.744C122.482 6.89333 122.781 7.13867 123.016 7.48C123.144 7.672 123.272 7.768 123.4 7.768C123.528 7.768 123.656 7.672 123.784 7.48C124.018 7.13867 124.21 6.92533 124.36 6.84C124.509 6.73333 124.648 6.68 124.776 6.68C125.053 6.68 125.16 6.82933 125.096 7.128L122.248 19.384C121.928 20.7707 122.141 21.464 122.888 21.464C123.378 21.464 123.816 21.1333 124.2 20.472C124.605 19.8107 125.01 18.7867 125.416 17.4C125.48 17.1653 125.618 17.048 125.832 17.048C125.981 17.048 126.077 17.112 126.12 17.24C126.162 17.368 126.162 17.5173 126.12 17.688C125.714 19.6933 125.17 21.1333 124.488 22.008C123.805 22.8613 122.984 23.288 122.024 23.288C121.192 23.288 120.594 22.936 120.232 22.232C119.89 21.528 119.858 20.568 120.135 19.352L120.552 17.592C120.594 17.4427 120.562 17.3573 120.456 17.336C120.37 17.3147 120.296 17.368 120.232 17.496C119.058 19.6507 118.013 21.1547 117.096 22.008C116.2 22.8613 115.346 23.288 114.536 23.288ZM115.336 21.656C115.848 21.656 116.413 21.3467 117.032 20.728C117.65 20.1093 118.258 19.3093 118.856 18.328C119.474 17.3467 120.04 16.2907 120.552 15.16C121.064 14.0293 121.469 12.9413 121.768 11.896C122.088 10.8507 122.248 9.96533 122.248 9.24C122.248 7.93867 121.789 7.288 120.872 7.288C120.317 7.288 119.73 7.544 119.112 8.056C118.493 8.54667 117.896 9.21867 117.32 10.072C116.765 10.9253 116.253 11.896 115.784 12.984C115.336 14.0507 114.973 15.1707 114.696 16.344C114.418 17.496 114.28 18.6267 114.28 19.736C114.28 20.4827 114.365 20.9947 114.536 21.272C114.728 21.528 114.994 21.656 115.336 21.656ZM128.828 23.288C128.38 23.288 128.017 23.1493 127.74 22.872C127.462 22.5733 127.324 22.2107 127.324 21.784C127.324 21.2293 127.516 20.7813 127.9 20.44C128.284 20.0987 128.689 19.928 129.116 19.928C129.542 19.928 129.894 20.0773 130.172 20.376C130.47 20.6533 130.62 21.0053 130.62 21.432C130.62 21.9867 130.428 22.4347 130.044 22.776C129.66 23.1173 129.254 23.288 128.828 23.288Z" fill="white"/>
</svg>
