<svg width="389" height="222" viewBox="0 0 389 222" fill="none" xmlns="http://www.w3.org/2000/svg">
<g clip-path="url(#clip0_97_451)">
<rect x="2.5" y="69.5" width="315" height="127" stroke="#077AFF"/>
<path d="M10.252 75.99H18.302V77.698H15.292V86H13.262V77.698H10.252V75.99ZM20.9353 86.21C20.338 86.21 19.806 86.112 19.3393 85.916C18.882 85.72 18.4946 85.454 18.1773 85.118C17.86 84.7727 17.6173 84.3667 17.4493 83.9C17.2906 83.4333 17.2113 82.934 17.2113 82.402C17.2113 81.87 17.2953 81.3753 17.4633 80.918C17.6406 80.4513 17.8833 80.05 18.1913 79.714C18.5086 79.378 18.882 79.112 19.3113 78.916C19.75 78.72 20.2306 78.622 20.7533 78.622C21.332 78.622 21.8406 78.7293 22.2793 78.944C22.718 79.1493 23.0866 79.4433 23.3853 79.826C23.684 80.2087 23.908 80.666 24.0573 81.198C24.216 81.7207 24.2953 82.304 24.2953 82.948H19.0873C19.162 83.508 19.3486 83.9467 19.6473 84.264C19.9553 84.5813 20.38 84.74 20.9213 84.74C21.2946 84.74 21.5933 84.6607 21.8173 84.502C22.0413 84.3433 22.2046 84.1287 22.3073 83.858H24.1833C24.118 84.1753 23.9966 84.4787 23.8193 84.768C23.6513 85.048 23.4273 85.2953 23.1473 85.51C22.8766 85.7247 22.5546 85.8927 22.1813 86.014C21.808 86.1447 21.3926 86.21 20.9353 86.21ZM20.7813 80.092C20.2773 80.092 19.8946 80.232 19.6333 80.512C19.372 80.7827 19.1993 81.156 19.1153 81.632H22.3073C22.2793 81.1747 22.1253 80.806 21.8453 80.526C21.5746 80.2367 21.22 80.092 20.7813 80.092ZM26.8667 82.192L24.5287 78.818H26.6987L27.9727 80.876H28.0007L29.2047 78.818H31.1787L28.9527 82.178L31.5147 86H29.2467L27.9167 83.62H27.8887L26.3347 86H24.2487L26.8667 82.192ZM31.5515 78.818H32.5455V76.578H34.4075V78.818H35.6395V80.078H34.4075V83.886C34.4075 84.1567 34.4728 84.3433 34.6035 84.446C34.7341 84.5487 34.9068 84.6 35.1215 84.6H35.4855C35.5508 84.6 35.6161 84.5953 35.6815 84.586V85.986C35.5881 85.9953 35.4855 86 35.3735 86C35.2708 86.0093 35.1448 86.014 34.9955 86.014C34.8461 86.014 34.6781 86.014 34.4915 86.014C34.2581 86.014 34.0248 85.9907 33.7915 85.944C33.5675 85.888 33.3621 85.7947 33.1755 85.664C32.9888 85.5333 32.8348 85.356 32.7135 85.132C32.6015 84.908 32.5455 84.628 32.5455 84.292V80.078H31.5515V78.818Z" fill="white"/>
<path d="M11.99 97V84.13H14.6V94.822H20.648V97H11.99Z" fill="white"/>
<path d="M29.5189 95.884C28.6189 96.808 27.4609 97.27 26.0449 97.27C24.6289 97.27 23.4709 96.808 22.5709 95.884C21.6709 94.948 21.2209 93.784 21.2209 92.392C21.2209 91 21.6709 89.842 22.5709 88.918C23.4709 87.982 24.6289 87.514 26.0449 87.514C27.4609 87.514 28.6189 87.982 29.5189 88.918C30.4189 89.842 30.8689 91 30.8689 92.392C30.8689 93.784 30.4189 94.948 29.5189 95.884ZM26.0449 95.398C26.7769 95.398 27.3469 95.128 27.7549 94.588C28.1749 94.036 28.3849 93.304 28.3849 92.392C28.3849 91.48 28.1749 90.748 27.7549 90.196C27.3469 89.644 26.7769 89.368 26.0449 89.368C25.3009 89.368 24.7249 89.644 24.3169 90.196C23.9089 90.736 23.7049 91.468 23.7049 92.392C23.7049 93.304 23.9089 94.036 24.3169 94.588C24.7249 95.128 25.3009 95.398 26.0449 95.398Z" fill="white"/>
<path d="M34.3648 87.766V89.242H34.4188C34.7068 88.702 35.0248 88.306 35.3728 88.054C35.7208 87.79 36.1588 87.658 36.6868 87.658C36.9388 87.658 37.1308 87.682 37.2628 87.73V89.872H37.2088C36.3808 89.788 35.7148 89.968 35.2108 90.412C34.7068 90.856 34.4548 91.552 34.4548 92.5V97H32.0068V87.766H34.3648Z" fill="white"/>
<path d="M42.3917 97.27C40.9037 97.27 39.7337 96.814 38.8817 95.902C38.0297 94.978 37.6037 93.802 37.6037 92.374C37.6037 90.994 38.0297 89.842 38.8817 88.918C39.7337 87.982 40.8257 87.514 42.1577 87.514C43.6097 87.514 44.7317 88.018 45.5237 89.026C46.3157 90.034 46.7117 91.384 46.7117 93.076H40.0157C40.1117 93.808 40.3577 94.378 40.7537 94.786C41.1497 95.182 41.6897 95.38 42.3737 95.38C43.2737 95.38 43.8677 95.002 44.1557 94.246H46.5677C46.3877 95.11 45.9317 95.83 45.1997 96.406C44.4677 96.982 43.5317 97.27 42.3917 97.27ZM42.1937 89.404C41.0057 89.404 40.2917 90.064 40.0517 91.384H44.1557C44.1197 90.796 43.9217 90.322 43.5617 89.962C43.2017 89.59 42.7457 89.404 42.1937 89.404Z" fill="white"/>
<path d="M47.8447 97V87.766H50.2027V89.008H50.2567C50.8447 88.012 51.7387 87.514 52.9387 87.514C53.5147 87.514 54.0247 87.664 54.4687 87.964C54.9247 88.252 55.2667 88.642 55.4947 89.134H55.5307C56.2027 88.054 57.1267 87.514 58.3027 87.514C59.2627 87.514 60.0067 87.808 60.5347 88.396C61.0747 88.972 61.3447 89.77 61.3447 90.79V97H58.8967V91.204C58.8967 90.148 58.4227 89.62 57.4747 89.62C56.9587 89.62 56.5507 89.806 56.2507 90.178C55.9627 90.538 55.8187 91.024 55.8187 91.636V97H53.3707V91.204C53.3707 90.148 52.8967 89.62 51.9487 89.62C51.4567 89.62 51.0547 89.806 50.7427 90.178C50.4427 90.538 50.2927 91.024 50.2927 91.636V97H47.8447Z" fill="white"/>
<path d="M65.8799 97V87.766H68.3279V97H65.8799ZM65.8799 86.326V84.13H68.3279V86.326H65.8799Z" fill="white"/>
<path d="M69.9053 100.024V87.766H72.2633V88.918H72.3173C73.0013 87.982 73.9073 87.514 75.0353 87.514C76.2473 87.514 77.2193 87.964 77.9513 88.864C78.6833 89.764 79.0493 90.94 79.0493 92.392C79.0493 93.88 78.6833 95.068 77.9513 95.956C77.2193 96.832 76.2533 97.27 75.0533 97.27C73.8533 97.27 72.9653 96.832 72.3893 95.956H72.3533V100.024H69.9053ZM74.5313 95.236C75.1553 95.236 75.6473 94.99 76.0073 94.498C76.3793 94.006 76.5653 93.328 76.5653 92.464C76.5653 91.54 76.3913 90.814 76.0433 90.286C75.6953 89.758 75.1613 89.494 74.4413 89.494C73.7093 89.494 73.1693 89.77 72.8213 90.322C72.4733 90.862 72.2993 91.576 72.2993 92.464C72.2993 93.316 72.4913 93.994 72.8753 94.498C73.2593 94.99 73.8113 95.236 74.5313 95.236Z" fill="white"/>
<path d="M83.9325 97.27C82.6125 97.27 81.5805 96.982 80.8365 96.406C80.0925 95.818 79.6845 95.02 79.6125 94.012H81.8805C82.0365 95.032 82.7085 95.542 83.8965 95.542C84.4365 95.542 84.8505 95.446 85.1385 95.254C85.4385 95.062 85.5885 94.804 85.5885 94.48C85.5885 94.36 85.5645 94.252 85.5165 94.156C85.4805 94.06 85.4085 93.976 85.3005 93.904C85.2045 93.82 85.1145 93.754 85.0305 93.706C84.9585 93.658 84.8265 93.61 84.6345 93.562C84.4425 93.514 84.2925 93.478 84.1845 93.454C84.0885 93.43 83.9145 93.4 83.6625 93.364C83.4225 93.316 83.2545 93.28 83.1585 93.256C82.6545 93.16 82.2405 93.064 81.9165 92.968C81.6045 92.86 81.2745 92.71 80.9265 92.518C80.5785 92.314 80.3145 92.044 80.1345 91.708C79.9665 91.36 79.8825 90.946 79.8825 90.466C79.8825 89.506 80.2305 88.774 80.9265 88.27C81.6345 87.766 82.5405 87.514 83.6445 87.514C84.8325 87.514 85.7625 87.79 86.4345 88.342C87.1185 88.882 87.5085 89.626 87.6045 90.574H85.3905C85.2945 89.674 84.7005 89.224 83.6085 89.224C83.1165 89.224 82.7265 89.314 82.4385 89.494C82.1625 89.674 82.0245 89.926 82.0245 90.25C82.0245 90.358 82.0425 90.46 82.0785 90.556C82.1265 90.64 82.1985 90.718 82.2945 90.79C82.4025 90.85 82.5045 90.904 82.6005 90.952C82.6965 90.988 82.8345 91.03 83.0145 91.078C83.1945 91.114 83.3505 91.15 83.4825 91.186C83.6145 91.21 83.7945 91.246 84.0225 91.294C84.2505 91.33 84.4305 91.36 84.5625 91.384C84.9465 91.468 85.2585 91.546 85.4985 91.618C85.7505 91.678 86.0385 91.786 86.3625 91.942C86.6865 92.086 86.9385 92.254 87.1185 92.446C87.3105 92.626 87.4725 92.878 87.6045 93.202C87.7485 93.514 87.8205 93.88 87.8205 94.3C87.8205 95.212 87.4605 95.938 86.7405 96.478C86.0325 97.006 85.0965 97.27 83.9325 97.27Z" fill="white"/>
<path d="M97.1148 97H94.7568V95.92H94.7028C94.3668 96.376 93.9948 96.712 93.5868 96.928C93.1908 97.144 92.6808 97.252 92.0568 97.252C91.0488 97.252 90.2628 96.952 89.6988 96.352C89.1348 95.752 88.8528 94.942 88.8528 93.922V87.766H91.2828V93.508C91.2828 94.624 91.7928 95.182 92.8128 95.182C93.3768 95.182 93.8268 94.99 94.1628 94.606C94.4988 94.222 94.6668 93.718 94.6668 93.094V87.766H97.1148V97Z" fill="white"/>
<path d="M98.6982 97V87.766H101.056V89.008H101.11C101.698 88.012 102.592 87.514 103.792 87.514C104.368 87.514 104.878 87.664 105.322 87.964C105.778 88.252 106.12 88.642 106.348 89.134H106.384C107.056 88.054 107.98 87.514 109.156 87.514C110.116 87.514 110.86 87.808 111.388 88.396C111.928 88.972 112.198 89.77 112.198 90.79V97H109.75V91.204C109.75 90.148 109.276 89.62 108.328 89.62C107.812 89.62 107.404 89.806 107.104 90.178C106.816 90.538 106.672 91.024 106.672 91.636V97H104.224V91.204C104.224 90.148 103.75 89.62 102.802 89.62C102.31 89.62 101.908 89.806 101.596 90.178C101.296 90.538 101.146 91.024 101.146 91.636V97H98.6982Z" fill="white"/>
<path d="M116.769 97V84.13H119.217V97H116.769Z" fill="white"/>
<path d="M128.677 95.884C127.777 96.808 126.619 97.27 125.203 97.27C123.787 97.27 122.629 96.808 121.729 95.884C120.829 94.948 120.379 93.784 120.379 92.392C120.379 91 120.829 89.842 121.729 88.918C122.629 87.982 123.787 87.514 125.203 87.514C126.619 87.514 127.777 87.982 128.677 88.918C129.577 89.842 130.027 91 130.027 92.392C130.027 93.784 129.577 94.948 128.677 95.884ZM125.203 95.398C125.935 95.398 126.505 95.128 126.913 94.588C127.333 94.036 127.543 93.304 127.543 92.392C127.543 91.48 127.333 90.748 126.913 90.196C126.505 89.644 125.935 89.368 125.203 89.368C124.459 89.368 123.883 89.644 123.475 90.196C123.067 90.736 122.863 91.468 122.863 92.392C122.863 93.304 123.067 94.036 123.475 94.588C123.883 95.128 124.459 95.398 125.203 95.398Z" fill="white"/>
<path d="M133.523 87.766V89.242H133.577C133.865 88.702 134.183 88.306 134.531 88.054C134.879 87.79 135.317 87.658 135.845 87.658C136.097 87.658 136.289 87.682 136.421 87.73V89.872H136.367C135.539 89.788 134.873 89.968 134.369 90.412C133.865 90.856 133.613 91.552 133.613 92.5V97H131.165V87.766H133.523Z" fill="white"/>
<path d="M141.55 97.27C140.062 97.27 138.892 96.814 138.04 95.902C137.188 94.978 136.762 93.802 136.762 92.374C136.762 90.994 137.188 89.842 138.04 88.918C138.892 87.982 139.984 87.514 141.316 87.514C142.768 87.514 143.89 88.018 144.682 89.026C145.474 90.034 145.87 91.384 145.87 93.076H139.174C139.27 93.808 139.516 94.378 139.912 94.786C140.308 95.182 140.848 95.38 141.532 95.38C142.432 95.38 143.026 95.002 143.314 94.246H145.726C145.546 95.11 145.09 95.83 144.358 96.406C143.626 96.982 142.69 97.27 141.55 97.27ZM141.352 89.404C140.164 89.404 139.45 90.064 139.21 91.384H143.314C143.278 90.796 143.08 90.322 142.72 89.962C142.36 89.59 141.904 89.404 141.352 89.404Z" fill="white"/>
<path d="M147.003 97V87.766H149.361V89.008H149.415C150.003 88.012 150.897 87.514 152.097 87.514C152.673 87.514 153.183 87.664 153.627 87.964C154.083 88.252 154.425 88.642 154.653 89.134H154.689C155.361 88.054 156.285 87.514 157.461 87.514C158.421 87.514 159.165 87.808 159.693 88.396C160.233 88.972 160.503 89.77 160.503 90.79V97H158.055V91.204C158.055 90.148 157.581 89.62 156.633 89.62C156.117 89.62 155.709 89.806 155.409 90.178C155.121 90.538 154.977 91.024 154.977 91.636V97H152.529V91.204C152.529 90.148 152.055 89.62 151.107 89.62C150.615 89.62 150.213 89.806 149.901 90.178C149.601 90.538 149.451 91.024 149.451 91.636V97H147.003Z" fill="white"/>
<path d="M165.038 97V87.766H167.486V97H165.038ZM165.038 86.326V84.13H167.486V86.326H165.038Z" fill="white"/>
<path d="M169.063 100.024V87.766H171.421V88.918H171.475C172.159 87.982 173.065 87.514 174.193 87.514C175.405 87.514 176.377 87.964 177.109 88.864C177.841 89.764 178.207 90.94 178.207 92.392C178.207 93.88 177.841 95.068 177.109 95.956C176.377 96.832 175.411 97.27 174.211 97.27C173.011 97.27 172.123 96.832 171.547 95.956H171.511V100.024H169.063ZM173.689 95.236C174.313 95.236 174.805 94.99 175.165 94.498C175.537 94.006 175.723 93.328 175.723 92.464C175.723 91.54 175.549 90.814 175.201 90.286C174.853 89.758 174.319 89.494 173.599 89.494C172.867 89.494 172.327 89.77 171.979 90.322C171.631 90.862 171.457 91.576 171.457 92.464C171.457 93.316 171.649 93.994 172.033 94.498C172.417 94.99 172.969 95.236 173.689 95.236Z" fill="white"/>
<path d="M183.091 97.27C181.771 97.27 180.739 96.982 179.995 96.406C179.251 95.818 178.843 95.02 178.771 94.012H181.039C181.195 95.032 181.867 95.542 183.055 95.542C183.595 95.542 184.009 95.446 184.297 95.254C184.597 95.062 184.747 94.804 184.747 94.48C184.747 94.36 184.723 94.252 184.675 94.156C184.639 94.06 184.567 93.976 184.459 93.904C184.363 93.82 184.273 93.754 184.189 93.706C184.117 93.658 183.985 93.61 183.793 93.562C183.601 93.514 183.451 93.478 183.343 93.454C183.247 93.43 183.073 93.4 182.821 93.364C182.581 93.316 182.413 93.28 182.317 93.256C181.813 93.16 181.399 93.064 181.075 92.968C180.763 92.86 180.433 92.71 180.085 92.518C179.737 92.314 179.473 92.044 179.293 91.708C179.125 91.36 179.041 90.946 179.041 90.466C179.041 89.506 179.389 88.774 180.085 88.27C180.793 87.766 181.699 87.514 182.803 87.514C183.991 87.514 184.921 87.79 185.593 88.342C186.277 88.882 186.667 89.626 186.763 90.574H184.549C184.453 89.674 183.859 89.224 182.767 89.224C182.275 89.224 181.885 89.314 181.597 89.494C181.321 89.674 181.183 89.926 181.183 90.25C181.183 90.358 181.201 90.46 181.237 90.556C181.285 90.64 181.357 90.718 181.453 90.79C181.561 90.85 181.663 90.904 181.759 90.952C181.855 90.988 181.993 91.03 182.173 91.078C182.353 91.114 182.509 91.15 182.641 91.186C182.773 91.21 182.953 91.246 183.181 91.294C183.409 91.33 183.589 91.36 183.721 91.384C184.105 91.468 184.417 91.546 184.657 91.618C184.909 91.678 185.197 91.786 185.521 91.942C185.845 92.086 186.097 92.254 186.277 92.446C186.469 92.626 186.631 92.878 186.763 93.202C186.907 93.514 186.979 93.88 186.979 94.3C186.979 95.212 186.619 95.938 185.899 96.478C185.191 97.006 184.255 97.27 183.091 97.27Z" fill="white"/>
<path d="M196.273 97H193.915V95.92H193.861C193.525 96.376 193.153 96.712 192.745 96.928C192.349 97.144 191.839 97.252 191.215 97.252C190.207 97.252 189.421 96.952 188.857 96.352C188.293 95.752 188.011 94.942 188.011 93.922V87.766H190.441V93.508C190.441 94.624 190.951 95.182 191.971 95.182C192.535 95.182 192.985 94.99 193.321 94.606C193.657 94.222 193.825 93.718 193.825 93.094V87.766H196.273V97Z" fill="white"/>
<path d="M197.856 97V87.766H200.214V89.008H200.268C200.856 88.012 201.75 87.514 202.95 87.514C203.526 87.514 204.036 87.664 204.48 87.964C204.936 88.252 205.278 88.642 205.506 89.134H205.542C206.214 88.054 207.138 87.514 208.314 87.514C209.274 87.514 210.018 87.808 210.546 88.396C211.086 88.972 211.356 89.77 211.356 90.79V97H208.908V91.204C208.908 90.148 208.434 89.62 207.486 89.62C206.97 89.62 206.562 89.806 206.262 90.178C205.974 90.538 205.83 91.024 205.83 91.636V97H203.382V91.204C203.382 90.148 202.908 89.62 201.96 89.62C201.468 89.62 201.066 89.806 200.754 90.178C200.454 90.538 200.304 91.024 200.304 91.636V97H197.856Z" fill="white"/>
<path d="M215.928 97V84.13H218.376V97H215.928Z" fill="white"/>
<path d="M227.835 95.884C226.935 96.808 225.777 97.27 224.361 97.27C222.945 97.27 221.787 96.808 220.887 95.884C219.987 94.948 219.537 93.784 219.537 92.392C219.537 91 219.987 89.842 220.887 88.918C221.787 87.982 222.945 87.514 224.361 87.514C225.777 87.514 226.935 87.982 227.835 88.918C228.735 89.842 229.185 91 229.185 92.392C229.185 93.784 228.735 94.948 227.835 95.884ZM224.361 95.398C225.093 95.398 225.663 95.128 226.071 94.588C226.491 94.036 226.701 93.304 226.701 92.392C226.701 91.48 226.491 90.748 226.071 90.196C225.663 89.644 225.093 89.368 224.361 89.368C223.617 89.368 223.041 89.644 222.633 90.196C222.225 90.736 222.021 91.468 222.021 92.392C222.021 93.304 222.225 94.036 222.633 94.588C223.041 95.128 223.617 95.398 224.361 95.398Z" fill="white"/>
<path d="M232.681 87.766V89.242H232.735C233.023 88.702 233.341 88.306 233.689 88.054C234.037 87.79 234.475 87.658 235.003 87.658C235.255 87.658 235.447 87.682 235.579 87.73V89.872H235.525C234.697 89.788 234.031 89.968 233.527 90.412C233.023 90.856 232.771 91.552 232.771 92.5V97H230.323V87.766H232.681Z" fill="white"/>
<path d="M240.708 97.27C239.22 97.27 238.05 96.814 237.198 95.902C236.346 94.978 235.92 93.802 235.92 92.374C235.92 90.994 236.346 89.842 237.198 88.918C238.05 87.982 239.142 87.514 240.474 87.514C241.926 87.514 243.048 88.018 243.84 89.026C244.632 90.034 245.028 91.384 245.028 93.076H238.332C238.428 93.808 238.674 94.378 239.07 94.786C239.466 95.182 240.006 95.38 240.69 95.38C241.59 95.38 242.184 95.002 242.472 94.246H244.884C244.704 95.11 244.248 95.83 243.516 96.406C242.784 96.982 241.848 97.27 240.708 97.27ZM240.51 89.404C239.322 89.404 238.608 90.064 238.368 91.384H242.472C242.436 90.796 242.238 90.322 241.878 89.962C241.518 89.59 241.062 89.404 240.51 89.404Z" fill="white"/>
<path d="M246.161 97V87.766H248.519V89.008H248.573C249.161 88.012 250.055 87.514 251.255 87.514C251.831 87.514 252.341 87.664 252.785 87.964C253.241 88.252 253.583 88.642 253.811 89.134H253.847C254.519 88.054 255.443 87.514 256.619 87.514C257.579 87.514 258.323 87.808 258.851 88.396C259.391 88.972 259.661 89.77 259.661 90.79V97H257.213V91.204C257.213 90.148 256.739 89.62 255.791 89.62C255.275 89.62 254.867 89.806 254.567 90.178C254.279 90.538 254.135 91.024 254.135 91.636V97H251.687V91.204C251.687 90.148 251.213 89.62 250.265 89.62C249.773 89.62 249.371 89.806 249.059 90.178C248.759 90.538 248.609 91.024 248.609 91.636V97H246.161Z" fill="white"/>
<path d="M11.792 119V109.766H14.24V119H11.792ZM11.792 108.326V106.13H14.24V108.326H11.792Z" fill="white"/>
<path d="M15.8174 122.024V109.766H18.1754V110.918H18.2294C18.9134 109.982 19.8194 109.514 20.9474 109.514C22.1594 109.514 23.1314 109.964 23.8634 110.864C24.5954 111.764 24.9614 112.94 24.9614 114.392C24.9614 115.88 24.5954 117.068 23.8634 117.956C23.1314 118.832 22.1654 119.27 20.9654 119.27C19.7654 119.27 18.8774 118.832 18.3014 117.956H18.2654V122.024H15.8174ZM20.4434 117.236C21.0674 117.236 21.5594 116.99 21.9194 116.498C22.2914 116.006 22.4774 115.328 22.4774 114.464C22.4774 113.54 22.3034 112.814 21.9554 112.286C21.6074 111.758 21.0734 111.494 20.3534 111.494C19.6214 111.494 19.0814 111.77 18.7334 112.322C18.3854 112.862 18.2114 113.576 18.2114 114.464C18.2114 115.316 18.4034 115.994 18.7874 116.498C19.1714 116.99 19.7234 117.236 20.4434 117.236Z" fill="white"/>
<path d="M29.8446 119.27C28.5246 119.27 27.4926 118.982 26.7486 118.406C26.0046 117.818 25.5966 117.02 25.5246 116.012H27.7926C27.9486 117.032 28.6206 117.542 29.8086 117.542C30.3486 117.542 30.7626 117.446 31.0506 117.254C31.3506 117.062 31.5006 116.804 31.5006 116.48C31.5006 116.36 31.4766 116.252 31.4286 116.156C31.3926 116.06 31.3206 115.976 31.2126 115.904C31.1166 115.82 31.0266 115.754 30.9426 115.706C30.8706 115.658 30.7386 115.61 30.5466 115.562C30.3546 115.514 30.2046 115.478 30.0966 115.454C30.0006 115.43 29.8266 115.4 29.5746 115.364C29.3346 115.316 29.1666 115.28 29.0706 115.256C28.5666 115.16 28.1526 115.064 27.8286 114.968C27.5166 114.86 27.1866 114.71 26.8386 114.518C26.4906 114.314 26.2266 114.044 26.0466 113.708C25.8786 113.36 25.7946 112.946 25.7946 112.466C25.7946 111.506 26.1426 110.774 26.8386 110.27C27.5466 109.766 28.4526 109.514 29.5566 109.514C30.7446 109.514 31.6746 109.79 32.3466 110.342C33.0306 110.882 33.4206 111.626 33.5166 112.574H31.3026C31.2066 111.674 30.6126 111.224 29.5206 111.224C29.0286 111.224 28.6386 111.314 28.3506 111.494C28.0746 111.674 27.9366 111.926 27.9366 112.25C27.9366 112.358 27.9546 112.46 27.9906 112.556C28.0386 112.64 28.1106 112.718 28.2066 112.79C28.3146 112.85 28.4166 112.904 28.5126 112.952C28.6086 112.988 28.7466 113.03 28.9266 113.078C29.1066 113.114 29.2626 113.15 29.3946 113.186C29.5266 113.21 29.7066 113.246 29.9346 113.294C30.1626 113.33 30.3426 113.36 30.4746 113.384C30.8586 113.468 31.1706 113.546 31.4106 113.618C31.6626 113.678 31.9506 113.786 32.2746 113.942C32.5986 114.086 32.8506 114.254 33.0306 114.446C33.2226 114.626 33.3846 114.878 33.5166 115.202C33.6606 115.514 33.7326 115.88 33.7326 116.3C33.7326 117.212 33.3726 117.938 32.6526 118.478C31.9446 119.006 31.0086 119.27 29.8446 119.27Z" fill="white"/>
<path d="M43.0269 119H40.6689V117.92H40.6149C40.2789 118.376 39.9069 118.712 39.4989 118.928C39.1029 119.144 38.5929 119.252 37.9689 119.252C36.9609 119.252 36.1749 118.952 35.6109 118.352C35.0469 117.752 34.7649 116.942 34.7649 115.922V109.766H37.1949V115.508C37.1949 116.624 37.7049 117.182 38.7249 117.182C39.2889 117.182 39.7389 116.99 40.0749 116.606C40.4109 116.222 40.5789 115.718 40.5789 115.094V109.766H43.0269V119Z" fill="white"/>
<path d="M44.6104 119V109.766H46.9684V111.008H47.0224C47.6104 110.012 48.5044 109.514 49.7044 109.514C50.2804 109.514 50.7904 109.664 51.2344 109.964C51.6904 110.252 52.0324 110.642 52.2604 111.134H52.2964C52.9684 110.054 53.8924 109.514 55.0684 109.514C56.0284 109.514 56.7724 109.808 57.3004 110.396C57.8404 110.972 58.1104 111.77 58.1104 112.79V119H55.6624V113.204C55.6624 112.148 55.1884 111.62 54.2404 111.62C53.7244 111.62 53.3164 111.806 53.0164 112.178C52.7284 112.538 52.5844 113.024 52.5844 113.636V119H50.1364V113.204C50.1364 112.148 49.6624 111.62 48.7144 111.62C48.2224 111.62 47.8204 111.806 47.5084 112.178C47.2084 112.538 47.0584 113.024 47.0584 113.636V119H44.6104Z" fill="white"/>
<path d="M62.6815 119V106.13H65.1295V119H62.6815Z" fill="white"/>
<path d="M74.5892 117.884C73.6892 118.808 72.5312 119.27 71.1152 119.27C69.6992 119.27 68.5412 118.808 67.6412 117.884C66.7412 116.948 66.2912 115.784 66.2912 114.392C66.2912 113 66.7412 111.842 67.6412 110.918C68.5412 109.982 69.6992 109.514 71.1152 109.514C72.5312 109.514 73.6892 109.982 74.5892 110.918C75.4892 111.842 75.9392 113 75.9392 114.392C75.9392 115.784 75.4892 116.948 74.5892 117.884ZM71.1152 117.398C71.8472 117.398 72.4172 117.128 72.8252 116.588C73.2452 116.036 73.4552 115.304 73.4552 114.392C73.4552 113.48 73.2452 112.748 72.8252 112.196C72.4172 111.644 71.8472 111.368 71.1152 111.368C70.3712 111.368 69.7952 111.644 69.3872 112.196C68.9792 112.736 68.7752 113.468 68.7752 114.392C68.7752 115.304 68.9792 116.036 69.3872 116.588C69.7952 117.128 70.3712 117.398 71.1152 117.398Z" fill="white"/>
<path d="M79.4352 109.766V111.242H79.4892C79.7772 110.702 80.0951 110.306 80.4431 110.054C80.7911 109.79 81.2291 109.658 81.7571 109.658C82.0091 109.658 82.2011 109.682 82.3331 109.73V111.872H82.2792C81.4512 111.788 80.7852 111.968 80.2812 112.412C79.7772 112.856 79.5251 113.552 79.5251 114.5V119H77.0771V109.766H79.4352Z" fill="white"/>
<path d="M87.462 119.27C85.974 119.27 84.804 118.814 83.952 117.902C83.1 116.978 82.674 115.802 82.674 114.374C82.674 112.994 83.1 111.842 83.952 110.918C84.804 109.982 85.896 109.514 87.228 109.514C88.68 109.514 89.802 110.018 90.594 111.026C91.386 112.034 91.782 113.384 91.782 115.076H85.086C85.182 115.808 85.428 116.378 85.824 116.786C86.22 117.182 86.76 117.38 87.444 117.38C88.344 117.38 88.938 117.002 89.226 116.246H91.638C91.458 117.11 91.002 117.83 90.27 118.406C89.538 118.982 88.602 119.27 87.462 119.27ZM87.264 111.404C86.076 111.404 85.362 112.064 85.122 113.384H89.226C89.19 112.796 88.992 112.322 88.632 111.962C88.272 111.59 87.816 111.404 87.264 111.404Z" fill="white"/>
<path d="M92.915 119V109.766H95.273V111.008H95.327C95.915 110.012 96.809 109.514 98.009 109.514C98.585 109.514 99.095 109.664 99.539 109.964C99.995 110.252 100.337 110.642 100.565 111.134H100.601C101.273 110.054 102.197 109.514 103.373 109.514C104.333 109.514 105.077 109.808 105.605 110.396C106.145 110.972 106.415 111.77 106.415 112.79V119H103.967V113.204C103.967 112.148 103.493 111.62 102.545 111.62C102.029 111.62 101.621 111.806 101.321 112.178C101.033 112.538 100.889 113.024 100.889 113.636V119H98.441V113.204C98.441 112.148 97.967 111.62 97.019 111.62C96.527 111.62 96.125 111.806 95.813 112.178C95.513 112.538 95.363 113.024 95.363 113.636V119H92.915Z" fill="white"/>
<path d="M110.95 119V109.766H113.398V119H110.95ZM110.95 108.326V106.13H113.398V108.326H110.95Z" fill="white"/>
<path d="M114.976 122.024V109.766H117.334V110.918H117.388C118.072 109.982 118.978 109.514 120.106 109.514C121.318 109.514 122.29 109.964 123.022 110.864C123.754 111.764 124.12 112.94 124.12 114.392C124.12 115.88 123.754 117.068 123.022 117.956C122.29 118.832 121.324 119.27 120.124 119.27C118.924 119.27 118.036 118.832 117.46 117.956H117.424V122.024H114.976ZM119.602 117.236C120.226 117.236 120.718 116.99 121.078 116.498C121.45 116.006 121.636 115.328 121.636 114.464C121.636 113.54 121.462 112.814 121.114 112.286C120.766 111.758 120.232 111.494 119.512 111.494C118.78 111.494 118.24 111.77 117.892 112.322C117.544 112.862 117.37 113.576 117.37 114.464C117.37 115.316 117.562 115.994 117.946 116.498C118.33 116.99 118.882 117.236 119.602 117.236Z" fill="white"/>
<path d="M129.003 119.27C127.683 119.27 126.651 118.982 125.907 118.406C125.163 117.818 124.755 117.02 124.683 116.012H126.951C127.107 117.032 127.779 117.542 128.967 117.542C129.507 117.542 129.921 117.446 130.209 117.254C130.509 117.062 130.659 116.804 130.659 116.48C130.659 116.36 130.635 116.252 130.587 116.156C130.551 116.06 130.479 115.976 130.371 115.904C130.275 115.82 130.185 115.754 130.101 115.706C130.029 115.658 129.897 115.61 129.705 115.562C129.513 115.514 129.363 115.478 129.255 115.454C129.159 115.43 128.985 115.4 128.733 115.364C128.493 115.316 128.325 115.28 128.229 115.256C127.725 115.16 127.311 115.064 126.987 114.968C126.675 114.86 126.345 114.71 125.997 114.518C125.649 114.314 125.385 114.044 125.205 113.708C125.037 113.36 124.953 112.946 124.953 112.466C124.953 111.506 125.301 110.774 125.997 110.27C126.705 109.766 127.611 109.514 128.715 109.514C129.903 109.514 130.833 109.79 131.505 110.342C132.189 110.882 132.579 111.626 132.675 112.574H130.461C130.365 111.674 129.771 111.224 128.679 111.224C128.187 111.224 127.797 111.314 127.509 111.494C127.233 111.674 127.095 111.926 127.095 112.25C127.095 112.358 127.113 112.46 127.149 112.556C127.197 112.64 127.269 112.718 127.365 112.79C127.473 112.85 127.575 112.904 127.671 112.952C127.767 112.988 127.905 113.03 128.085 113.078C128.265 113.114 128.421 113.15 128.553 113.186C128.685 113.21 128.865 113.246 129.093 113.294C129.321 113.33 129.501 113.36 129.633 113.384C130.017 113.468 130.329 113.546 130.569 113.618C130.821 113.678 131.109 113.786 131.433 113.942C131.757 114.086 132.009 114.254 132.189 114.446C132.381 114.626 132.543 114.878 132.675 115.202C132.819 115.514 132.891 115.88 132.891 116.3C132.891 117.212 132.531 117.938 131.811 118.478C131.103 119.006 130.167 119.27 129.003 119.27Z" fill="white"/>
<path d="M142.185 119H139.827V117.92H139.773C139.437 118.376 139.065 118.712 138.657 118.928C138.261 119.144 137.751 119.252 137.127 119.252C136.119 119.252 135.333 118.952 134.769 118.352C134.205 117.752 133.923 116.942 133.923 115.922V109.766H136.353V115.508C136.353 116.624 136.863 117.182 137.883 117.182C138.447 117.182 138.897 116.99 139.233 116.606C139.569 116.222 139.737 115.718 139.737 115.094V109.766H142.185V119Z" fill="white"/>
<path d="M143.769 119V109.766H146.127V111.008H146.181C146.769 110.012 147.663 109.514 148.863 109.514C149.439 109.514 149.949 109.664 150.393 109.964C150.849 110.252 151.191 110.642 151.419 111.134H151.455C152.127 110.054 153.051 109.514 154.227 109.514C155.187 109.514 155.931 109.808 156.459 110.396C156.999 110.972 157.269 111.77 157.269 112.79V119H154.821V113.204C154.821 112.148 154.347 111.62 153.399 111.62C152.883 111.62 152.475 111.806 152.175 112.178C151.887 112.538 151.743 113.024 151.743 113.636V119H149.295V113.204C149.295 112.148 148.821 111.62 147.873 111.62C147.381 111.62 146.979 111.806 146.667 112.178C146.367 112.538 146.217 113.024 146.217 113.636V119H143.769Z" fill="white"/>
<path d="M161.84 119V106.13H164.288V119H161.84Z" fill="white"/>
<path d="M173.747 117.884C172.847 118.808 171.689 119.27 170.273 119.27C168.857 119.27 167.699 118.808 166.799 117.884C165.899 116.948 165.449 115.784 165.449 114.392C165.449 113 165.899 111.842 166.799 110.918C167.699 109.982 168.857 109.514 170.273 109.514C171.689 109.514 172.847 109.982 173.747 110.918C174.647 111.842 175.097 113 175.097 114.392C175.097 115.784 174.647 116.948 173.747 117.884ZM170.273 117.398C171.005 117.398 171.575 117.128 171.983 116.588C172.403 116.036 172.613 115.304 172.613 114.392C172.613 113.48 172.403 112.748 171.983 112.196C171.575 111.644 171.005 111.368 170.273 111.368C169.529 111.368 168.953 111.644 168.545 112.196C168.137 112.736 167.933 113.468 167.933 114.392C167.933 115.304 168.137 116.036 168.545 116.588C168.953 117.128 169.529 117.398 170.273 117.398Z" fill="white"/>
<path d="M178.593 109.766V111.242H178.647C178.935 110.702 179.253 110.306 179.601 110.054C179.949 109.79 180.387 109.658 180.915 109.658C181.167 109.658 181.359 109.682 181.491 109.73V111.872H181.437C180.609 111.788 179.943 111.968 179.439 112.412C178.935 112.856 178.683 113.552 178.683 114.5V119H176.235V109.766H178.593Z" fill="white"/>
<path d="M186.62 119.27C185.132 119.27 183.962 118.814 183.11 117.902C182.258 116.978 181.832 115.802 181.832 114.374C181.832 112.994 182.258 111.842 183.11 110.918C183.962 109.982 185.054 109.514 186.386 109.514C187.838 109.514 188.96 110.018 189.752 111.026C190.544 112.034 190.94 113.384 190.94 115.076H184.244C184.34 115.808 184.586 116.378 184.982 116.786C185.378 117.182 185.918 117.38 186.602 117.38C187.502 117.38 188.096 117.002 188.384 116.246H190.796C190.616 117.11 190.16 117.83 189.428 118.406C188.696 118.982 187.76 119.27 186.62 119.27ZM186.422 111.404C185.234 111.404 184.52 112.064 184.28 113.384H188.384C188.348 112.796 188.15 112.322 187.79 111.962C187.43 111.59 186.974 111.404 186.422 111.404Z" fill="white"/>
<path d="M192.073 119V109.766H194.431V111.008H194.485C195.073 110.012 195.967 109.514 197.167 109.514C197.743 109.514 198.253 109.664 198.697 109.964C199.153 110.252 199.495 110.642 199.723 111.134H199.759C200.431 110.054 201.355 109.514 202.531 109.514C203.491 109.514 204.235 109.808 204.763 110.396C205.303 110.972 205.573 111.77 205.573 112.79V119H203.125V113.204C203.125 112.148 202.651 111.62 201.703 111.62C201.187 111.62 200.779 111.806 200.479 112.178C200.191 112.538 200.047 113.024 200.047 113.636V119H197.599V113.204C197.599 112.148 197.125 111.62 196.177 111.62C195.685 111.62 195.283 111.806 194.971 112.178C194.671 112.538 194.521 113.024 194.521 113.636V119H192.073Z" fill="white"/>
<path d="M210.108 119V109.766H212.556V119H210.108ZM210.108 108.326V106.13H212.556V108.326H210.108Z" fill="white"/>
<path d="M214.134 122.024V109.766H216.492V110.918H216.546C217.23 109.982 218.136 109.514 219.264 109.514C220.476 109.514 221.448 109.964 222.18 110.864C222.912 111.764 223.278 112.94 223.278 114.392C223.278 115.88 222.912 117.068 222.18 117.956C221.448 118.832 220.482 119.27 219.282 119.27C218.082 119.27 217.194 118.832 216.618 117.956H216.582V122.024H214.134ZM218.76 117.236C219.384 117.236 219.876 116.99 220.236 116.498C220.608 116.006 220.794 115.328 220.794 114.464C220.794 113.54 220.62 112.814 220.272 112.286C219.924 111.758 219.39 111.494 218.67 111.494C217.938 111.494 217.398 111.77 217.05 112.322C216.702 112.862 216.528 113.576 216.528 114.464C216.528 115.316 216.72 115.994 217.104 116.498C217.488 116.99 218.04 117.236 218.76 117.236Z" fill="white"/>
<path d="M228.161 119.27C226.841 119.27 225.809 118.982 225.065 118.406C224.321 117.818 223.913 117.02 223.841 116.012H226.109C226.265 117.032 226.937 117.542 228.125 117.542C228.665 117.542 229.079 117.446 229.367 117.254C229.667 117.062 229.817 116.804 229.817 116.48C229.817 116.36 229.793 116.252 229.745 116.156C229.709 116.06 229.637 115.976 229.529 115.904C229.433 115.82 229.343 115.754 229.259 115.706C229.187 115.658 229.055 115.61 228.863 115.562C228.671 115.514 228.521 115.478 228.413 115.454C228.317 115.43 228.143 115.4 227.891 115.364C227.651 115.316 227.483 115.28 227.387 115.256C226.883 115.16 226.469 115.064 226.145 114.968C225.833 114.86 225.503 114.71 225.155 114.518C224.807 114.314 224.543 114.044 224.363 113.708C224.195 113.36 224.111 112.946 224.111 112.466C224.111 111.506 224.459 110.774 225.155 110.27C225.863 109.766 226.769 109.514 227.873 109.514C229.061 109.514 229.991 109.79 230.663 110.342C231.347 110.882 231.737 111.626 231.833 112.574H229.619C229.523 111.674 228.929 111.224 227.837 111.224C227.345 111.224 226.955 111.314 226.667 111.494C226.391 111.674 226.253 111.926 226.253 112.25C226.253 112.358 226.271 112.46 226.307 112.556C226.355 112.64 226.427 112.718 226.523 112.79C226.631 112.85 226.733 112.904 226.829 112.952C226.925 112.988 227.063 113.03 227.243 113.078C227.423 113.114 227.579 113.15 227.711 113.186C227.843 113.21 228.023 113.246 228.251 113.294C228.479 113.33 228.659 113.36 228.791 113.384C229.175 113.468 229.487 113.546 229.727 113.618C229.979 113.678 230.267 113.786 230.591 113.942C230.915 114.086 231.167 114.254 231.347 114.446C231.539 114.626 231.701 114.878 231.833 115.202C231.977 115.514 232.049 115.88 232.049 116.3C232.049 117.212 231.689 117.938 230.969 118.478C230.261 119.006 229.325 119.27 228.161 119.27Z" fill="white"/>
<path d="M241.343 119H238.985V117.92H238.931C238.595 118.376 238.223 118.712 237.815 118.928C237.419 119.144 236.909 119.252 236.285 119.252C235.277 119.252 234.491 118.952 233.927 118.352C233.363 117.752 233.081 116.942 233.081 115.922V109.766H235.511V115.508C235.511 116.624 236.021 117.182 237.041 117.182C237.605 117.182 238.055 116.99 238.391 116.606C238.727 116.222 238.895 115.718 238.895 115.094V109.766H241.343V119Z" fill="white"/>
<path d="M242.927 119V109.766H245.285V111.008H245.339C245.927 110.012 246.821 109.514 248.021 109.514C248.597 109.514 249.107 109.664 249.551 109.964C250.007 110.252 250.349 110.642 250.577 111.134H250.613C251.285 110.054 252.209 109.514 253.385 109.514C254.345 109.514 255.089 109.808 255.617 110.396C256.157 110.972 256.427 111.77 256.427 112.79V119H253.979V113.204C253.979 112.148 253.505 111.62 252.557 111.62C252.041 111.62 251.633 111.806 251.333 112.178C251.045 112.538 250.901 113.024 250.901 113.636V119H248.453V113.204C248.453 112.148 247.979 111.62 247.031 111.62C246.539 111.62 246.137 111.806 245.825 112.178C245.525 112.538 245.375 113.024 245.375 113.636V119H242.927Z" fill="white"/>
<path d="M260.998 119V106.13H263.446V119H260.998Z" fill="white"/>
<path d="M272.906 117.884C272.006 118.808 270.848 119.27 269.432 119.27C268.016 119.27 266.858 118.808 265.958 117.884C265.058 116.948 264.608 115.784 264.608 114.392C264.608 113 265.058 111.842 265.958 110.918C266.858 109.982 268.016 109.514 269.432 109.514C270.848 109.514 272.006 109.982 272.906 110.918C273.806 111.842 274.256 113 274.256 114.392C274.256 115.784 273.806 116.948 272.906 117.884ZM269.432 117.398C270.164 117.398 270.734 117.128 271.142 116.588C271.562 116.036 271.772 115.304 271.772 114.392C271.772 113.48 271.562 112.748 271.142 112.196C270.734 111.644 270.164 111.368 269.432 111.368C268.688 111.368 268.112 111.644 267.704 112.196C267.296 112.736 267.092 113.468 267.092 114.392C267.092 115.304 267.296 116.036 267.704 116.588C268.112 117.128 268.688 117.398 269.432 117.398Z" fill="white"/>
<path d="M277.752 109.766V111.242H277.806C278.094 110.702 278.412 110.306 278.76 110.054C279.108 109.79 279.546 109.658 280.074 109.658C280.326 109.658 280.518 109.682 280.65 109.73V111.872H280.596C279.768 111.788 279.102 111.968 278.598 112.412C278.094 112.856 277.842 113.552 277.842 114.5V119H275.394V109.766H277.752Z" fill="white"/>
<path d="M285.778 119.27C284.29 119.27 283.12 118.814 282.268 117.902C281.416 116.978 280.99 115.802 280.99 114.374C280.99 112.994 281.416 111.842 282.268 110.918C283.12 109.982 284.212 109.514 285.544 109.514C286.996 109.514 288.118 110.018 288.91 111.026C289.702 112.034 290.098 113.384 290.098 115.076H283.402C283.498 115.808 283.744 116.378 284.14 116.786C284.536 117.182 285.076 117.38 285.76 117.38C286.66 117.38 287.254 117.002 287.542 116.246H289.954C289.774 117.11 289.318 117.83 288.586 118.406C287.854 118.982 286.918 119.27 285.778 119.27ZM285.58 111.404C284.392 111.404 283.678 112.064 283.438 113.384H287.542C287.506 112.796 287.308 112.322 286.948 111.962C286.588 111.59 286.132 111.404 285.58 111.404Z" fill="white"/>
<path d="M291.231 119V109.766H293.589V111.008H293.643C294.231 110.012 295.125 109.514 296.325 109.514C296.901 109.514 297.411 109.664 297.855 109.964C298.311 110.252 298.653 110.642 298.881 111.134H298.917C299.589 110.054 300.513 109.514 301.689 109.514C302.649 109.514 303.393 109.808 303.921 110.396C304.461 110.972 304.731 111.77 304.731 112.79V119H302.283V113.204C302.283 112.148 301.809 111.62 300.861 111.62C300.345 111.62 299.937 111.806 299.637 112.178C299.349 112.538 299.205 113.024 299.205 113.636V119H296.757V113.204C296.757 112.148 296.283 111.62 295.335 111.62C294.843 111.62 294.441 111.806 294.129 112.178C293.829 112.538 293.679 113.024 293.679 113.636V119H291.231Z" fill="white"/>
<path d="M11.792 141V131.766H14.24V141H11.792ZM11.792 130.326V128.13H14.24V130.326H11.792Z" fill="white"/>
<path d="M15.8174 144.024V131.766H18.1754V132.918H18.2294C18.9134 131.982 19.8194 131.514 20.9474 131.514C22.1594 131.514 23.1314 131.964 23.8634 132.864C24.5954 133.764 24.9614 134.94 24.9614 136.392C24.9614 137.88 24.5954 139.068 23.8634 139.956C23.1314 140.832 22.1654 141.27 20.9654 141.27C19.7654 141.27 18.8774 140.832 18.3014 139.956H18.2654V144.024H15.8174ZM20.4434 139.236C21.0674 139.236 21.5594 138.99 21.9194 138.498C22.2914 138.006 22.4774 137.328 22.4774 136.464C22.4774 135.54 22.3034 134.814 21.9554 134.286C21.6074 133.758 21.0734 133.494 20.3534 133.494C19.6214 133.494 19.0814 133.77 18.7334 134.322C18.3854 134.862 18.2114 135.576 18.2114 136.464C18.2114 137.316 18.4034 137.994 18.7874 138.498C19.1714 138.99 19.7234 139.236 20.4434 139.236Z" fill="white"/>
<path d="M29.8446 141.27C28.5246 141.27 27.4926 140.982 26.7486 140.406C26.0046 139.818 25.5966 139.02 25.5246 138.012H27.7926C27.9486 139.032 28.6206 139.542 29.8086 139.542C30.3486 139.542 30.7626 139.446 31.0506 139.254C31.3506 139.062 31.5006 138.804 31.5006 138.48C31.5006 138.36 31.4766 138.252 31.4286 138.156C31.3926 138.06 31.3206 137.976 31.2126 137.904C31.1166 137.82 31.0266 137.754 30.9426 137.706C30.8706 137.658 30.7386 137.61 30.5466 137.562C30.3546 137.514 30.2046 137.478 30.0966 137.454C30.0006 137.43 29.8266 137.4 29.5746 137.364C29.3346 137.316 29.1666 137.28 29.0706 137.256C28.5666 137.16 28.1526 137.064 27.8286 136.968C27.5166 136.86 27.1866 136.71 26.8386 136.518C26.4906 136.314 26.2266 136.044 26.0466 135.708C25.8786 135.36 25.7946 134.946 25.7946 134.466C25.7946 133.506 26.1426 132.774 26.8386 132.27C27.5466 131.766 28.4526 131.514 29.5566 131.514C30.7446 131.514 31.6746 131.79 32.3466 132.342C33.0306 132.882 33.4206 133.626 33.5166 134.574H31.3026C31.2066 133.674 30.6126 133.224 29.5206 133.224C29.0286 133.224 28.6386 133.314 28.3506 133.494C28.0746 133.674 27.9366 133.926 27.9366 134.25C27.9366 134.358 27.9546 134.46 27.9906 134.556C28.0386 134.64 28.1106 134.718 28.2066 134.79C28.3146 134.85 28.4166 134.904 28.5126 134.952C28.6086 134.988 28.7466 135.03 28.9266 135.078C29.1066 135.114 29.2626 135.15 29.3946 135.186C29.5266 135.21 29.7066 135.246 29.9346 135.294C30.1626 135.33 30.3426 135.36 30.4746 135.384C30.8586 135.468 31.1706 135.546 31.4106 135.618C31.6626 135.678 31.9506 135.786 32.2746 135.942C32.5986 136.086 32.8506 136.254 33.0306 136.446C33.2226 136.626 33.3846 136.878 33.5166 137.202C33.6606 137.514 33.7326 137.88 33.7326 138.3C33.7326 139.212 33.3726 139.938 32.6526 140.478C31.9446 141.006 31.0086 141.27 29.8446 141.27Z" fill="white"/>
<path d="M43.0269 141H40.6689V139.92H40.6149C40.2789 140.376 39.9069 140.712 39.4989 140.928C39.1029 141.144 38.5929 141.252 37.9689 141.252C36.9609 141.252 36.1749 140.952 35.6109 140.352C35.0469 139.752 34.7649 138.942 34.7649 137.922V131.766H37.1949V137.508C37.1949 138.624 37.7049 139.182 38.7249 139.182C39.2889 139.182 39.7389 138.99 40.0749 138.606C40.4109 138.222 40.5789 137.718 40.5789 137.094V131.766H43.0269V141Z" fill="white"/>
<path d="M44.6104 141V131.766H46.9684V133.008H47.0224C47.6104 132.012 48.5044 131.514 49.7044 131.514C50.2804 131.514 50.7904 131.664 51.2344 131.964C51.6904 132.252 52.0324 132.642 52.2604 133.134H52.2964C52.9684 132.054 53.8924 131.514 55.0684 131.514C56.0284 131.514 56.7724 131.808 57.3004 132.396C57.8404 132.972 58.1104 133.77 58.1104 134.79V141H55.6624V135.204C55.6624 134.148 55.1884 133.62 54.2404 133.62C53.7244 133.62 53.3164 133.806 53.0164 134.178C52.7284 134.538 52.5844 135.024 52.5844 135.636V141H50.1364V135.204C50.1364 134.148 49.6624 133.62 48.7144 133.62C48.2224 133.62 47.8204 133.806 47.5084 134.178C47.2084 134.538 47.0584 135.024 47.0584 135.636V141H44.6104Z" fill="white"/>
<path d="M62.6815 141V128.13H65.1295V141H62.6815Z" fill="white"/>
<path d="M74.5892 139.884C73.6892 140.808 72.5312 141.27 71.1152 141.27C69.6992 141.27 68.5412 140.808 67.6412 139.884C66.7412 138.948 66.2912 137.784 66.2912 136.392C66.2912 135 66.7412 133.842 67.6412 132.918C68.5412 131.982 69.6992 131.514 71.1152 131.514C72.5312 131.514 73.6892 131.982 74.5892 132.918C75.4892 133.842 75.9392 135 75.9392 136.392C75.9392 137.784 75.4892 138.948 74.5892 139.884ZM71.1152 139.398C71.8472 139.398 72.4172 139.128 72.8252 138.588C73.2452 138.036 73.4552 137.304 73.4552 136.392C73.4552 135.48 73.2452 134.748 72.8252 134.196C72.4172 133.644 71.8472 133.368 71.1152 133.368C70.3712 133.368 69.7952 133.644 69.3872 134.196C68.9792 134.736 68.7752 135.468 68.7752 136.392C68.7752 137.304 68.9792 138.036 69.3872 138.588C69.7952 139.128 70.3712 139.398 71.1152 139.398Z" fill="white"/>
<path d="M79.4352 131.766V133.242H79.4892C79.7772 132.702 80.0951 132.306 80.4431 132.054C80.7911 131.79 81.2291 131.658 81.7571 131.658C82.0091 131.658 82.2011 131.682 82.3331 131.73V133.872H82.2792C81.4512 133.788 80.7852 133.968 80.2812 134.412C79.7772 134.856 79.5251 135.552 79.5251 136.5V141H77.0771V131.766H79.4352Z" fill="white"/>
<path d="M87.462 141.27C85.974 141.27 84.804 140.814 83.952 139.902C83.1 138.978 82.674 137.802 82.674 136.374C82.674 134.994 83.1 133.842 83.952 132.918C84.804 131.982 85.896 131.514 87.228 131.514C88.68 131.514 89.802 132.018 90.594 133.026C91.386 134.034 91.782 135.384 91.782 137.076H85.086C85.182 137.808 85.428 138.378 85.824 138.786C86.22 139.182 86.76 139.38 87.444 139.38C88.344 139.38 88.938 139.002 89.226 138.246H91.638C91.458 139.11 91.002 139.83 90.27 140.406C89.538 140.982 88.602 141.27 87.462 141.27ZM87.264 133.404C86.076 133.404 85.362 134.064 85.122 135.384H89.226C89.19 134.796 88.992 134.322 88.632 133.962C88.272 133.59 87.816 133.404 87.264 133.404Z" fill="white"/>
<path d="M92.915 141V131.766H95.273V133.008H95.327C95.915 132.012 96.809 131.514 98.009 131.514C98.585 131.514 99.095 131.664 99.539 131.964C99.995 132.252 100.337 132.642 100.565 133.134H100.601C101.273 132.054 102.197 131.514 103.373 131.514C104.333 131.514 105.077 131.808 105.605 132.396C106.145 132.972 106.415 133.77 106.415 134.79V141H103.967V135.204C103.967 134.148 103.493 133.62 102.545 133.62C102.029 133.62 101.621 133.806 101.321 134.178C101.033 134.538 100.889 135.024 100.889 135.636V141H98.441V135.204C98.441 134.148 97.967 133.62 97.019 133.62C96.527 133.62 96.125 133.806 95.813 134.178C95.513 134.538 95.363 135.024 95.363 135.636V141H92.915Z" fill="white"/>
<path d="M110.95 141V131.766H113.398V141H110.95ZM110.95 130.326V128.13H113.398V130.326H110.95Z" fill="white"/>
<path d="M114.976 144.024V131.766H117.334V132.918H117.388C118.072 131.982 118.978 131.514 120.106 131.514C121.318 131.514 122.29 131.964 123.022 132.864C123.754 133.764 124.12 134.94 124.12 136.392C124.12 137.88 123.754 139.068 123.022 139.956C122.29 140.832 121.324 141.27 120.124 141.27C118.924 141.27 118.036 140.832 117.46 139.956H117.424V144.024H114.976ZM119.602 139.236C120.226 139.236 120.718 138.99 121.078 138.498C121.45 138.006 121.636 137.328 121.636 136.464C121.636 135.54 121.462 134.814 121.114 134.286C120.766 133.758 120.232 133.494 119.512 133.494C118.78 133.494 118.24 133.77 117.892 134.322C117.544 134.862 117.37 135.576 117.37 136.464C117.37 137.316 117.562 137.994 117.946 138.498C118.33 138.99 118.882 139.236 119.602 139.236Z" fill="white"/>
<path d="M129.003 141.27C127.683 141.27 126.651 140.982 125.907 140.406C125.163 139.818 124.755 139.02 124.683 138.012H126.951C127.107 139.032 127.779 139.542 128.967 139.542C129.507 139.542 129.921 139.446 130.209 139.254C130.509 139.062 130.659 138.804 130.659 138.48C130.659 138.36 130.635 138.252 130.587 138.156C130.551 138.06 130.479 137.976 130.371 137.904C130.275 137.82 130.185 137.754 130.101 137.706C130.029 137.658 129.897 137.61 129.705 137.562C129.513 137.514 129.363 137.478 129.255 137.454C129.159 137.43 128.985 137.4 128.733 137.364C128.493 137.316 128.325 137.28 128.229 137.256C127.725 137.16 127.311 137.064 126.987 136.968C126.675 136.86 126.345 136.71 125.997 136.518C125.649 136.314 125.385 136.044 125.205 135.708C125.037 135.36 124.953 134.946 124.953 134.466C124.953 133.506 125.301 132.774 125.997 132.27C126.705 131.766 127.611 131.514 128.715 131.514C129.903 131.514 130.833 131.79 131.505 132.342C132.189 132.882 132.579 133.626 132.675 134.574H130.461C130.365 133.674 129.771 133.224 128.679 133.224C128.187 133.224 127.797 133.314 127.509 133.494C127.233 133.674 127.095 133.926 127.095 134.25C127.095 134.358 127.113 134.46 127.149 134.556C127.197 134.64 127.269 134.718 127.365 134.79C127.473 134.85 127.575 134.904 127.671 134.952C127.767 134.988 127.905 135.03 128.085 135.078C128.265 135.114 128.421 135.15 128.553 135.186C128.685 135.21 128.865 135.246 129.093 135.294C129.321 135.33 129.501 135.36 129.633 135.384C130.017 135.468 130.329 135.546 130.569 135.618C130.821 135.678 131.109 135.786 131.433 135.942C131.757 136.086 132.009 136.254 132.189 136.446C132.381 136.626 132.543 136.878 132.675 137.202C132.819 137.514 132.891 137.88 132.891 138.3C132.891 139.212 132.531 139.938 131.811 140.478C131.103 141.006 130.167 141.27 129.003 141.27Z" fill="white"/>
<path d="M142.185 141H139.827V139.92H139.773C139.437 140.376 139.065 140.712 138.657 140.928C138.261 141.144 137.751 141.252 137.127 141.252C136.119 141.252 135.333 140.952 134.769 140.352C134.205 139.752 133.923 138.942 133.923 137.922V131.766H136.353V137.508C136.353 138.624 136.863 139.182 137.883 139.182C138.447 139.182 138.897 138.99 139.233 138.606C139.569 138.222 139.737 137.718 139.737 137.094V131.766H142.185V141Z" fill="white"/>
<path d="M143.769 141V131.766H146.127V133.008H146.181C146.769 132.012 147.663 131.514 148.863 131.514C149.439 131.514 149.949 131.664 150.393 131.964C150.849 132.252 151.191 132.642 151.419 133.134H151.455C152.127 132.054 153.051 131.514 154.227 131.514C155.187 131.514 155.931 131.808 156.459 132.396C156.999 132.972 157.269 133.77 157.269 134.79V141H154.821V135.204C154.821 134.148 154.347 133.62 153.399 133.62C152.883 133.62 152.475 133.806 152.175 134.178C151.887 134.538 151.743 135.024 151.743 135.636V141H149.295V135.204C149.295 134.148 148.821 133.62 147.873 133.62C147.381 133.62 146.979 133.806 146.667 134.178C146.367 134.538 146.217 135.024 146.217 135.636V141H143.769Z" fill="white"/>
<path d="M161.84 141V128.13H164.288V141H161.84Z" fill="white"/>
<path d="M173.747 139.884C172.847 140.808 171.689 141.27 170.273 141.27C168.857 141.27 167.699 140.808 166.799 139.884C165.899 138.948 165.449 137.784 165.449 136.392C165.449 135 165.899 133.842 166.799 132.918C167.699 131.982 168.857 131.514 170.273 131.514C171.689 131.514 172.847 131.982 173.747 132.918C174.647 133.842 175.097 135 175.097 136.392C175.097 137.784 174.647 138.948 173.747 139.884ZM170.273 139.398C171.005 139.398 171.575 139.128 171.983 138.588C172.403 138.036 172.613 137.304 172.613 136.392C172.613 135.48 172.403 134.748 171.983 134.196C171.575 133.644 171.005 133.368 170.273 133.368C169.529 133.368 168.953 133.644 168.545 134.196C168.137 134.736 167.933 135.468 167.933 136.392C167.933 137.304 168.137 138.036 168.545 138.588C168.953 139.128 169.529 139.398 170.273 139.398Z" fill="white"/>
<path d="M178.593 131.766V133.242H178.647C178.935 132.702 179.253 132.306 179.601 132.054C179.949 131.79 180.387 131.658 180.915 131.658C181.167 131.658 181.359 131.682 181.491 131.73V133.872H181.437C180.609 133.788 179.943 133.968 179.439 134.412C178.935 134.856 178.683 135.552 178.683 136.5V141H176.235V131.766H178.593Z" fill="white"/>
<path d="M186.62 141.27C185.132 141.27 183.962 140.814 183.11 139.902C182.258 138.978 181.832 137.802 181.832 136.374C181.832 134.994 182.258 133.842 183.11 132.918C183.962 131.982 185.054 131.514 186.386 131.514C187.838 131.514 188.96 132.018 189.752 133.026C190.544 134.034 190.94 135.384 190.94 137.076H184.244C184.34 137.808 184.586 138.378 184.982 138.786C185.378 139.182 185.918 139.38 186.602 139.38C187.502 139.38 188.096 139.002 188.384 138.246H190.796C190.616 139.11 190.16 139.83 189.428 140.406C188.696 140.982 187.76 141.27 186.62 141.27ZM186.422 133.404C185.234 133.404 184.52 134.064 184.28 135.384H188.384C188.348 134.796 188.15 134.322 187.79 133.962C187.43 133.59 186.974 133.404 186.422 133.404Z" fill="white"/>
<path d="M192.073 141V131.766H194.431V133.008H194.485C195.073 132.012 195.967 131.514 197.167 131.514C197.743 131.514 198.253 131.664 198.697 131.964C199.153 132.252 199.495 132.642 199.723 133.134H199.759C200.431 132.054 201.355 131.514 202.531 131.514C203.491 131.514 204.235 131.808 204.763 132.396C205.303 132.972 205.573 133.77 205.573 134.79V141H203.125V135.204C203.125 134.148 202.651 133.62 201.703 133.62C201.187 133.62 200.779 133.806 200.479 134.178C200.191 134.538 200.047 135.024 200.047 135.636V141H197.599V135.204C197.599 134.148 197.125 133.62 196.177 133.62C195.685 133.62 195.283 133.806 194.971 134.178C194.671 134.538 194.521 135.024 194.521 135.636V141H192.073Z" fill="white"/>
<path d="M210.108 141V131.766H212.556V141H210.108ZM210.108 130.326V128.13H212.556V130.326H210.108Z" fill="white"/>
<path d="M214.134 144.024V131.766H216.492V132.918H216.546C217.23 131.982 218.136 131.514 219.264 131.514C220.476 131.514 221.448 131.964 222.18 132.864C222.912 133.764 223.278 134.94 223.278 136.392C223.278 137.88 222.912 139.068 222.18 139.956C221.448 140.832 220.482 141.27 219.282 141.27C218.082 141.27 217.194 140.832 216.618 139.956H216.582V144.024H214.134ZM218.76 139.236C219.384 139.236 219.876 138.99 220.236 138.498C220.608 138.006 220.794 137.328 220.794 136.464C220.794 135.54 220.62 134.814 220.272 134.286C219.924 133.758 219.39 133.494 218.67 133.494C217.938 133.494 217.398 133.77 217.05 134.322C216.702 134.862 216.528 135.576 216.528 136.464C216.528 137.316 216.72 137.994 217.104 138.498C217.488 138.99 218.04 139.236 218.76 139.236Z" fill="white"/>
<path d="M228.161 141.27C226.841 141.27 225.809 140.982 225.065 140.406C224.321 139.818 223.913 139.02 223.841 138.012H226.109C226.265 139.032 226.937 139.542 228.125 139.542C228.665 139.542 229.079 139.446 229.367 139.254C229.667 139.062 229.817 138.804 229.817 138.48C229.817 138.36 229.793 138.252 229.745 138.156C229.709 138.06 229.637 137.976 229.529 137.904C229.433 137.82 229.343 137.754 229.259 137.706C229.187 137.658 229.055 137.61 228.863 137.562C228.671 137.514 228.521 137.478 228.413 137.454C228.317 137.43 228.143 137.4 227.891 137.364C227.651 137.316 227.483 137.28 227.387 137.256C226.883 137.16 226.469 137.064 226.145 136.968C225.833 136.86 225.503 136.71 225.155 136.518C224.807 136.314 224.543 136.044 224.363 135.708C224.195 135.36 224.111 134.946 224.111 134.466C224.111 133.506 224.459 132.774 225.155 132.27C225.863 131.766 226.769 131.514 227.873 131.514C229.061 131.514 229.991 131.79 230.663 132.342C231.347 132.882 231.737 133.626 231.833 134.574H229.619C229.523 133.674 228.929 133.224 227.837 133.224C227.345 133.224 226.955 133.314 226.667 133.494C226.391 133.674 226.253 133.926 226.253 134.25C226.253 134.358 226.271 134.46 226.307 134.556C226.355 134.64 226.427 134.718 226.523 134.79C226.631 134.85 226.733 134.904 226.829 134.952C226.925 134.988 227.063 135.03 227.243 135.078C227.423 135.114 227.579 135.15 227.711 135.186C227.843 135.21 228.023 135.246 228.251 135.294C228.479 135.33 228.659 135.36 228.791 135.384C229.175 135.468 229.487 135.546 229.727 135.618C229.979 135.678 230.267 135.786 230.591 135.942C230.915 136.086 231.167 136.254 231.347 136.446C231.539 136.626 231.701 136.878 231.833 137.202C231.977 137.514 232.049 137.88 232.049 138.3C232.049 139.212 231.689 139.938 230.969 140.478C230.261 141.006 229.325 141.27 228.161 141.27Z" fill="white"/>
<path d="M241.343 141H238.985V139.92H238.931C238.595 140.376 238.223 140.712 237.815 140.928C237.419 141.144 236.909 141.252 236.285 141.252C235.277 141.252 234.491 140.952 233.927 140.352C233.363 139.752 233.081 138.942 233.081 137.922V131.766H235.511V137.508C235.511 138.624 236.021 139.182 237.041 139.182C237.605 139.182 238.055 138.99 238.391 138.606C238.727 138.222 238.895 137.718 238.895 137.094V131.766H241.343V141Z" fill="white"/>
<path d="M242.927 141V131.766H245.285V133.008H245.339C245.927 132.012 246.821 131.514 248.021 131.514C248.597 131.514 249.107 131.664 249.551 131.964C250.007 132.252 250.349 132.642 250.577 133.134H250.613C251.285 132.054 252.209 131.514 253.385 131.514C254.345 131.514 255.089 131.808 255.617 132.396C256.157 132.972 256.427 133.77 256.427 134.79V141H253.979V135.204C253.979 134.148 253.505 133.62 252.557 133.62C252.041 133.62 251.633 133.806 251.333 134.178C251.045 134.538 250.901 135.024 250.901 135.636V141H248.453V135.204C248.453 134.148 247.979 133.62 247.031 133.62C246.539 133.62 246.137 133.806 245.825 134.178C245.525 134.538 245.375 135.024 245.375 135.636V141H242.927Z" fill="white"/>
<path d="M260.998 141V128.13H263.446V141H260.998Z" fill="white"/>
<path d="M272.906 139.884C272.006 140.808 270.848 141.27 269.432 141.27C268.016 141.27 266.858 140.808 265.958 139.884C265.058 138.948 264.608 137.784 264.608 136.392C264.608 135 265.058 133.842 265.958 132.918C266.858 131.982 268.016 131.514 269.432 131.514C270.848 131.514 272.006 131.982 272.906 132.918C273.806 133.842 274.256 135 274.256 136.392C274.256 137.784 273.806 138.948 272.906 139.884ZM269.432 139.398C270.164 139.398 270.734 139.128 271.142 138.588C271.562 138.036 271.772 137.304 271.772 136.392C271.772 135.48 271.562 134.748 271.142 134.196C270.734 133.644 270.164 133.368 269.432 133.368C268.688 133.368 268.112 133.644 267.704 134.196C267.296 134.736 267.092 135.468 267.092 136.392C267.092 137.304 267.296 138.036 267.704 138.588C268.112 139.128 268.688 139.398 269.432 139.398Z" fill="white"/>
<path d="M277.752 131.766V133.242H277.806C278.094 132.702 278.412 132.306 278.76 132.054C279.108 131.79 279.546 131.658 280.074 131.658C280.326 131.658 280.518 131.682 280.65 131.73V133.872H280.596C279.768 133.788 279.102 133.968 278.598 134.412C278.094 134.856 277.842 135.552 277.842 136.5V141H275.394V131.766H277.752Z" fill="white"/>
<path d="M285.778 141.27C284.29 141.27 283.12 140.814 282.268 139.902C281.416 138.978 280.99 137.802 280.99 136.374C280.99 134.994 281.416 133.842 282.268 132.918C283.12 131.982 284.212 131.514 285.544 131.514C286.996 131.514 288.118 132.018 288.91 133.026C289.702 134.034 290.098 135.384 290.098 137.076H283.402C283.498 137.808 283.744 138.378 284.14 138.786C284.536 139.182 285.076 139.38 285.76 139.38C286.66 139.38 287.254 139.002 287.542 138.246H289.954C289.774 139.11 289.318 139.83 288.586 140.406C287.854 140.982 286.918 141.27 285.778 141.27ZM285.58 133.404C284.392 133.404 283.678 134.064 283.438 135.384H287.542C287.506 134.796 287.308 134.322 286.948 133.962C286.588 133.59 286.132 133.404 285.58 133.404Z" fill="white"/>
<path d="M291.231 141V131.766H293.589V133.008H293.643C294.231 132.012 295.125 131.514 296.325 131.514C296.901 131.514 297.411 131.664 297.855 131.964C298.311 132.252 298.653 132.642 298.881 133.134H298.917C299.589 132.054 300.513 131.514 301.689 131.514C302.649 131.514 303.393 131.808 303.921 132.396C304.461 132.972 304.731 133.77 304.731 134.79V141H302.283V135.204C302.283 134.148 301.809 133.62 300.861 133.62C300.345 133.62 299.937 133.806 299.637 134.178C299.349 134.538 299.205 135.024 299.205 135.636V141H296.757V135.204C296.757 134.148 296.283 133.62 295.335 133.62C294.843 133.62 294.441 133.806 294.129 134.178C293.829 134.538 293.679 135.024 293.679 135.636V141H291.231Z" fill="white"/>
<path d="M11.792 163V153.766H14.24V163H11.792ZM11.792 152.326V150.13H14.24V152.326H11.792Z" fill="white"/>
<path d="M15.8174 166.024V153.766H18.1754V154.918H18.2294C18.9134 153.982 19.8194 153.514 20.9474 153.514C22.1594 153.514 23.1314 153.964 23.8634 154.864C24.5954 155.764 24.9614 156.94 24.9614 158.392C24.9614 159.88 24.5954 161.068 23.8634 161.956C23.1314 162.832 22.1654 163.27 20.9654 163.27C19.7654 163.27 18.8774 162.832 18.3014 161.956H18.2654V166.024H15.8174ZM20.4434 161.236C21.0674 161.236 21.5594 160.99 21.9194 160.498C22.2914 160.006 22.4774 159.328 22.4774 158.464C22.4774 157.54 22.3034 156.814 21.9554 156.286C21.6074 155.758 21.0734 155.494 20.3534 155.494C19.6214 155.494 19.0814 155.77 18.7334 156.322C18.3854 156.862 18.2114 157.576 18.2114 158.464C18.2114 159.316 18.4034 159.994 18.7874 160.498C19.1714 160.99 19.7234 161.236 20.4434 161.236Z" fill="white"/>
<path d="M29.8446 163.27C28.5246 163.27 27.4926 162.982 26.7486 162.406C26.0046 161.818 25.5966 161.02 25.5246 160.012H27.7926C27.9486 161.032 28.6206 161.542 29.8086 161.542C30.3486 161.542 30.7626 161.446 31.0506 161.254C31.3506 161.062 31.5006 160.804 31.5006 160.48C31.5006 160.36 31.4766 160.252 31.4286 160.156C31.3926 160.06 31.3206 159.976 31.2126 159.904C31.1166 159.82 31.0266 159.754 30.9426 159.706C30.8706 159.658 30.7386 159.61 30.5466 159.562C30.3546 159.514 30.2046 159.478 30.0966 159.454C30.0006 159.43 29.8266 159.4 29.5746 159.364C29.3346 159.316 29.1666 159.28 29.0706 159.256C28.5666 159.16 28.1526 159.064 27.8286 158.968C27.5166 158.86 27.1866 158.71 26.8386 158.518C26.4906 158.314 26.2266 158.044 26.0466 157.708C25.8786 157.36 25.7946 156.946 25.7946 156.466C25.7946 155.506 26.1426 154.774 26.8386 154.27C27.5466 153.766 28.4526 153.514 29.5566 153.514C30.7446 153.514 31.6746 153.79 32.3466 154.342C33.0306 154.882 33.4206 155.626 33.5166 156.574H31.3026C31.2066 155.674 30.6126 155.224 29.5206 155.224C29.0286 155.224 28.6386 155.314 28.3506 155.494C28.0746 155.674 27.9366 155.926 27.9366 156.25C27.9366 156.358 27.9546 156.46 27.9906 156.556C28.0386 156.64 28.1106 156.718 28.2066 156.79C28.3146 156.85 28.4166 156.904 28.5126 156.952C28.6086 156.988 28.7466 157.03 28.9266 157.078C29.1066 157.114 29.2626 157.15 29.3946 157.186C29.5266 157.21 29.7066 157.246 29.9346 157.294C30.1626 157.33 30.3426 157.36 30.4746 157.384C30.8586 157.468 31.1706 157.546 31.4106 157.618C31.6626 157.678 31.9506 157.786 32.2746 157.942C32.5986 158.086 32.8506 158.254 33.0306 158.446C33.2226 158.626 33.3846 158.878 33.5166 159.202C33.6606 159.514 33.7326 159.88 33.7326 160.3C33.7326 161.212 33.3726 161.938 32.6526 162.478C31.9446 163.006 31.0086 163.27 29.8446 163.27Z" fill="white"/>
<path d="M43.0269 163H40.6689V161.92H40.6149C40.2789 162.376 39.9069 162.712 39.4989 162.928C39.1029 163.144 38.5929 163.252 37.9689 163.252C36.9609 163.252 36.1749 162.952 35.6109 162.352C35.0469 161.752 34.7649 160.942 34.7649 159.922V153.766H37.1949V159.508C37.1949 160.624 37.7049 161.182 38.7249 161.182C39.2889 161.182 39.7389 160.99 40.0749 160.606C40.4109 160.222 40.5789 159.718 40.5789 159.094V153.766H43.0269V163Z" fill="white"/>
<path d="M44.6104 163V153.766H46.9684V155.008H47.0224C47.6104 154.012 48.5044 153.514 49.7044 153.514C50.2804 153.514 50.7904 153.664 51.2344 153.964C51.6904 154.252 52.0324 154.642 52.2604 155.134H52.2964C52.9684 154.054 53.8924 153.514 55.0684 153.514C56.0284 153.514 56.7724 153.808 57.3004 154.396C57.8404 154.972 58.1104 155.77 58.1104 156.79V163H55.6624V157.204C55.6624 156.148 55.1884 155.62 54.2404 155.62C53.7244 155.62 53.3164 155.806 53.0164 156.178C52.7284 156.538 52.5844 157.024 52.5844 157.636V163H50.1364V157.204C50.1364 156.148 49.6624 155.62 48.7144 155.62C48.2224 155.62 47.8204 155.806 47.5084 156.178C47.2084 156.538 47.0584 157.024 47.0584 157.636V163H44.6104Z" fill="white"/>
<path d="M62.6815 163V150.13H65.1295V163H62.6815Z" fill="white"/>
<path d="M74.5892 161.884C73.6892 162.808 72.5312 163.27 71.1152 163.27C69.6992 163.27 68.5412 162.808 67.6412 161.884C66.7412 160.948 66.2912 159.784 66.2912 158.392C66.2912 157 66.7412 155.842 67.6412 154.918C68.5412 153.982 69.6992 153.514 71.1152 153.514C72.5312 153.514 73.6892 153.982 74.5892 154.918C75.4892 155.842 75.9392 157 75.9392 158.392C75.9392 159.784 75.4892 160.948 74.5892 161.884ZM71.1152 161.398C71.8472 161.398 72.4172 161.128 72.8252 160.588C73.2452 160.036 73.4552 159.304 73.4552 158.392C73.4552 157.48 73.2452 156.748 72.8252 156.196C72.4172 155.644 71.8472 155.368 71.1152 155.368C70.3712 155.368 69.7952 155.644 69.3872 156.196C68.9792 156.736 68.7752 157.468 68.7752 158.392C68.7752 159.304 68.9792 160.036 69.3872 160.588C69.7952 161.128 70.3712 161.398 71.1152 161.398Z" fill="white"/>
<path d="M79.4352 153.766V155.242H79.4892C79.7772 154.702 80.0951 154.306 80.4431 154.054C80.7911 153.79 81.2291 153.658 81.7571 153.658C82.0091 153.658 82.2011 153.682 82.3331 153.73V155.872H82.2792C81.4512 155.788 80.7852 155.968 80.2812 156.412C79.7772 156.856 79.5251 157.552 79.5251 158.5V163H77.0771V153.766H79.4352Z" fill="white"/>
<path d="M87.462 163.27C85.974 163.27 84.804 162.814 83.952 161.902C83.1 160.978 82.674 159.802 82.674 158.374C82.674 156.994 83.1 155.842 83.952 154.918C84.804 153.982 85.896 153.514 87.228 153.514C88.68 153.514 89.802 154.018 90.594 155.026C91.386 156.034 91.782 157.384 91.782 159.076H85.086C85.182 159.808 85.428 160.378 85.824 160.786C86.22 161.182 86.76 161.38 87.444 161.38C88.344 161.38 88.938 161.002 89.226 160.246H91.638C91.458 161.11 91.002 161.83 90.27 162.406C89.538 162.982 88.602 163.27 87.462 163.27ZM87.264 155.404C86.076 155.404 85.362 156.064 85.122 157.384H89.226C89.19 156.796 88.992 156.322 88.632 155.962C88.272 155.59 87.816 155.404 87.264 155.404Z" fill="white"/>
<path d="M92.915 163V153.766H95.273V155.008H95.327C95.915 154.012 96.809 153.514 98.009 153.514C98.585 153.514 99.095 153.664 99.539 153.964C99.995 154.252 100.337 154.642 100.565 155.134H100.601C101.273 154.054 102.197 153.514 103.373 153.514C104.333 153.514 105.077 153.808 105.605 154.396C106.145 154.972 106.415 155.77 106.415 156.79V163H103.967V157.204C103.967 156.148 103.493 155.62 102.545 155.62C102.029 155.62 101.621 155.806 101.321 156.178C101.033 156.538 100.889 157.024 100.889 157.636V163H98.441V157.204C98.441 156.148 97.967 155.62 97.019 155.62C96.527 155.62 96.125 155.806 95.813 156.178C95.513 156.538 95.363 157.024 95.363 157.636V163H92.915Z" fill="white"/>
<path d="M110.95 163V153.766H113.398V163H110.95ZM110.95 152.326V150.13H113.398V152.326H110.95Z" fill="white"/>
<path d="M114.976 166.024V153.766H117.334V154.918H117.388C118.072 153.982 118.978 153.514 120.106 153.514C121.318 153.514 122.29 153.964 123.022 154.864C123.754 155.764 124.12 156.94 124.12 158.392C124.12 159.88 123.754 161.068 123.022 161.956C122.29 162.832 121.324 163.27 120.124 163.27C118.924 163.27 118.036 162.832 117.46 161.956H117.424V166.024H114.976ZM119.602 161.236C120.226 161.236 120.718 160.99 121.078 160.498C121.45 160.006 121.636 159.328 121.636 158.464C121.636 157.54 121.462 156.814 121.114 156.286C120.766 155.758 120.232 155.494 119.512 155.494C118.78 155.494 118.24 155.77 117.892 156.322C117.544 156.862 117.37 157.576 117.37 158.464C117.37 159.316 117.562 159.994 117.946 160.498C118.33 160.99 118.882 161.236 119.602 161.236Z" fill="white"/>
<path d="M129.003 163.27C127.683 163.27 126.651 162.982 125.907 162.406C125.163 161.818 124.755 161.02 124.683 160.012H126.951C127.107 161.032 127.779 161.542 128.967 161.542C129.507 161.542 129.921 161.446 130.209 161.254C130.509 161.062 130.659 160.804 130.659 160.48C130.659 160.36 130.635 160.252 130.587 160.156C130.551 160.06 130.479 159.976 130.371 159.904C130.275 159.82 130.185 159.754 130.101 159.706C130.029 159.658 129.897 159.61 129.705 159.562C129.513 159.514 129.363 159.478 129.255 159.454C129.159 159.43 128.985 159.4 128.733 159.364C128.493 159.316 128.325 159.28 128.229 159.256C127.725 159.16 127.311 159.064 126.987 158.968C126.675 158.86 126.345 158.71 125.997 158.518C125.649 158.314 125.385 158.044 125.205 157.708C125.037 157.36 124.953 156.946 124.953 156.466C124.953 155.506 125.301 154.774 125.997 154.27C126.705 153.766 127.611 153.514 128.715 153.514C129.903 153.514 130.833 153.79 131.505 154.342C132.189 154.882 132.579 155.626 132.675 156.574H130.461C130.365 155.674 129.771 155.224 128.679 155.224C128.187 155.224 127.797 155.314 127.509 155.494C127.233 155.674 127.095 155.926 127.095 156.25C127.095 156.358 127.113 156.46 127.149 156.556C127.197 156.64 127.269 156.718 127.365 156.79C127.473 156.85 127.575 156.904 127.671 156.952C127.767 156.988 127.905 157.03 128.085 157.078C128.265 157.114 128.421 157.15 128.553 157.186C128.685 157.21 128.865 157.246 129.093 157.294C129.321 157.33 129.501 157.36 129.633 157.384C130.017 157.468 130.329 157.546 130.569 157.618C130.821 157.678 131.109 157.786 131.433 157.942C131.757 158.086 132.009 158.254 132.189 158.446C132.381 158.626 132.543 158.878 132.675 159.202C132.819 159.514 132.891 159.88 132.891 160.3C132.891 161.212 132.531 161.938 131.811 162.478C131.103 163.006 130.167 163.27 129.003 163.27Z" fill="white"/>
<path d="M142.185 163H139.827V161.92H139.773C139.437 162.376 139.065 162.712 138.657 162.928C138.261 163.144 137.751 163.252 137.127 163.252C136.119 163.252 135.333 162.952 134.769 162.352C134.205 161.752 133.923 160.942 133.923 159.922V153.766H136.353V159.508C136.353 160.624 136.863 161.182 137.883 161.182C138.447 161.182 138.897 160.99 139.233 160.606C139.569 160.222 139.737 159.718 139.737 159.094V153.766H142.185V163Z" fill="white"/>
<path d="M143.769 163V153.766H146.127V155.008H146.181C146.769 154.012 147.663 153.514 148.863 153.514C149.439 153.514 149.949 153.664 150.393 153.964C150.849 154.252 151.191 154.642 151.419 155.134H151.455C152.127 154.054 153.051 153.514 154.227 153.514C155.187 153.514 155.931 153.808 156.459 154.396C156.999 154.972 157.269 155.77 157.269 156.79V163H154.821V157.204C154.821 156.148 154.347 155.62 153.399 155.62C152.883 155.62 152.475 155.806 152.175 156.178C151.887 156.538 151.743 157.024 151.743 157.636V163H149.295V157.204C149.295 156.148 148.821 155.62 147.873 155.62C147.381 155.62 146.979 155.806 146.667 156.178C146.367 156.538 146.217 157.024 146.217 157.636V163H143.769Z" fill="white"/>
<path d="M161.84 163V150.13H164.288V163H161.84Z" fill="white"/>
<path d="M173.747 161.884C172.847 162.808 171.689 163.27 170.273 163.27C168.857 163.27 167.699 162.808 166.799 161.884C165.899 160.948 165.449 159.784 165.449 158.392C165.449 157 165.899 155.842 166.799 154.918C167.699 153.982 168.857 153.514 170.273 153.514C171.689 153.514 172.847 153.982 173.747 154.918C174.647 155.842 175.097 157 175.097 158.392C175.097 159.784 174.647 160.948 173.747 161.884ZM170.273 161.398C171.005 161.398 171.575 161.128 171.983 160.588C172.403 160.036 172.613 159.304 172.613 158.392C172.613 157.48 172.403 156.748 171.983 156.196C171.575 155.644 171.005 155.368 170.273 155.368C169.529 155.368 168.953 155.644 168.545 156.196C168.137 156.736 167.933 157.468 167.933 158.392C167.933 159.304 168.137 160.036 168.545 160.588C168.953 161.128 169.529 161.398 170.273 161.398Z" fill="white"/>
<path d="M178.593 153.766V155.242H178.647C178.935 154.702 179.253 154.306 179.601 154.054C179.949 153.79 180.387 153.658 180.915 153.658C181.167 153.658 181.359 153.682 181.491 153.73V155.872H181.437C180.609 155.788 179.943 155.968 179.439 156.412C178.935 156.856 178.683 157.552 178.683 158.5V163H176.235V153.766H178.593Z" fill="white"/>
<path d="M186.62 163.27C185.132 163.27 183.962 162.814 183.11 161.902C182.258 160.978 181.832 159.802 181.832 158.374C181.832 156.994 182.258 155.842 183.11 154.918C183.962 153.982 185.054 153.514 186.386 153.514C187.838 153.514 188.96 154.018 189.752 155.026C190.544 156.034 190.94 157.384 190.94 159.076H184.244C184.34 159.808 184.586 160.378 184.982 160.786C185.378 161.182 185.918 161.38 186.602 161.38C187.502 161.38 188.096 161.002 188.384 160.246H190.796C190.616 161.11 190.16 161.83 189.428 162.406C188.696 162.982 187.76 163.27 186.62 163.27ZM186.422 155.404C185.234 155.404 184.52 156.064 184.28 157.384H188.384C188.348 156.796 188.15 156.322 187.79 155.962C187.43 155.59 186.974 155.404 186.422 155.404Z" fill="white"/>
<path d="M192.073 163V153.766H194.431V155.008H194.485C195.073 154.012 195.967 153.514 197.167 153.514C197.743 153.514 198.253 153.664 198.697 153.964C199.153 154.252 199.495 154.642 199.723 155.134H199.759C200.431 154.054 201.355 153.514 202.531 153.514C203.491 153.514 204.235 153.808 204.763 154.396C205.303 154.972 205.573 155.77 205.573 156.79V163H203.125V157.204C203.125 156.148 202.651 155.62 201.703 155.62C201.187 155.62 200.779 155.806 200.479 156.178C200.191 156.538 200.047 157.024 200.047 157.636V163H197.599V157.204C197.599 156.148 197.125 155.62 196.177 155.62C195.685 155.62 195.283 155.806 194.971 156.178C194.671 156.538 194.521 157.024 194.521 157.636V163H192.073Z" fill="white"/>
<path d="M210.108 163V153.766H212.556V163H210.108ZM210.108 152.326V150.13H212.556V152.326H210.108Z" fill="white"/>
<path d="M214.134 166.024V153.766H216.492V154.918H216.546C217.23 153.982 218.136 153.514 219.264 153.514C220.476 153.514 221.448 153.964 222.18 154.864C222.912 155.764 223.278 156.94 223.278 158.392C223.278 159.88 222.912 161.068 222.18 161.956C221.448 162.832 220.482 163.27 219.282 163.27C218.082 163.27 217.194 162.832 216.618 161.956H216.582V166.024H214.134ZM218.76 161.236C219.384 161.236 219.876 160.99 220.236 160.498C220.608 160.006 220.794 159.328 220.794 158.464C220.794 157.54 220.62 156.814 220.272 156.286C219.924 155.758 219.39 155.494 218.67 155.494C217.938 155.494 217.398 155.77 217.05 156.322C216.702 156.862 216.528 157.576 216.528 158.464C216.528 159.316 216.72 159.994 217.104 160.498C217.488 160.99 218.04 161.236 218.76 161.236Z" fill="white"/>
<path d="M228.161 163.27C226.841 163.27 225.809 162.982 225.065 162.406C224.321 161.818 223.913 161.02 223.841 160.012H226.109C226.265 161.032 226.937 161.542 228.125 161.542C228.665 161.542 229.079 161.446 229.367 161.254C229.667 161.062 229.817 160.804 229.817 160.48C229.817 160.36 229.793 160.252 229.745 160.156C229.709 160.06 229.637 159.976 229.529 159.904C229.433 159.82 229.343 159.754 229.259 159.706C229.187 159.658 229.055 159.61 228.863 159.562C228.671 159.514 228.521 159.478 228.413 159.454C228.317 159.43 228.143 159.4 227.891 159.364C227.651 159.316 227.483 159.28 227.387 159.256C226.883 159.16 226.469 159.064 226.145 158.968C225.833 158.86 225.503 158.71 225.155 158.518C224.807 158.314 224.543 158.044 224.363 157.708C224.195 157.36 224.111 156.946 224.111 156.466C224.111 155.506 224.459 154.774 225.155 154.27C225.863 153.766 226.769 153.514 227.873 153.514C229.061 153.514 229.991 153.79 230.663 154.342C231.347 154.882 231.737 155.626 231.833 156.574H229.619C229.523 155.674 228.929 155.224 227.837 155.224C227.345 155.224 226.955 155.314 226.667 155.494C226.391 155.674 226.253 155.926 226.253 156.25C226.253 156.358 226.271 156.46 226.307 156.556C226.355 156.64 226.427 156.718 226.523 156.79C226.631 156.85 226.733 156.904 226.829 156.952C226.925 156.988 227.063 157.03 227.243 157.078C227.423 157.114 227.579 157.15 227.711 157.186C227.843 157.21 228.023 157.246 228.251 157.294C228.479 157.33 228.659 157.36 228.791 157.384C229.175 157.468 229.487 157.546 229.727 157.618C229.979 157.678 230.267 157.786 230.591 157.942C230.915 158.086 231.167 158.254 231.347 158.446C231.539 158.626 231.701 158.878 231.833 159.202C231.977 159.514 232.049 159.88 232.049 160.3C232.049 161.212 231.689 161.938 230.969 162.478C230.261 163.006 229.325 163.27 228.161 163.27Z" fill="white"/>
<path d="M241.343 163H238.985V161.92H238.931C238.595 162.376 238.223 162.712 237.815 162.928C237.419 163.144 236.909 163.252 236.285 163.252C235.277 163.252 234.491 162.952 233.927 162.352C233.363 161.752 233.081 160.942 233.081 159.922V153.766H235.511V159.508C235.511 160.624 236.021 161.182 237.041 161.182C237.605 161.182 238.055 160.99 238.391 160.606C238.727 160.222 238.895 159.718 238.895 159.094V153.766H241.343V163Z" fill="white"/>
<path d="M242.927 163V153.766H245.285V155.008H245.339C245.927 154.012 246.821 153.514 248.021 153.514C248.597 153.514 249.107 153.664 249.551 153.964C250.007 154.252 250.349 154.642 250.577 155.134H250.613C251.285 154.054 252.209 153.514 253.385 153.514C254.345 153.514 255.089 153.808 255.617 154.396C256.157 154.972 256.427 155.77 256.427 156.79V163H253.979V157.204C253.979 156.148 253.505 155.62 252.557 155.62C252.041 155.62 251.633 155.806 251.333 156.178C251.045 156.538 250.901 157.024 250.901 157.636V163H248.453V157.204C248.453 156.148 247.979 155.62 247.031 155.62C246.539 155.62 246.137 155.806 245.825 156.178C245.525 156.538 245.375 157.024 245.375 157.636V163H242.927Z" fill="white"/>
<path d="M260.998 163V150.13H263.446V163H260.998Z" fill="white"/>
<path d="M272.906 161.884C272.006 162.808 270.848 163.27 269.432 163.27C268.016 163.27 266.858 162.808 265.958 161.884C265.058 160.948 264.608 159.784 264.608 158.392C264.608 157 265.058 155.842 265.958 154.918C266.858 153.982 268.016 153.514 269.432 153.514C270.848 153.514 272.006 153.982 272.906 154.918C273.806 155.842 274.256 157 274.256 158.392C274.256 159.784 273.806 160.948 272.906 161.884ZM269.432 161.398C270.164 161.398 270.734 161.128 271.142 160.588C271.562 160.036 271.772 159.304 271.772 158.392C271.772 157.48 271.562 156.748 271.142 156.196C270.734 155.644 270.164 155.368 269.432 155.368C268.688 155.368 268.112 155.644 267.704 156.196C267.296 156.736 267.092 157.468 267.092 158.392C267.092 159.304 267.296 160.036 267.704 160.588C268.112 161.128 268.688 161.398 269.432 161.398Z" fill="white"/>
<path d="M277.752 153.766V155.242H277.806C278.094 154.702 278.412 154.306 278.76 154.054C279.108 153.79 279.546 153.658 280.074 153.658C280.326 153.658 280.518 153.682 280.65 153.73V155.872H280.596C279.768 155.788 279.102 155.968 278.598 156.412C278.094 156.856 277.842 157.552 277.842 158.5V163H275.394V153.766H277.752Z" fill="white"/>
<path d="M285.778 163.27C284.29 163.27 283.12 162.814 282.268 161.902C281.416 160.978 280.99 159.802 280.99 158.374C280.99 156.994 281.416 155.842 282.268 154.918C283.12 153.982 284.212 153.514 285.544 153.514C286.996 153.514 288.118 154.018 288.91 155.026C289.702 156.034 290.098 157.384 290.098 159.076H283.402C283.498 159.808 283.744 160.378 284.14 160.786C284.536 161.182 285.076 161.38 285.76 161.38C286.66 161.38 287.254 161.002 287.542 160.246H289.954C289.774 161.11 289.318 161.83 288.586 162.406C287.854 162.982 286.918 163.27 285.778 163.27ZM285.58 155.404C284.392 155.404 283.678 156.064 283.438 157.384H287.542C287.506 156.796 287.308 156.322 286.948 155.962C286.588 155.59 286.132 155.404 285.58 155.404Z" fill="white"/>
<path d="M291.231 163V153.766H293.589V155.008H293.643C294.231 154.012 295.125 153.514 296.325 153.514C296.901 153.514 297.411 153.664 297.855 153.964C298.311 154.252 298.653 154.642 298.881 155.134H298.917C299.589 154.054 300.513 153.514 301.689 153.514C302.649 153.514 303.393 153.808 303.921 154.396C304.461 154.972 304.731 155.77 304.731 156.79V163H302.283V157.204C302.283 156.148 301.809 155.62 300.861 155.62C300.345 155.62 299.937 155.806 299.637 156.178C299.349 156.538 299.205 157.024 299.205 157.636V163H296.757V157.204C296.757 156.148 296.283 155.62 295.335 155.62C294.843 155.62 294.441 155.806 294.129 156.178C293.829 156.538 293.679 157.024 293.679 157.636V163H291.231Z" fill="white"/>
<path d="M11.792 185V175.766H14.24V185H11.792ZM11.792 174.326V172.13H14.24V174.326H11.792Z" fill="white"/>
<path d="M15.8174 188.024V175.766H18.1754V176.918H18.2294C18.9134 175.982 19.8194 175.514 20.9474 175.514C22.1594 175.514 23.1314 175.964 23.8634 176.864C24.5954 177.764 24.9614 178.94 24.9614 180.392C24.9614 181.88 24.5954 183.068 23.8634 183.956C23.1314 184.832 22.1654 185.27 20.9654 185.27C19.7654 185.27 18.8774 184.832 18.3014 183.956H18.2654V188.024H15.8174ZM20.4434 183.236C21.0674 183.236 21.5594 182.99 21.9194 182.498C22.2914 182.006 22.4774 181.328 22.4774 180.464C22.4774 179.54 22.3034 178.814 21.9554 178.286C21.6074 177.758 21.0734 177.494 20.3534 177.494C19.6214 177.494 19.0814 177.77 18.7334 178.322C18.3854 178.862 18.2114 179.576 18.2114 180.464C18.2114 181.316 18.4034 181.994 18.7874 182.498C19.1714 182.99 19.7234 183.236 20.4434 183.236Z" fill="white"/>
<path d="M29.8446 185.27C28.5246 185.27 27.4926 184.982 26.7486 184.406C26.0046 183.818 25.5966 183.02 25.5246 182.012H27.7926C27.9486 183.032 28.6206 183.542 29.8086 183.542C30.3486 183.542 30.7626 183.446 31.0506 183.254C31.3506 183.062 31.5006 182.804 31.5006 182.48C31.5006 182.36 31.4766 182.252 31.4286 182.156C31.3926 182.06 31.3206 181.976 31.2126 181.904C31.1166 181.82 31.0266 181.754 30.9426 181.706C30.8706 181.658 30.7386 181.61 30.5466 181.562C30.3546 181.514 30.2046 181.478 30.0966 181.454C30.0006 181.43 29.8266 181.4 29.5746 181.364C29.3346 181.316 29.1666 181.28 29.0706 181.256C28.5666 181.16 28.1526 181.064 27.8286 180.968C27.5166 180.86 27.1866 180.71 26.8386 180.518C26.4906 180.314 26.2266 180.044 26.0466 179.708C25.8786 179.36 25.7946 178.946 25.7946 178.466C25.7946 177.506 26.1426 176.774 26.8386 176.27C27.5466 175.766 28.4526 175.514 29.5566 175.514C30.7446 175.514 31.6746 175.79 32.3466 176.342C33.0306 176.882 33.4206 177.626 33.5166 178.574H31.3026C31.2066 177.674 30.6126 177.224 29.5206 177.224C29.0286 177.224 28.6386 177.314 28.3506 177.494C28.0746 177.674 27.9366 177.926 27.9366 178.25C27.9366 178.358 27.9546 178.46 27.9906 178.556C28.0386 178.64 28.1106 178.718 28.2066 178.79C28.3146 178.85 28.4166 178.904 28.5126 178.952C28.6086 178.988 28.7466 179.03 28.9266 179.078C29.1066 179.114 29.2626 179.15 29.3946 179.186C29.5266 179.21 29.7066 179.246 29.9346 179.294C30.1626 179.33 30.3426 179.36 30.4746 179.384C30.8586 179.468 31.1706 179.546 31.4106 179.618C31.6626 179.678 31.9506 179.786 32.2746 179.942C32.5986 180.086 32.8506 180.254 33.0306 180.446C33.2226 180.626 33.3846 180.878 33.5166 181.202C33.6606 181.514 33.7326 181.88 33.7326 182.3C33.7326 183.212 33.3726 183.938 32.6526 184.478C31.9446 185.006 31.0086 185.27 29.8446 185.27Z" fill="white"/>
<path d="M43.0269 185H40.6689V183.92H40.6149C40.2789 184.376 39.9069 184.712 39.4989 184.928C39.1029 185.144 38.5929 185.252 37.9689 185.252C36.9609 185.252 36.1749 184.952 35.6109 184.352C35.0469 183.752 34.7649 182.942 34.7649 181.922V175.766H37.1949V181.508C37.1949 182.624 37.7049 183.182 38.7249 183.182C39.2889 183.182 39.7389 182.99 40.0749 182.606C40.4109 182.222 40.5789 181.718 40.5789 181.094V175.766H43.0269V185Z" fill="white"/>
<path d="M44.6104 185V175.766H46.9684V177.008H47.0224C47.6104 176.012 48.5044 175.514 49.7044 175.514C50.2804 175.514 50.7904 175.664 51.2344 175.964C51.6904 176.252 52.0324 176.642 52.2604 177.134H52.2964C52.9684 176.054 53.8924 175.514 55.0684 175.514C56.0284 175.514 56.7724 175.808 57.3004 176.396C57.8404 176.972 58.1104 177.77 58.1104 178.79V185H55.6624V179.204C55.6624 178.148 55.1884 177.62 54.2404 177.62C53.7244 177.62 53.3164 177.806 53.0164 178.178C52.7284 178.538 52.5844 179.024 52.5844 179.636V185H50.1364V179.204C50.1364 178.148 49.6624 177.62 48.7144 177.62C48.2224 177.62 47.8204 177.806 47.5084 178.178C47.2084 178.538 47.0584 179.024 47.0584 179.636V185H44.6104Z" fill="white"/>
<rect x="2" y="69" width="45" height="21" fill="#077AFF"/>
<path d="M13.5713 76.884V75.42H20.4713V76.884H17.8913V84H16.1513V76.884H13.5713Z" fill="white"/>
<path d="M22.7284 84.18C21.7364 84.18 20.9564 83.876 20.3884 83.268C19.8204 82.652 19.5364 81.868 19.5364 80.916C19.5364 79.996 19.8204 79.228 20.3884 78.612C20.9564 77.988 21.6844 77.676 22.5724 77.676C23.5404 77.676 24.2884 78.012 24.8164 78.684C25.3444 79.356 25.6084 80.256 25.6084 81.384H21.1444C21.2084 81.872 21.3724 82.252 21.6364 82.524C21.9004 82.788 22.2604 82.92 22.7164 82.92C23.3164 82.92 23.7124 82.668 23.9044 82.164H25.5124C25.3924 82.74 25.0884 83.22 24.6004 83.604C24.1124 83.988 23.4884 84.18 22.7284 84.18ZM22.5964 78.936C21.8044 78.936 21.3284 79.376 21.1684 80.256H23.9044C23.8804 79.864 23.7484 79.548 23.5084 79.308C23.2684 79.06 22.9644 78.936 22.5964 78.936Z" fill="white"/>
<path d="M25.5685 84L27.8125 80.736L25.8085 77.844H27.6685L28.7605 79.608H28.7845L29.8165 77.844H31.5085L29.6005 80.724L31.7965 84H29.8525L28.7125 81.96H28.6885L27.3565 84H25.5685Z" fill="white"/>
<path d="M31.828 78.924V77.844H32.68V75.924H34.276V77.844H35.332V78.924H34.276V82.188C34.276 82.596 34.48 82.8 34.888 82.8L35.368 82.788V83.988C35.12 84.004 34.78 84.012 34.348 84.012C33.876 84.012 33.48 83.9 33.16 83.676C32.84 83.444 32.68 83.064 32.68 82.536V78.924H31.828Z" fill="white"/>
<g filter="url(#filter0_d_97_451)">
<rect y="17" width="480" height="42" rx="12" fill="#202020"/>
<rect x="0.5" y="17.5" width="479" height="41" rx="11.5" stroke="#282828"/>
</g>
<rect x="238.5" y="24.5" width="41" height="27" rx="4.5" fill="#2F2F2F" stroke="#282828"/>
<path d="M94.4992 36.2524C94.4621 36.2867 94.4255 36.3219 94.3897 36.3578L92.8962 37.8504C92.1992 38.5472 91.8077 39.4923 91.8077 40.4777C91.8077 41.4632 92.1992 42.4083 92.8962 43.1051C93.5931 43.8019 94.5384 44.1934 95.524 44.1934C96.5097 44.1934 97.4549 43.8019 98.1519 43.1051L98.5197 42.7373C98.589 42.6683 98.6439 42.5863 98.6814 42.496C98.7189 42.4057 98.7382 42.3089 98.7382 42.2111C98.7382 42.1134 98.7189 42.0166 98.6814 41.9263C98.6439 41.836 98.589 41.7539 98.5197 41.6849C98.4507 41.6159 98.3687 41.5611 98.2785 41.5237C98.1883 41.4863 98.0916 41.467 97.994 41.467C97.8964 41.467 97.7997 41.4863 97.7095 41.5237C97.6193 41.5611 97.5373 41.6159 97.4683 41.6849L97.1005 42.0527C96.6824 42.4707 96.1153 42.7055 95.524 42.7055C94.9327 42.7055 94.3657 42.4707 93.9476 42.0527C93.5295 41.6346 93.2946 41.0677 93.2946 40.4765C93.2946 39.8853 93.5295 39.3184 93.9476 38.9003L95.4398 37.4096C95.4761 37.3734 95.5134 37.3385 95.5518 37.305L94.4992 36.2524Z" fill="white" fill-opacity="0.25"/>
<path d="M96.7767 38.5299C96.7456 38.5402 96.7151 38.5526 96.6854 38.567C96.5973 38.6097 96.5185 38.6693 96.4534 38.7425C96.3884 38.8157 96.3384 38.9009 96.3063 38.9934C96.2742 39.0859 96.2606 39.1838 96.2664 39.2815C96.2721 39.3792 96.2971 39.4749 96.3398 39.563C96.3825 39.6511 96.4422 39.7299 96.5154 39.7949C97.1954 40.3993 98.0726 40.7323 98.9799 40.7331L96.7767 38.5299Z" fill="white" fill-opacity="0.25"/>
<path d="M101.503 39.749L100.451 38.6972C100.49 38.6636 100.527 38.6285 100.564 38.5921L102.057 37.0989C102.475 36.6808 102.71 36.1139 102.71 35.5227C102.71 34.9315 102.475 34.3646 102.057 33.9465C101.638 33.5285 101.071 33.2937 100.48 33.2937C99.8888 33.2937 99.3217 33.5285 98.9036 33.9465L98.5358 34.3143C98.3962 34.4538 98.2069 34.5322 98.0095 34.5322C97.8121 34.5322 97.6228 34.4538 97.4832 34.3143C97.3436 34.1747 97.2652 33.9854 97.2652 33.7881C97.2652 33.5907 97.3436 33.4014 97.4832 33.2619L97.851 32.8941C98.5485 32.1984 99.4935 31.8077 100.479 31.8077C101.464 31.8077 102.409 32.1984 103.107 32.8941V32.8954C103.803 33.5931 104.194 34.5385 104.193 35.524C104.193 36.5096 103.802 37.4547 103.105 38.1519L101.611 39.6445C101.576 39.6801 101.539 39.7149 101.503 39.749Z" fill="white" fill-opacity="0.25"/>
<path d="M99.2237 37.4701L97.0202 35.2666C97.9284 35.2667 98.8066 35.5995 99.4875 36.2043C99.5607 36.2693 99.6203 36.3481 99.6631 36.4362C99.7058 36.5243 99.7307 36.62 99.7365 36.7177C99.7422 36.8154 99.7287 36.9133 99.6966 37.0058C99.6645 37.0983 99.6145 37.1835 99.5494 37.2567C99.4844 37.3299 99.4055 37.3895 99.3174 37.4322C99.287 37.447 99.2557 37.4596 99.2237 37.4701Z" fill="white" fill-opacity="0.25"/>
<path d="M91.1884 31.1884C91.4396 30.9372 91.8468 30.9372 92.098 31.1884L104.812 43.902C105.063 44.1532 105.063 44.5604 104.812 44.8116C104.56 45.0628 104.153 45.0628 103.902 44.8116L91.1884 32.098C90.9372 31.8468 90.9372 31.4396 91.1884 31.1884Z" fill="white" fill-opacity="0.25"/>
<rect x="374.5" y="24.5" width="48" height="27" rx="4.5" fill="#2F2F2F" stroke="#282828"/>
<path d="M388.637 43V33.6689H387.379V37.6201H382.758V33.6689H381.5V43H382.758V38.7275H387.379V43H388.637Z" fill="#3581DA"/>
<path d="M393.966 43V33.6689H392.722L390.5 35.3164V36.5811L392.66 35.0156H392.722V43H393.966Z" fill="#3581DA"/>
<path fill-rule="evenodd" clip-rule="evenodd" d="M267.084 36.0837C267.195 35.9721 267.376 35.9721 267.488 36.0837L270.714 39.3102L273.941 36.0837C274.052 35.9721 274.233 35.9721 274.345 36.0837C274.456 36.1953 274.456 36.3762 274.345 36.4877L270.916 39.9163C270.805 40.0279 270.624 40.0279 270.512 39.9163L267.084 36.4877C266.972 36.3762 266.972 36.1953 267.084 36.0837Z" fill="white" fill-opacity="0.5"/>
<path fill-rule="evenodd" clip-rule="evenodd" d="M21 33.7167C23.7614 33.7167 26 35.9553 26 38.7167C26 41.4781 23.7614 43.7167 21 43.7167C18.2386 43.7167 16 41.4781 16 38.7167C16 37.9713 16.1628 37.2652 16.4543 36.6311C16.5696 36.3801 16.4597 36.0833 16.2088 35.9679C15.9579 35.8526 15.661 35.9625 15.5457 36.2134C15.1952 36.9759 15 37.8242 15 38.7167C15 42.0304 17.6863 44.7167 21 44.7167C24.3137 44.7167 27 42.0304 27 38.7167C27 35.403 24.3137 32.7167 21 32.7167V33.7167Z" fill="white"/>
<path d="M21 35.183V31.2505C21 31.0385 20.7528 30.9227 20.59 31.0584L18.2305 33.0247C18.1105 33.1246 18.1105 33.3088 18.2305 33.4088L20.59 35.375C20.7528 35.5107 21 35.3949 21 35.183Z" fill="white"/>
<rect x="129.5" y="24.5" width="27" height="27" rx="4.5" fill="#2F2F2F" stroke="#282828"/>
<path d="M143.211 43C145.316 43 146.622 41.9131 146.622 40.1768C146.622 38.8711 145.638 37.8936 144.298 37.791V37.7363C145.344 37.5791 146.15 36.6768 146.15 35.5967C146.15 34.0859 144.988 33.1357 143.136 33.1357H138.843V43H143.211ZM140.907 34.6738H142.603C143.566 34.6738 144.12 35.125 144.12 35.918C144.12 36.752 143.491 37.2373 142.391 37.2373H140.907V34.6738ZM140.907 41.4619V38.5977H142.637C143.854 38.5977 144.517 39.0898 144.517 40.0127C144.517 40.9561 143.874 41.4619 142.685 41.4619H140.907Z" fill="#3581DA"/>
<path d="M174.991 41.6738L176.529 34.4551C176.652 33.8604 176.775 33.7441 177.876 33.6484L177.985 33.1289H174.212L174.103 33.6484C175.162 33.7441 175.23 33.8604 175.107 34.4551L173.569 41.6738C173.446 42.2686 173.323 42.3848 172.223 42.4805L172.113 43H175.887L175.996 42.4805C174.937 42.3848 174.868 42.2686 174.991 41.6738Z" fill="white"/>
<path d="M204.313 33.1357H203.083V39.541C203.083 41.6465 204.553 43.1641 207 43.1641C209.447 43.1641 210.917 41.6465 210.917 39.541V33.1357H209.687V39.459C209.687 40.9492 208.709 42.0293 207 42.0293C205.291 42.0293 204.313 40.9492 204.313 39.459V33.1357Z" fill="white"/>
<path d="M211.5 45H202.5V44H211.5V45Z" fill="white"/>
<rect x="43" y="18" width="1" height="40" fill="#282828"/>
<rect x="120" y="18" width="1" height="40" fill="#282828"/>
<rect x="229" y="18" width="1" height="40" fill="#282828"/>
<rect x="288" y="18" width="1" height="40" fill="#282828"/>
<rect x="365" y="18" width="1" height="40" fill="#282828"/>
<path d="M66.503 41.5697C66.5701 41.6366 66.6234 41.716 66.6597 41.8035C66.696 41.891 66.7147 41.9848 66.7147 42.0795C66.7147 42.1742 66.696 42.268 66.6597 42.3555C66.6234 42.443 66.5701 42.5225 66.503 42.5893L66.1467 42.9456C65.4714 43.6207 64.5556 44 63.6006 44C62.6457 44 61.7298 43.6207 61.0546 42.9456C60.3794 42.2705 60 41.3548 60 40.4001C60 39.4453 60.3794 38.5297 61.0546 37.8546L62.5016 36.4085C63.1504 35.7582 64.0233 35.3806 64.9416 35.3529C65.8598 35.3253 66.7539 35.6497 67.4407 36.2597C67.5116 36.3227 67.5694 36.3991 67.6108 36.4844C67.6521 36.5698 67.6763 36.6624 67.6819 36.7571C67.6875 36.8518 67.6743 36.9467 67.6432 37.0363C67.6121 37.1259 67.5637 37.2085 67.5007 37.2794C67.4376 37.3503 67.3613 37.408 67.2759 37.4494C67.1905 37.4908 67.0979 37.515 67.0032 37.5205C66.9085 37.5261 66.8136 37.513 66.724 37.4819C66.6343 37.4508 66.5517 37.4024 66.4808 37.3394C66.069 36.9737 65.533 36.7791 64.9824 36.7955C64.4319 36.8119 63.9084 37.038 63.519 37.4275L62.0733 38.8718C61.6682 39.2768 61.4406 39.8261 61.4406 40.3989C61.4406 40.9717 61.6682 41.521 62.0733 41.926C62.4783 42.331 63.0278 42.5585 63.6006 42.5585C64.1735 42.5585 64.7229 42.331 65.128 41.926L65.4844 41.5697C65.5512 41.5028 65.6306 41.4497 65.718 41.4135C65.8054 41.3772 65.8991 41.3586 65.9937 41.3586C66.0883 41.3586 66.182 41.3772 66.2694 41.4135C66.3567 41.4497 66.4361 41.5028 66.503 41.5697ZM70.9472 33.0526C70.2714 32.3786 69.3557 32 68.4011 32C67.4465 32 66.5309 32.3786 65.8551 33.0526L65.4988 33.4089C65.3635 33.5441 65.2875 33.7275 65.2875 33.9187C65.2875 34.11 65.3635 34.2933 65.4988 34.4286C65.634 34.5638 65.8174 34.6397 66.0087 34.6397C66.1999 34.6397 66.3834 34.5638 66.5186 34.4286L66.875 34.0723C67.28 33.6673 67.8295 33.4397 68.4023 33.4397C68.9752 33.4397 69.5246 33.6673 69.9297 34.0723C70.3348 34.4773 70.5624 35.0266 70.5624 35.5994C70.5624 36.1721 70.3348 36.7214 69.9297 37.1264L68.4833 38.5731C68.0936 38.9625 67.5699 39.1882 67.0192 39.2042C66.4685 39.2201 65.9325 39.0251 65.5209 38.6589C65.45 38.5959 65.3674 38.5474 65.2778 38.5164C65.1882 38.4853 65.0933 38.4721 64.9986 38.4777C64.9039 38.4833 64.8112 38.5074 64.7259 38.5488C64.6405 38.5902 64.5641 38.648 64.5011 38.7189C64.4381 38.7898 64.3896 38.8724 64.3585 38.962C64.3274 39.0516 64.3143 39.1464 64.3199 39.2411C64.3254 39.3358 64.3496 39.4285 64.391 39.5138C64.4324 39.5992 64.4902 39.6755 64.5611 39.7385C65.2474 40.3484 66.1409 40.6731 67.0587 40.646C67.9765 40.6189 68.8493 40.2421 69.4984 39.5928L70.9454 38.1467C71.6204 37.4712 71.9997 36.5555 72 35.6006C72.0003 34.6458 71.6217 33.7298 70.9472 33.0538V33.0526Z" fill="white"/>
<path fill-rule="evenodd" clip-rule="evenodd" d="M246 42.5C246 42.2239 246.224 42 246.5 42H253.5C253.776 42 254 42.2239 254 42.5C254 42.7761 253.776 43 253.5 43H246.5C246.224 43 246 42.7761 246 42.5Z" fill="white"/>
<path fill-rule="evenodd" clip-rule="evenodd" d="M246 39.5C246 39.2239 246.224 39 246.5 39H257.5C257.776 39 258 39.2239 258 39.5C258 39.7761 257.776 40 257.5 40H246.5C246.224 40 246 39.7761 246 39.5Z" fill="white"/>
<path fill-rule="evenodd" clip-rule="evenodd" d="M246 36.5C246 36.2239 246.224 36 246.5 36H253.5C253.776 36 254 36.2239 254 36.5C254 36.7761 253.776 37 253.5 37H246.5C246.224 37 246 36.7761 246 36.5Z" fill="white"/>
<path fill-rule="evenodd" clip-rule="evenodd" d="M246 33.5C246 33.2239 246.224 33 246.5 33H257.5C257.776 33 258 33.2239 258 33.5C258 33.7761 257.776 34 257.5 34H246.5C246.224 34 246 33.7761 246 33.5Z" fill="white"/>
<path fill-rule="evenodd" clip-rule="evenodd" d="M308 41.5C308 41.2239 308.224 41 308.5 41H317.5C317.776 41 318 41.2239 318 41.5C318 41.7761 317.776 42 317.5 42H308.5C308.224 42 308 41.7761 308 41.5Z" fill="white"/>
<path fill-rule="evenodd" clip-rule="evenodd" d="M308 37.5C308 37.2239 308.224 37 308.5 37H317.5C317.776 37 318 37.2239 318 37.5C318 37.7761 317.776 38 317.5 38H308.5C308.224 38 308 37.7761 308 37.5Z" fill="white"/>
<path fill-rule="evenodd" clip-rule="evenodd" d="M308 33.5C308 33.2239 308.224 33 308.5 33H317.5C317.776 33 318 33.2239 318 33.5C318 33.7761 317.776 34 317.5 34H308.5C308.224 34 308 33.7761 308 33.5Z" fill="white"/>
<path fill-rule="evenodd" clip-rule="evenodd" d="M305 34.5C305.552 34.5 306 34.0523 306 33.5C306 32.9477 305.552 32.5 305 32.5C304.448 32.5 304 32.9477 304 33.5C304 34.0523 304.448 34.5 305 34.5Z" fill="white"/>
<path fill-rule="evenodd" clip-rule="evenodd" d="M305 38.5C305.552 38.5 306 38.0523 306 37.5C306 36.9477 305.552 36.5 305 36.5C304.448 36.5 304 36.9477 304 37.5C304 38.0523 304.448 38.5 305 38.5Z" fill="white"/>
<path fill-rule="evenodd" clip-rule="evenodd" d="M305 42.5C305.552 42.5 306 42.0523 306 41.5C306 40.9477 305.552 40.5 305 40.5C304.448 40.5 304 40.9477 304 41.5C304 42.0523 304.448 42.5 305 42.5Z" fill="white"/>
<path fill-rule="evenodd" clip-rule="evenodd" d="M340 41.5C340 41.2239 340.224 41 340.5 41H349.5C349.776 41 350 41.2239 350 41.5C350 41.7761 349.776 42 349.5 42H340.5C340.224 42 340 41.7761 340 41.5Z" fill="white"/>
<path fill-rule="evenodd" clip-rule="evenodd" d="M340 37.5C340 37.2239 340.224 37 340.5 37H349.5C349.776 37 350 37.2239 350 37.5C350 37.7761 349.776 38 349.5 38H340.5C340.224 38 340 37.7761 340 37.5Z" fill="white"/>
<path fill-rule="evenodd" clip-rule="evenodd" d="M340 33.5C340 33.2239 340.224 33 340.5 33H349.5C349.776 33 350 33.2239 350 33.5C350 33.7761 349.776 34 349.5 34H340.5C340.224 34 340 33.7761 340 33.5Z" fill="white"/>
<path d="M336.713 41.8652V41.3906H337C337.217 41.3906 337.363 41.2539 337.363 41.0742C337.363 40.8887 337.205 40.7637 337.002 40.7637C336.779 40.7637 336.635 40.916 336.629 41.0742H336.039C336.055 40.6074 336.412 40.2871 337.025 40.2871C337.613 40.2852 337.979 40.5781 337.982 40.9902C337.986 41.3691 337.68 41.5547 337.49 41.584V41.6172C337.744 41.6406 338.055 41.832 338.059 42.248C338.062 42.7812 337.557 43.0488 337.008 43.0488C336.352 43.0488 336.008 42.6777 336 42.2539H336.582C336.59 42.4316 336.768 42.5605 337.004 42.5625C337.258 42.5625 337.428 42.418 337.426 42.2129C337.424 42.0176 337.271 41.8652 337.012 41.8652H336.713Z" fill="white"/>
<path d="M336.709 37.166H336.105V37.1309C336.105 36.7227 336.4 36.2871 337.062 36.2871C337.646 36.2871 338.023 36.6133 338.023 37.043C338.023 37.4316 337.766 37.6602 337.547 37.8906L337.01 38.4629V38.4922H338.064V39H336.143V38.6055L337.1 37.6152C337.238 37.4727 337.393 37.3105 337.393 37.1074C337.393 36.9277 337.246 36.7871 337.051 36.7871C336.836 36.7871 336.709 36.9473 336.709 37.125C336.709 37.1387 336.709 37.1562 336.709 37.166Z" fill="white"/>
<path d="M337.564 35H336.929V32.9238H336.898L336.3 33.3438V32.7773L336.929 32.334H337.564V35Z" fill="white"/>
</g>
<defs>
<filter id="filter0_d_97_451" x="-47.587" y="-30.587" width="575.174" height="137.174" filterUnits="userSpaceOnUse" color-interpolation-filters="sRGB">
<feFlood flood-opacity="0" result="BackgroundImageFix"/>
<feColorMatrix in="SourceAlpha" type="matrix" values="0 0 0 0 0 0 0 0 0 0 0 0 0 0 0 0 0 0 127 0" result="hardAlpha"/>
<feOffset/>
<feGaussianBlur stdDeviation="23.7935"/>
<feComposite in2="hardAlpha" operator="out"/>
<feColorMatrix type="matrix" values="0 0 0 0 0.0937012 0 0 0 0 0.0937012 0 0 0 0 0.0937012 0 0 0 0.25 0"/>
<feBlend mode="normal" in2="BackgroundImageFix" result="effect1_dropShadow_97_451"/>
<feBlend mode="normal" in="SourceGraphic" in2="effect1_dropShadow_97_451" result="shape"/>
</filter>
<clipPath id="clip0_97_451">
<rect width="390" height="222" fill="white"/>
</clipPath>
</defs>
</svg>
