<svg width="119" height="15" viewBox="0 0 119 15" fill="none" xmlns="http://www.w3.org/2000/svg">
<path d="M115.436 3.45435e-07C116.646 3.98327e-07 117.251 4.32134e-07 117.713 0.235488C118.119 0.442628 118.45 0.773152 118.657 1.17969C118.892 1.64186 118.892 2.24687 118.892 3.4569V11.3584C118.892 12.5684 118.892 13.1734 118.657 13.6356C118.45 14.0421 118.119 14.3727 117.713 14.5798C117.251 14.8153 116.646 14.8153 115.436 14.8153H107.534C106.324 14.8153 105.719 14.8153 105.257 14.5798C104.85 14.3727 104.52 14.0421 104.313 13.6356C104.077 13.1734 104.077 12.5684 104.077 11.3584V3.4569C104.077 2.24687 104.077 1.64186 104.313 1.17969C104.52 0.773152 104.85 0.442628 105.257 0.235487C105.719 -8.9407e-08 106.324 -5.2842e-08 107.534 0L115.436 3.45435e-07Z" fill="#FF3B30"/>
<path d="M94.6201 3.45435e-07C95.8301 3.98327e-07 96.4351 4.32134e-07 96.8973 0.235488C97.3039 0.442628 97.6344 0.773152 97.8415 1.17969C98.077 1.64186 98.077 2.24687 98.077 3.4569V11.3584C98.077 12.5684 98.077 13.1734 97.8415 13.6356C97.6344 14.0421 97.3039 14.3727 96.8973 14.5798C96.4351 14.8153 95.8301 14.8153 94.6201 14.8153H86.7186C85.5086 14.8153 84.9036 14.8153 84.4414 14.5798C84.0349 14.3727 83.7043 14.0421 83.4972 13.6356C83.2617 13.1734 83.2617 12.5684 83.2617 11.3584V3.4569C83.2617 2.24687 83.2617 1.64186 83.4972 1.17969C83.7043 0.773152 84.0349 0.442628 84.4414 0.235487C84.9036 -8.9407e-08 85.5086 -5.2842e-08 86.7186 0L94.6201 3.45435e-07Z" fill="#FF9500"/>
<path d="M73.8047 3.45435e-07C75.0147 3.98327e-07 75.6197 4.32134e-07 76.0819 0.235488C76.4884 0.442628 76.819 0.773152 77.0261 1.17969C77.2616 1.64186 77.2616 2.24687 77.2616 3.4569V11.3584C77.2616 12.5684 77.2616 13.1734 77.0261 13.6356C76.819 14.0421 76.4884 14.3727 76.0819 14.5798C75.6197 14.8153 75.0147 14.8153 73.8047 14.8153H65.9032C64.6932 14.8153 64.0881 14.8153 63.626 14.5798C63.2194 14.3727 62.8889 14.0421 62.6818 13.6356C62.4463 13.1734 62.4463 12.5684 62.4463 11.3584V3.4569C62.4463 2.24687 62.4463 1.64186 62.6818 1.17969C62.8889 0.773152 63.2194 0.442628 63.626 0.235487C64.0881 -8.9407e-08 64.6932 -5.2842e-08 65.9032 0L73.8047 3.45435e-07Z" fill="#FFCC00"/>
<path d="M52.9892 3.45435e-07C54.1993 3.98327e-07 54.8043 4.32134e-07 55.2665 0.235488C55.673 0.442628 56.0035 0.773152 56.2107 1.17969C56.4462 1.64186 56.4461 2.24687 56.4461 3.4569V11.3584C56.4461 12.5684 56.4462 13.1734 56.2107 13.6356C56.0035 14.0421 55.673 14.3727 55.2665 14.5798C54.8043 14.8153 54.1993 14.8153 52.9892 14.8153H45.0878C43.8777 14.8153 43.2727 14.8153 42.8105 14.5798C42.404 14.3727 42.0735 14.0421 41.8663 13.6356C41.6309 13.1734 41.6309 12.5684 41.6309 11.3584V3.4569C41.6309 2.24687 41.6309 1.64186 41.8663 1.17969C42.0735 0.773152 42.404 0.442628 42.8105 0.235487C43.2727 -8.9407e-08 43.8777 -5.2842e-08 45.0878 0L52.9892 3.45435e-07Z" fill="#34C759"/>
<path d="M32.1738 3.45435e-07C33.3838 3.98327e-07 33.9889 4.32134e-07 34.451 0.235488C34.8576 0.442628 35.1881 0.773152 35.3952 1.17969C35.6307 1.64186 35.6307 2.24687 35.6307 3.4569V11.3584C35.6307 12.5684 35.6307 13.1734 35.3952 13.6356C35.1881 14.0421 34.8576 14.3727 34.451 14.5798C33.9889 14.8153 33.3838 14.8153 32.1738 14.8153H24.2723C23.0623 14.8153 22.4573 14.8153 21.9951 14.5798C21.5886 14.3727 21.2581 14.0421 21.0509 13.6356C20.8154 13.1734 20.8154 12.5684 20.8154 11.3584V3.4569C20.8154 2.24687 20.8154 1.64186 21.0509 1.17969C21.2581 0.773152 21.5886 0.442628 21.9951 0.235487C22.4573 -8.9407e-08 23.0623 -5.2842e-08 24.2723 0L32.1738 3.45435e-07Z" fill="#5AC8FA"/>
<path d="M11.3584 3.45435e-07C12.5684 3.98327e-07 13.1734 4.32134e-07 13.6356 0.235488C14.0421 0.442628 14.3727 0.773152 14.5798 1.17969C14.8153 1.64186 14.8153 2.24687 14.8153 3.4569V11.3584C14.8153 12.5684 14.8153 13.1734 14.5798 13.6356C14.3727 14.0421 14.0421 14.3727 13.6356 14.5798C13.1734 14.8153 12.5684 14.8153 11.3584 14.8153H3.4569C2.24687 14.8153 1.64186 14.8153 1.17969 14.5798C0.773151 14.3727 0.442628 14.0421 0.235487 13.6356C-8.9407e-08 13.1734 -5.2842e-08 12.5684 0 11.3584L3.45435e-07 3.4569C3.98327e-07 2.24687 4.32134e-07 1.64186 0.235487 1.17969C0.442628 0.773152 0.773152 0.442628 1.17969 0.235487C1.64186 -8.9407e-08 2.24687 -5.2842e-08 3.4569 0L11.3584 3.45435e-07Z" fill="#007AFF"/>
</svg>
