<svg width="260" height="469" viewBox="0 0 260 469" fill="none" xmlns="http://www.w3.org/2000/svg">
<g clip-path="url(#clip0_97_851)">
<path d="M7.32394 -0.0845947C3.27904 -0.0845947 0 3.19448 0 7.23938V966.676C0 970.721 3.27905 974 7.32395 974H252.676C256.721 974 260 970.721 260 966.676V57.6389V7.23935C260 3.19445 256.721 -0.0845947 252.676 -0.0845947H7.32394Z" fill="#202020"/>
<path d="M10.9858 189.423C10.9858 188.411 11.8056 187.592 12.8168 187.592H46.6901C47.7013 187.592 48.521 188.411 48.521 189.423V190.338H10.9858V189.423Z" fill="#007AFF"/>
<path d="M243.063 137.436C243.46 137.436 243.782 137.758 243.782 138.155V142.471H248.098C248.496 142.471 248.818 142.793 248.818 143.19C248.818 143.587 248.496 143.91 248.098 143.91H243.782V148.225C243.782 148.623 243.46 148.945 243.063 148.945C242.666 148.945 242.344 148.623 242.344 148.225V143.91H238.028C237.631 143.91 237.309 143.587 237.309 143.19C237.309 142.793 237.631 142.471 238.028 142.471H242.344V138.155C242.344 137.758 242.666 137.436 243.063 137.436Z" fill="white"/>
<g clip-path="url(#clip1_97_851)">
<path d="M102.609 34.2404C103.555 33.3789 104.924 33.1675 106.087 33.7066L106.108 33.7172C106.737 34.0079 107.382 34.1506 108.042 34.1506C108.703 34.1506 109.2 34.029 109.591 33.7912C109.982 33.5534 110.177 33.2204 110.177 32.8028C110.177 32.3853 109.998 32.0946 109.638 31.8726C109.279 31.6507 108.745 31.434 108.047 31.212C107.345 31.0111 106.731 30.7892 106.203 30.5355C105.674 30.287 105.225 29.9964 104.866 29.6634C104.506 29.3357 104.237 28.9552 104.057 28.5218C103.877 28.0937 103.788 27.5863 103.788 27.0049C103.788 26.1857 103.973 25.4563 104.342 24.8115C104.712 24.172 105.204 23.6276 105.812 23.1731C106.42 22.7185 107.138 22.3803 107.958 22.153C108.777 21.9204 109.638 21.8094 110.542 21.8094C111.705 21.8094 112.788 22.005 113.798 22.3961C114.807 22.7872 115.616 23.3633 116.213 24.1244L114.612 25.4722C113.888 26.08 112.878 26.1381 112.043 25.6941H112.027C111.536 25.4246 110.949 25.2977 110.273 25.2977C109.781 25.2977 109.332 25.3876 108.92 25.5673C108.539 25.7311 108.248 26.0958 108.206 26.5081C108.169 26.9045 108.328 27.2057 108.682 27.4171C109.004 27.6074 109.49 27.7924 110.151 27.9721C111.552 28.3526 112.656 28.8759 113.47 29.5471C114.279 30.2183 114.686 31.1961 114.686 32.4752C114.686 33.3737 114.49 34.1612 114.099 34.8324C113.708 35.5036 113.201 36.0533 112.566 36.4814C111.937 36.9095 111.213 37.2319 110.405 37.4433C109.596 37.6547 108.766 37.7604 107.926 37.7604C106.546 37.7604 105.315 37.5279 104.232 37.0681C103.148 36.6083 102.271 35.9793 101.589 35.1759L102.614 34.2457L102.609 34.2404Z" fill="white"/>
<path d="M129.12 37.7233C127.106 37.7233 125.573 35.9051 125.922 33.9178L126.673 29.6156C126.773 29.1558 126.821 28.733 126.821 28.3524C126.821 27.7922 126.673 27.3165 126.387 26.9254C126.097 26.5343 125.584 26.3387 124.839 26.3387C123.956 26.3387 123.253 26.6664 122.725 27.3165C122.196 27.9666 121.847 28.7541 121.689 29.6738L120.727 35.0436C120.452 36.5922 119.104 37.718 117.529 37.718H115.441L118.961 17.7079C119.236 16.154 120.584 15.0229 122.159 15.0229H124.268L122.555 24.7214H122.614C123.036 24.1031 123.623 23.5534 124.384 23.083C125.145 22.6126 126.033 22.3801 127.058 22.3801C127.899 22.3801 128.618 22.5016 129.22 22.7395C129.823 22.9773 130.314 23.3103 130.705 23.7278C131.096 24.1506 131.382 24.6316 131.562 25.1866C131.741 25.7362 131.831 26.3123 131.831 26.9148C131.831 27.195 131.821 27.4698 131.799 27.7393C131.778 28.0089 131.741 28.2732 131.678 28.5374L130.055 37.7233H129.114H129.12Z" fill="white"/>
<path d="M79.5168 37.8187C78.4386 37.8187 77.4291 37.6707 76.4989 37.3694C75.5687 37.0681 74.7654 36.6347 74.0994 36.0639C73.4282 35.4931 72.8997 34.8008 72.5085 33.9921C72.1174 33.1835 71.9219 32.2638 71.9219 31.2438C71.9219 30.0017 72.1333 28.8231 72.5508 27.7026C72.9736 26.5821 73.5762 25.5991 74.369 24.7587C75.1618 23.9184 76.1131 23.2471 77.2336 22.745C78.3541 22.2429 79.6225 21.9945 81.0443 21.9945C82.1436 21.9945 83.1637 22.1425 84.1045 22.4438C85.0452 22.745 85.8539 23.1784 86.5357 23.7492C87.2175 24.32 87.7513 25.0124 88.1424 25.8211C88.5335 26.6297 88.7291 27.5493 88.7291 28.5694C88.7291 29.8326 88.5177 31.0218 88.1001 32.1423C87.6773 33.2627 87.0695 34.2458 86.2714 35.0862C85.4681 35.9265 84.5061 36.5925 83.3751 37.084C82.244 37.5755 80.9597 37.8187 79.5168 37.8187ZM83.9882 29.0821C83.9882 28.1836 83.7134 27.4331 83.1637 26.8305C82.614 26.228 81.8371 25.932 80.8382 25.932C80.1986 25.932 79.6173 26.0642 79.0993 26.3232C78.5761 26.5821 78.1374 26.9362 77.778 27.3749C77.4186 27.8136 77.1385 28.3263 76.9376 28.9077C76.7368 29.489 76.6363 30.0969 76.6363 30.7364C76.6363 31.6349 76.9059 32.3854 77.445 32.972C77.9841 33.564 78.7558 33.86 79.7547 33.86C80.3942 33.86 80.9756 33.7331 81.4935 33.4847C82.0168 33.2363 82.4607 32.8875 82.8307 32.4488C83.2007 32.0101 83.4861 31.4975 83.6869 30.9161C83.8878 30.3347 83.9882 29.7269 83.9882 29.0874V29.0821Z" fill="white"/>
<path d="M26.1617 37.7232H26.0348C24.4757 37.7232 23.1543 36.5657 22.9429 35.0224L22.24 29.7794H22.1818L18.3712 36.2539C17.8373 37.163 16.8543 37.7232 15.7972 37.7232C14.1482 37.7232 12.811 36.386 12.811 34.737V27.7974H13.4347C15.1736 27.7974 16.5583 29.2509 16.479 30.9845L16.4103 32.5225H16.4949L19.3119 28.0194C19.9673 26.9729 21.1089 26.3387 22.3457 26.3387C24.074 26.3387 25.5539 27.5755 25.8657 29.272L26.4576 32.5172H26.5422L29.5601 26.8778C30.0781 25.8524 31.1298 25.2076 32.2767 25.2076H34.93L28.8149 36.1376C28.2864 37.1101 27.2663 37.7126 26.1617 37.7126V37.7232Z" fill="white"/>
<path d="M38.1226 33.2889C38.1226 33.2889 38.1437 33.3259 38.1543 33.347C38.3129 33.6007 38.5084 33.8227 38.7568 34.0024C39.0211 34.1979 39.3171 34.3459 39.6448 34.4463C39.9777 34.5468 40.316 34.5996 40.6754 34.5996C41.3202 34.5996 41.8857 34.4833 42.3773 34.2455H42.3931C43.3233 33.7857 44.4174 33.8385 45.2313 34.478L46.2672 35.2867C45.4533 36.1482 44.5495 36.7719 43.5506 37.1524C42.5517 37.5329 41.4735 37.7232 40.3213 37.7232C39.4386 37.7232 38.6247 37.6017 37.8689 37.3532C37.1131 37.1101 36.4577 36.7454 35.8975 36.2592C35.3373 35.7782 34.8986 35.181 34.5762 34.4675C34.2538 33.754 34.0952 32.9453 34.0952 32.0257C34.0952 30.9422 34.2855 29.9274 34.666 28.9866C35.0466 28.0459 35.5698 27.2319 36.241 26.5343C36.9123 25.8419 37.7104 25.2922 38.6406 24.8958C39.5708 24.4994 40.5961 24.2986 41.7166 24.2986C42.5464 24.2986 43.3022 24.4149 43.9893 24.6527C44.6764 24.8905 45.263 25.2341 45.7546 25.6833C46.2461 26.1326 46.6266 26.6875 46.8962 27.3482C47.1657 28.0089 47.3031 28.7699 47.3031 29.6367C47.3031 29.9433 47.2714 30.3291 47.2133 30.7942C47.1552 31.2593 47.0759 31.698 46.9702 32.105H38.8943C37.6046 32.105 37.9535 33.0087 38.1173 33.2889H38.1226ZM43.6246 28.5532L43.614 28.5215C43.5189 28.215 43.3498 27.9454 43.1013 27.7129C42.7049 27.3429 42.1289 27.1526 41.3836 27.1526C40.9238 27.1526 40.5168 27.2319 40.1522 27.3958C39.7875 27.5596 39.4704 27.7552 39.2008 27.993C38.9313 28.2308 38.7093 28.4951 38.5401 28.7805C38.371 29.0712 38.2495 29.346 38.186 29.6209H43.0326C44.0157 29.6209 43.6246 28.5585 43.6246 28.5585V28.5532Z" fill="white"/>
<path d="M101.61 25.8256C101.219 25.0169 100.685 24.3246 100.003 23.7537C99.3212 23.1829 98.5126 22.7495 97.5718 22.4483C96.631 22.147 95.611 21.999 94.5116 21.999C93.0899 21.999 91.8214 22.2474 90.7009 22.7495C90.0773 23.0297 89.5065 23.3679 88.9885 23.7485C89.2898 24.1607 89.5646 24.5994 89.7919 25.0698C90.2834 26.0951 90.5424 27.2367 90.5741 28.4576C90.7538 28.056 90.9758 27.6913 91.24 27.3689C91.5994 26.9302 92.0381 26.5761 92.5614 26.3171C93.0793 26.0581 93.6607 25.926 94.3055 25.926C95.3044 25.926 96.0814 26.2273 96.631 26.8245C97.1807 27.427 97.4555 28.1775 97.4555 29.076C97.4555 29.7155 97.3551 30.3286 97.1543 30.9047C96.9534 31.4861 96.668 31.9935 96.2981 32.4375C95.9281 32.8761 95.4841 33.225 94.9609 33.4734C94.4429 33.7218 93.8615 33.8486 93.222 33.8486C92.2231 33.8486 91.4514 33.5527 90.9124 32.9607C90.5741 32.5907 90.3521 32.1468 90.2253 31.6552C90.1196 32.0675 90.0033 32.4797 89.8553 32.8761C89.3796 34.1393 88.6872 35.2651 87.7993 36.2429C88.4177 36.7238 89.1418 37.0938 89.9663 37.3634C90.8965 37.6646 91.9007 37.8126 92.9842 37.8126C94.4271 37.8126 95.7114 37.5695 96.8424 37.0779C97.9735 36.5864 98.9407 35.9205 99.7388 35.0801C100.537 34.2397 101.15 33.2567 101.567 32.1362C101.99 31.0157 102.196 29.8265 102.196 28.5634C102.196 27.5433 102.001 26.6289 101.61 25.815V25.8256Z" fill="white"/>
<path d="M74.5278 19.663H72.4349C70.9286 19.663 69.5438 20.4716 68.8039 21.7824L65.5693 27.5222L63.6349 30.9206L63.0958 23.7538C62.9901 22.3479 61.8167 21.2591 60.4056 21.2591H60.3421C59.2957 21.2591 58.3443 21.8669 57.9003 22.813L53.4554 32.3212H53.3656L53.4237 26.0793C53.4237 24.3246 52.3719 23.1513 50.7123 23.1513H48.9946V34.3878C49.0475 36.2376 50.5591 37.7281 52.4195 37.7281H52.8846C54.2482 37.7281 55.485 36.93 56.0452 35.688L59.5705 27.4059H59.6286L60.1994 34.8529C60.395 36.4913 61.785 37.7281 63.434 37.7281C64.7501 37.7281 65.9551 37.004 66.5735 35.8412L75.1779 19.6682H74.5278V19.663Z" fill="white"/>
<path d="M63.9354 30.7946H63.4233V31.0902H63.9354V30.7946Z" fill="white"/>
</g>
<g clip-path="url(#clip2_97_851)">
<path d="M242.241 33.002C242.145 33.002 242.059 32.9853 241.983 32.9519C241.902 32.9186 241.831 32.8709 241.769 32.8089L236.104 27.273C235.966 27.1348 235.897 26.975 235.897 26.7938C235.897 26.7032 235.916 26.615 235.954 26.5292C235.987 26.4434 236.037 26.3718 236.104 26.3146L241.776 20.7716C241.905 20.6429 242.059 20.5785 242.241 20.5785C242.365 20.5785 242.477 20.6071 242.577 20.6643C242.672 20.7215 242.748 20.8002 242.806 20.9003C242.863 21.0005 242.892 21.1125 242.892 21.2365C242.892 21.4129 242.83 21.5679 242.706 21.7014L237.105 27.1729V26.4076L242.706 31.8863C242.83 32.0198 242.892 32.1748 242.892 32.3512C242.892 32.4751 242.863 32.5848 242.806 32.6802C242.748 32.7803 242.672 32.859 242.577 32.9162C242.477 32.9734 242.365 33.002 242.241 33.002ZM235.847 33.002C235.756 33.002 235.672 32.9853 235.596 32.9519C235.515 32.9186 235.444 32.8709 235.382 32.8089L229.717 27.273C229.574 27.1348 229.502 26.975 229.502 26.7938C229.502 26.7032 229.522 26.615 229.56 26.5292C229.598 26.4434 229.65 26.3718 229.717 26.3146L235.382 20.7716C235.515 20.6429 235.67 20.5785 235.847 20.5785C235.97 20.5785 236.083 20.6071 236.183 20.6643C236.278 20.7215 236.357 20.8002 236.419 20.9003C236.476 21.0005 236.505 21.1125 236.505 21.2365C236.505 21.4129 236.44 21.5679 236.311 21.7014L230.718 27.1729V26.4076L236.311 31.8863C236.44 32.0198 236.505 32.1748 236.505 32.3512C236.505 32.4751 236.476 32.5848 236.419 32.6802C236.357 32.7803 236.278 32.859 236.183 32.9162C236.083 32.9734 235.97 33.002 235.847 33.002Z" fill="white" fill-opacity="0.25"/>
</g>
<path d="M15.2649 178.366V170.511H18.7145C19.608 170.511 20.2928 170.757 20.7688 171.247C21.2376 171.731 21.4719 172.328 21.4719 173.038C21.4719 173.785 21.2376 174.386 20.7688 174.84C20.3001 175.294 19.6593 175.521 18.8463 175.521H16.9128V178.366H15.2649ZM16.9128 171.895V174.225H18.5607C18.9708 174.225 19.2857 174.122 19.5055 173.917C19.7252 173.705 19.835 173.415 19.835 173.049C19.835 172.683 19.7252 172.401 19.5055 172.203C19.2857 171.998 18.9781 171.895 18.5826 171.895H16.9128Z" fill="white"/>
<path d="M25.4729 178.366C25.3996 178.271 25.341 178.062 25.2971 177.74H25.2751C25.114 177.982 24.9089 178.168 24.6599 178.3C24.4109 178.432 24.063 178.498 23.6163 178.498C23.023 178.498 22.547 178.348 22.1881 178.048C21.8292 177.747 21.6498 177.323 21.6498 176.773C21.6498 176.202 21.8475 175.785 22.243 175.521C22.6385 175.25 23.1951 175.063 23.9129 174.961C24.4402 174.887 24.7991 174.814 24.9895 174.741C25.1799 174.66 25.2751 174.521 25.2751 174.323C25.2751 174.118 25.1946 173.957 25.0334 173.84C24.8723 173.715 24.6379 173.653 24.3303 173.653C23.6492 173.653 23.2867 173.917 23.2427 174.444H21.9134C21.9354 173.91 22.1515 173.466 22.5616 173.115C22.9717 172.763 23.565 172.588 24.3413 172.588C25.9233 172.588 26.7143 173.28 26.7143 174.664V177.531C26.7143 177.956 26.7802 178.216 26.912 178.311V178.366H25.4729ZM23.9788 177.454C24.3889 177.454 24.7112 177.348 24.9456 177.136C25.1872 176.923 25.3081 176.671 25.3081 176.378V175.532C25.147 175.627 24.7991 175.737 24.2644 175.861C23.8396 175.957 23.5394 176.066 23.3636 176.191C23.1878 176.308 23.0999 176.491 23.0999 176.74C23.0999 177.216 23.3929 177.454 23.9788 177.454Z" fill="white"/>
<path d="M30.147 180.289C29.3853 180.289 28.7737 180.135 28.3123 179.827C27.8582 179.52 27.5909 179.088 27.5103 178.531H28.9934C29.1399 178.948 29.5171 179.157 30.125 179.157C30.9599 179.157 31.3774 178.765 31.3774 177.982V177.366H31.3444C30.9563 177.806 30.4655 178.026 29.8723 178.026C29.2058 178.026 28.6236 177.78 28.1255 177.29C27.6348 176.799 27.3895 176.147 27.3895 175.334C27.3895 174.499 27.6165 173.833 28.0706 173.335C28.5247 172.829 29.1106 172.577 29.8284 172.577C30.5095 172.577 31.0295 172.826 31.3884 173.324H31.4103V172.73H32.8495V177.938C32.8495 178.67 32.6261 179.241 32.1793 179.652C31.7253 180.076 31.0478 180.289 30.147 180.289ZM30.125 176.828C30.5717 176.828 30.905 176.685 31.1247 176.4C31.3444 176.114 31.4543 175.748 31.4543 175.301C31.4543 174.862 31.3371 174.499 31.1027 174.214C30.8757 173.921 30.5461 173.774 30.114 173.774C29.7332 173.774 29.4255 173.913 29.1912 174.192C28.9641 174.47 28.8506 174.843 28.8506 175.312C28.8506 175.788 28.9641 176.162 29.1912 176.433C29.4255 176.696 29.7368 176.828 30.125 176.828Z" fill="white"/>
<path d="M36.4591 178.531C35.551 178.531 34.8369 178.253 34.3169 177.696C33.7969 177.132 33.5369 176.414 33.5369 175.543C33.5369 174.701 33.7969 173.997 34.3169 173.434C34.8369 172.862 35.5034 172.577 36.3163 172.577C37.2025 172.577 37.8873 172.884 38.3707 173.499C38.8541 174.115 39.0958 174.939 39.0958 175.971H35.009C35.0676 176.418 35.2177 176.766 35.4594 177.015C35.7011 177.257 36.0307 177.377 36.4482 177.377C36.9974 177.377 37.36 177.147 37.5358 176.685H39.0079C38.898 177.213 38.6197 177.652 38.1729 178.004C37.7262 178.355 37.1549 178.531 36.4591 178.531ZM36.3383 173.73C35.6132 173.73 35.1774 174.133 35.031 174.939H37.5358C37.5138 174.58 37.3929 174.29 37.1732 174.071C36.9535 173.844 36.6752 173.73 36.3383 173.73Z" fill="white"/>
<path d="M42.0723 178.531C41.2667 178.531 40.6368 178.355 40.1828 178.004C39.7287 177.645 39.4797 177.158 39.4357 176.543H40.8199C40.9152 177.165 41.3253 177.476 42.0504 177.476C42.3799 177.476 42.6326 177.418 42.8084 177.301C42.9915 177.183 43.083 177.026 43.083 176.828C43.083 176.755 43.0684 176.689 43.0391 176.63C43.0171 176.572 42.9732 176.521 42.9073 176.477C42.8487 176.425 42.7937 176.385 42.7425 176.356C42.6985 176.326 42.618 176.297 42.5008 176.268C42.3836 176.239 42.2921 176.217 42.2261 176.202C42.1675 176.187 42.0614 176.169 41.9076 176.147C41.7611 176.118 41.6585 176.096 41.5999 176.081C41.2923 176.023 41.0397 175.964 40.8419 175.905C40.6515 175.839 40.4501 175.748 40.2377 175.631C40.0253 175.506 39.8642 175.341 39.7543 175.136C39.6518 174.924 39.6005 174.671 39.6005 174.378C39.6005 173.792 39.8129 173.346 40.2377 173.038C40.6698 172.73 41.2228 172.577 41.8966 172.577C42.6216 172.577 43.1892 172.745 43.5994 173.082C44.0168 173.412 44.2549 173.866 44.3135 174.444H42.9622C42.9036 173.895 42.5411 173.62 41.8746 173.62C41.5743 173.62 41.3363 173.675 41.1605 173.785C40.9921 173.895 40.9078 174.049 40.9078 174.246C40.9078 174.312 40.9188 174.375 40.9408 174.433C40.9701 174.485 41.014 174.532 41.0726 174.576C41.1385 174.613 41.2008 174.646 41.2594 174.675C41.318 174.697 41.4022 174.723 41.5121 174.752C41.6219 174.774 41.7171 174.796 41.7977 174.818C41.8783 174.832 41.9881 174.854 42.1273 174.884C42.2664 174.906 42.3763 174.924 42.4568 174.939C42.6912 174.99 42.8816 175.037 43.0281 175.081C43.1819 175.118 43.3577 175.184 43.5554 175.279C43.7532 175.367 43.907 175.47 44.0168 175.587C44.134 175.697 44.2329 175.85 44.3135 176.048C44.4014 176.239 44.4453 176.462 44.4453 176.718C44.4453 177.275 44.2256 177.718 43.7861 178.048C43.354 178.37 42.7828 178.531 42.0723 178.531Z" fill="white"/>
<path d="M72.0237 178.366V170.511H73.6167V178.366H72.0237Z" fill="white" fill-opacity="0.25"/>
<path d="M74.3839 173.719V172.73H75.1639V170.973H76.625V172.73H77.5918V173.719H76.625V176.707C76.625 177.081 76.8118 177.268 77.1853 177.268L77.6247 177.257V178.355C77.3977 178.37 77.0864 178.377 76.6909 178.377C76.2588 178.377 75.8963 178.275 75.6033 178.07C75.3104 177.857 75.1639 177.509 75.1639 177.026V173.719H74.3839Z" fill="white" fill-opacity="0.25"/>
<path d="M80.9551 178.531C80.0469 178.531 79.3328 178.253 78.8128 177.696C78.2928 177.132 78.0328 176.414 78.0328 175.543C78.0328 174.701 78.2928 173.997 78.8128 173.434C79.3328 172.862 79.9993 172.577 80.8123 172.577C81.6985 172.577 82.3833 172.884 82.8666 173.499C83.35 174.115 83.5917 174.939 83.5917 175.971H79.505C79.5635 176.418 79.7137 176.766 79.9554 177.015C80.1971 177.257 80.5266 177.377 80.9441 177.377C81.4934 177.377 81.8559 177.147 82.0317 176.685H83.5038C83.394 177.213 83.1157 177.652 82.6689 178.004C82.2221 178.355 81.6509 178.531 80.9551 178.531ZM80.8342 173.73C80.1092 173.73 79.6734 174.133 79.5269 174.939H82.0317C82.0097 174.58 81.8889 174.29 81.6692 174.071C81.4495 173.844 81.1711 173.73 80.8342 173.73Z" fill="white" fill-opacity="0.25"/>
<path d="M84.2832 178.366V172.73H85.7224V173.488H85.7553C86.1142 172.881 86.6598 172.577 87.3922 172.577C87.7438 172.577 88.0551 172.668 88.326 172.851C88.6044 173.027 88.8131 173.265 88.9522 173.565H88.9742C89.3844 172.906 89.9483 172.577 90.666 172.577C91.252 172.577 91.706 172.756 92.0283 173.115C92.3579 173.466 92.5227 173.954 92.5227 174.576V178.366H91.0286V174.829C91.0286 174.184 90.7393 173.862 90.1607 173.862C89.8458 173.862 89.5967 173.975 89.4136 174.203C89.2379 174.422 89.15 174.719 89.15 175.092V178.366H87.6559V174.829C87.6559 174.184 87.3666 173.862 86.788 173.862C86.4877 173.862 86.2424 173.975 86.052 174.203C85.8689 174.422 85.7773 174.719 85.7773 175.092V178.366H84.2832Z" fill="white" fill-opacity="0.25"/>
<path d="M95.7304 178.531C94.9247 178.531 94.2949 178.355 93.8408 178.004C93.3867 177.645 93.1377 177.158 93.0938 176.543H94.478C94.5732 177.165 94.9833 177.476 95.7084 177.476C96.038 177.476 96.2907 177.418 96.4664 177.301C96.6495 177.183 96.7411 177.026 96.7411 176.828C96.7411 176.755 96.7264 176.689 96.6971 176.63C96.6752 176.572 96.6312 176.521 96.5653 176.477C96.5067 176.425 96.4518 176.385 96.4005 176.356C96.3566 176.326 96.276 176.297 96.1588 176.268C96.0416 176.239 95.9501 176.217 95.8842 176.202C95.8256 176.187 95.7194 176.169 95.5656 176.147C95.4191 176.118 95.3166 176.096 95.258 176.081C94.9504 176.023 94.6977 175.964 94.5 175.905C94.3095 175.839 94.1081 175.748 93.8957 175.631C93.6833 175.506 93.5222 175.341 93.4123 175.136C93.3098 174.924 93.2585 174.671 93.2585 174.378C93.2585 173.792 93.4709 173.346 93.8957 173.038C94.3278 172.73 94.8808 172.577 95.5546 172.577C96.2797 172.577 96.8473 172.745 97.2574 173.082C97.6749 173.412 97.9129 173.866 97.9715 174.444H96.6202C96.5616 173.895 96.1991 173.62 95.5326 173.62C95.2323 173.62 94.9943 173.675 94.8185 173.785C94.6501 173.895 94.5659 174.049 94.5659 174.246C94.5659 174.312 94.5769 174.375 94.5988 174.433C94.6281 174.485 94.6721 174.532 94.7307 174.576C94.7966 174.613 94.8588 174.646 94.9174 174.675C94.976 174.697 95.0602 174.723 95.1701 174.752C95.28 174.774 95.3752 174.796 95.4557 174.818C95.5363 174.832 95.6462 174.854 95.7853 174.884C95.9245 174.906 96.0343 174.924 96.1149 174.939C96.3492 174.99 96.5397 175.037 96.6861 175.081C96.84 175.118 97.0157 175.184 97.2135 175.279C97.4112 175.367 97.565 175.47 97.6749 175.587C97.7921 175.697 97.8909 175.85 97.9715 176.048C98.0594 176.239 98.1033 176.462 98.1033 176.718C98.1033 177.275 97.8836 177.718 97.4442 178.048C97.0121 178.37 96.4408 178.531 95.7304 178.531Z" fill="white" fill-opacity="0.25"/>
<path d="M129.07 178.542C128.008 178.542 127.184 178.319 126.598 177.872C126.012 177.418 125.704 176.773 125.675 175.938H127.235C127.286 176.407 127.451 176.744 127.729 176.949C128.015 177.154 128.44 177.257 129.004 177.257C129.451 177.257 129.817 177.176 130.102 177.015C130.388 176.846 130.531 176.59 130.531 176.246C130.531 176.121 130.513 176.012 130.476 175.916C130.447 175.814 130.381 175.726 130.278 175.653C130.176 175.572 130.088 175.51 130.015 175.466C129.941 175.415 129.806 175.363 129.608 175.312C129.41 175.254 129.26 175.213 129.158 175.191C129.055 175.162 128.865 175.114 128.586 175.048C128.249 174.968 127.971 174.898 127.751 174.84C127.539 174.781 127.301 174.69 127.037 174.565C126.781 174.441 126.576 174.305 126.422 174.159C126.276 174.005 126.151 173.807 126.049 173.565C125.946 173.316 125.895 173.034 125.895 172.719C125.895 171.965 126.169 171.386 126.719 170.984C127.275 170.574 128.004 170.368 128.905 170.368C129.798 170.368 130.513 170.581 131.047 171.006C131.582 171.43 131.878 172.035 131.937 172.818H130.41C130.366 172.437 130.205 172.145 129.927 171.939C129.656 171.734 129.311 171.632 128.894 171.632C128.462 171.632 128.118 171.716 127.861 171.885C127.605 172.053 127.477 172.276 127.477 172.555C127.477 172.855 127.601 173.075 127.85 173.214C128.107 173.353 128.553 173.492 129.191 173.631C129.571 173.712 129.883 173.789 130.124 173.862C130.366 173.928 130.626 174.027 130.904 174.159C131.19 174.283 131.41 174.422 131.564 174.576C131.725 174.73 131.857 174.935 131.959 175.191C132.069 175.44 132.124 175.73 132.124 176.059C132.124 176.835 131.842 177.443 131.278 177.883C130.714 178.322 129.978 178.542 129.07 178.542Z" fill="white" fill-opacity="0.25"/>
<path d="M132.968 180.212V179.036H133.495C134.052 179.036 134.33 178.78 134.33 178.267C134.33 178.018 134.187 177.509 133.902 176.74L132.386 172.73H133.957L134.792 175.268L135.154 176.499H135.176C135.279 176.023 135.389 175.612 135.506 175.268L136.297 172.73H137.802L135.835 178.509C135.616 179.154 135.367 179.597 135.088 179.838C134.817 180.087 134.403 180.212 133.847 180.212H132.968Z" fill="white" fill-opacity="0.25"/>
<path d="M140.539 178.531C139.734 178.531 139.104 178.355 138.65 178.004C138.196 177.645 137.947 177.158 137.903 176.543H139.287C139.382 177.165 139.792 177.476 140.517 177.476C140.847 177.476 141.1 177.418 141.275 177.301C141.458 177.183 141.55 177.026 141.55 176.828C141.55 176.755 141.535 176.689 141.506 176.63C141.484 176.572 141.44 176.521 141.374 176.477C141.316 176.425 141.261 176.385 141.209 176.356C141.166 176.326 141.085 176.297 140.968 176.268C140.851 176.239 140.759 176.217 140.693 176.202C140.635 176.187 140.528 176.169 140.375 176.147C140.228 176.118 140.126 176.096 140.067 176.081C139.759 176.023 139.507 175.964 139.309 175.905C139.118 175.839 138.917 175.748 138.705 175.631C138.492 175.506 138.331 175.341 138.221 175.136C138.119 174.924 138.067 174.671 138.067 174.378C138.067 173.792 138.28 173.346 138.705 173.038C139.137 172.73 139.69 172.577 140.364 172.577C141.089 172.577 141.656 172.745 142.066 173.082C142.484 173.412 142.722 173.866 142.78 174.444H141.429C141.371 173.895 141.008 173.62 140.342 173.62C140.041 173.62 139.803 173.675 139.627 173.785C139.459 173.895 139.375 174.049 139.375 174.246C139.375 174.312 139.386 174.375 139.408 174.433C139.437 174.485 139.481 174.532 139.54 174.576C139.606 174.613 139.668 174.646 139.726 174.675C139.785 174.697 139.869 174.723 139.979 174.752C140.089 174.774 140.184 174.796 140.265 174.818C140.345 174.832 140.455 174.854 140.594 174.884C140.733 174.906 140.843 174.924 140.924 174.939C141.158 174.99 141.349 175.037 141.495 175.081C141.649 175.118 141.825 175.184 142.022 175.279C142.22 175.367 142.374 175.47 142.484 175.587C142.601 175.697 142.7 175.85 142.78 176.048C142.868 176.239 142.912 176.462 142.912 176.718C142.912 177.275 142.693 177.718 142.253 178.048C141.821 178.37 141.25 178.531 140.539 178.531Z" fill="white" fill-opacity="0.25"/>
<path d="M143.149 173.719V172.73H143.929V170.973H145.391V172.73H146.357V173.719H145.391V176.707C145.391 177.081 145.577 177.268 145.951 177.268L146.39 177.257V178.355C146.163 178.37 145.852 178.377 145.456 178.377C145.024 178.377 144.662 178.275 144.369 178.07C144.076 177.857 143.929 177.509 143.929 177.026V173.719H143.149Z" fill="white" fill-opacity="0.25"/>
<path d="M149.721 178.531C148.812 178.531 148.098 178.253 147.578 177.696C147.058 177.132 146.798 176.414 146.798 175.543C146.798 174.701 147.058 173.997 147.578 173.434C148.098 172.862 148.765 172.577 149.578 172.577C150.464 172.577 151.149 172.884 151.632 173.499C152.116 174.115 152.357 174.939 152.357 175.971H148.27C148.329 176.418 148.479 176.766 148.721 177.015C148.963 177.257 149.292 177.377 149.71 177.377C150.259 177.377 150.621 177.147 150.797 176.685H152.269C152.16 177.213 151.881 177.652 151.434 178.004C150.988 178.355 150.416 178.531 149.721 178.531ZM149.6 173.73C148.875 173.73 148.439 174.133 148.292 174.939H150.797C150.775 174.58 150.654 174.29 150.435 174.071C150.215 173.844 149.937 173.73 149.6 173.73Z" fill="white" fill-opacity="0.25"/>
<path d="M153.049 178.366V172.73H154.488V173.488H154.521C154.88 172.881 155.425 172.577 156.158 172.577C156.509 172.577 156.821 172.668 157.092 172.851C157.37 173.027 157.579 173.265 157.718 173.565H157.74C158.15 172.906 158.714 172.577 159.432 172.577C160.017 172.577 160.472 172.756 160.794 173.115C161.123 173.466 161.288 173.954 161.288 174.576V178.366H159.794V174.829C159.794 174.184 159.505 173.862 158.926 173.862C158.611 173.862 158.362 173.975 158.179 174.203C158.003 174.422 157.916 174.719 157.916 175.092V178.366H156.421V174.829C156.421 174.184 156.132 173.862 155.554 173.862C155.253 173.862 155.008 173.975 154.817 174.203C154.634 174.422 154.543 174.719 154.543 175.092V178.366H153.049Z" fill="white" fill-opacity="0.25"/>
<path d="M164.177 178.366V170.511H167.627C168.52 170.511 169.205 170.757 169.681 171.247C170.15 171.731 170.384 172.328 170.384 173.038C170.384 173.785 170.15 174.386 169.681 174.84C169.212 175.294 168.571 175.521 167.758 175.521H165.825V178.366H164.177ZM165.825 171.895V174.225H167.473C167.883 174.225 168.198 174.122 168.418 173.917C168.637 173.705 168.747 173.415 168.747 173.049C168.747 172.683 168.637 172.401 168.418 172.203C168.198 171.998 167.89 171.895 167.495 171.895H165.825Z" fill="white" fill-opacity="0.25"/>
<path d="M174.385 178.366C174.312 178.271 174.253 178.062 174.209 177.74H174.187C174.026 177.982 173.821 178.168 173.572 178.3C173.323 178.432 172.975 178.498 172.528 178.498C171.935 178.498 171.459 178.348 171.1 178.048C170.741 177.747 170.562 177.323 170.562 176.773C170.562 176.202 170.76 175.785 171.155 175.521C171.551 175.25 172.107 175.063 172.825 174.961C173.352 174.887 173.711 174.814 173.902 174.741C174.092 174.66 174.187 174.521 174.187 174.323C174.187 174.118 174.107 173.957 173.946 173.84C173.784 173.715 173.55 173.653 173.242 173.653C172.561 173.653 172.199 173.917 172.155 174.444H170.826C170.847 173.91 171.064 173.466 171.474 173.115C171.884 172.763 172.477 172.588 173.253 172.588C174.835 172.588 175.626 173.28 175.626 174.664V177.531C175.626 177.956 175.692 178.216 175.824 178.311V178.366H174.385ZM172.891 177.454C173.301 177.454 173.623 177.348 173.858 177.136C174.099 176.923 174.22 176.671 174.22 176.378V175.532C174.059 175.627 173.711 175.737 173.176 175.861C172.752 175.957 172.451 176.066 172.276 176.191C172.1 176.308 172.012 176.491 172.012 176.74C172.012 177.216 172.305 177.454 172.891 177.454Z" fill="white" fill-opacity="0.25"/>
<path d="M179.059 180.289C178.297 180.289 177.686 180.135 177.224 179.827C176.77 179.52 176.503 179.088 176.422 178.531H177.906C178.052 178.948 178.429 179.157 179.037 179.157C179.872 179.157 180.289 178.765 180.289 177.982V177.366H180.257C179.868 177.806 179.378 178.026 178.784 178.026C178.118 178.026 177.536 177.78 177.038 177.29C176.547 176.799 176.302 176.147 176.302 175.334C176.302 174.499 176.529 173.833 176.983 173.335C177.437 172.829 178.023 172.577 178.74 172.577C179.422 172.577 179.942 172.826 180.3 173.324H180.322V172.73H181.762V177.938C181.762 178.67 181.538 179.241 181.091 179.652C180.637 180.076 179.96 180.289 179.059 180.289ZM179.037 176.828C179.484 176.828 179.817 176.685 180.037 176.4C180.257 176.114 180.366 175.748 180.366 175.301C180.366 174.862 180.249 174.499 180.015 174.214C179.788 173.921 179.458 173.774 179.026 173.774C178.645 173.774 178.338 173.913 178.103 174.192C177.876 174.47 177.763 174.843 177.763 175.312C177.763 175.788 177.876 176.162 178.103 176.433C178.338 176.696 178.649 176.828 179.037 176.828Z" fill="white" fill-opacity="0.25"/>
<path d="M185.371 178.531C184.463 178.531 183.749 178.253 183.229 177.696C182.709 177.132 182.449 176.414 182.449 175.543C182.449 174.701 182.709 173.997 183.229 173.434C183.749 172.862 184.415 172.577 185.228 172.577C186.115 172.577 186.799 172.884 187.283 173.499C187.766 174.115 188.008 174.939 188.008 175.971H183.921C183.98 176.418 184.13 176.766 184.371 177.015C184.613 177.257 184.943 177.377 185.36 177.377C185.91 177.377 186.272 177.147 186.448 176.685H187.92C187.81 177.213 187.532 177.652 187.085 178.004C186.638 178.355 186.067 178.531 185.371 178.531ZM185.25 173.73C184.525 173.73 184.09 174.133 183.943 174.939H186.448C186.426 174.58 186.305 174.29 186.085 174.071C185.866 173.844 185.587 173.73 185.25 173.73Z" fill="white" fill-opacity="0.25"/>
<path d="M190.984 178.531C190.179 178.531 189.549 178.355 189.095 178.004C188.641 177.645 188.392 177.158 188.348 176.543H189.732C189.827 177.165 190.237 177.476 190.962 177.476C191.292 177.476 191.545 177.418 191.72 177.301C191.904 177.183 191.995 177.026 191.995 176.828C191.995 176.755 191.98 176.689 191.951 176.63C191.929 176.572 191.885 176.521 191.819 176.477C191.761 176.425 191.706 176.385 191.655 176.356C191.611 176.326 191.53 176.297 191.413 176.268C191.296 176.239 191.204 176.217 191.138 176.202C191.08 176.187 190.973 176.169 190.82 176.147C190.673 176.118 190.571 176.096 190.512 176.081C190.204 176.023 189.952 175.964 189.754 175.905C189.564 175.839 189.362 175.748 189.15 175.631C188.937 175.506 188.776 175.341 188.666 175.136C188.564 174.924 188.513 174.671 188.513 174.378C188.513 173.792 188.725 173.346 189.15 173.038C189.582 172.73 190.135 172.577 190.809 172.577C191.534 172.577 192.101 172.745 192.511 173.082C192.929 173.412 193.167 173.866 193.226 174.444H191.874C191.816 173.895 191.453 173.62 190.787 173.62C190.486 173.62 190.248 173.675 190.073 173.785C189.904 173.895 189.82 174.049 189.82 174.246C189.82 174.312 189.831 174.375 189.853 174.433C189.882 174.485 189.926 174.532 189.985 174.576C190.051 174.613 190.113 174.646 190.171 174.675C190.23 174.697 190.314 174.723 190.424 174.752C190.534 174.774 190.629 174.796 190.71 174.818C190.79 174.832 190.9 174.854 191.039 174.884C191.179 174.906 191.288 174.924 191.369 174.939C191.603 174.99 191.794 175.037 191.94 175.081C192.094 175.118 192.27 175.184 192.468 175.279C192.665 175.367 192.819 175.47 192.929 175.587C193.046 175.697 193.145 175.85 193.226 176.048C193.313 176.239 193.357 176.462 193.357 176.718C193.357 177.275 193.138 177.718 192.698 178.048C192.266 178.37 191.695 178.531 190.984 178.531Z" fill="white" fill-opacity="0.25"/>
<path d="M12.1943 148.662V132.952H19.0935C20.8805 132.952 22.2501 133.443 23.2022 134.424C24.1397 135.391 24.6084 136.585 24.6084 138.006C24.6084 139.5 24.1397 140.701 23.2022 141.609C22.2648 142.517 20.9831 142.971 19.3572 142.971H15.4901V148.662H12.1943ZM15.4901 135.721V140.379H18.7859C19.6062 140.379 20.236 140.174 20.6755 139.763C21.1149 139.339 21.3346 138.76 21.3346 138.028C21.3346 137.295 21.1149 136.731 20.6755 136.336C20.236 135.926 19.6208 135.721 18.8298 135.721H15.4901Z" fill="white"/>
<path d="M32.6103 148.662C32.4638 148.472 32.3466 148.054 32.2587 147.41H32.2148C31.8925 147.893 31.4824 148.267 30.9844 148.53C30.4863 148.794 29.7906 148.926 28.897 148.926C27.7106 148.926 26.7585 148.625 26.0407 148.025C25.323 147.424 24.9641 146.575 24.9641 145.476C24.9641 144.334 25.3596 143.499 26.1506 142.971C26.9416 142.429 28.0548 142.056 29.4903 141.851C30.5449 141.704 31.2627 141.558 31.6435 141.411C32.0244 141.25 32.2148 140.972 32.2148 140.576C32.2148 140.166 32.0537 139.844 31.7314 139.61C31.4092 139.361 30.9404 139.236 30.3252 139.236C28.963 139.236 28.2379 139.763 28.15 140.818H25.4914C25.5354 139.749 25.9675 138.863 26.7878 138.159C27.608 137.456 28.7945 137.105 30.3472 137.105C33.5111 137.105 35.0931 138.489 35.0931 141.258V146.992C35.0931 147.842 35.2249 148.362 35.4886 148.552V148.662H32.6103ZM29.6221 146.838C30.4424 146.838 31.0869 146.626 31.5556 146.201C32.039 145.776 32.2807 145.271 32.2807 144.685V142.993C31.9585 143.184 31.2627 143.403 30.1934 143.652C29.3438 143.843 28.7432 144.063 28.3917 144.312C28.0401 144.546 27.8644 144.912 27.8644 145.41C27.8644 146.362 28.4503 146.838 29.6221 146.838Z" fill="white"/>
<path d="M41.9584 152.507C40.4351 152.507 39.212 152.199 38.2892 151.584C37.381 150.969 36.8463 150.105 36.6852 148.992H39.6514C39.9444 149.827 40.6987 150.244 41.9145 150.244C43.5844 150.244 44.4193 149.46 44.4193 147.893V146.663H44.3534C43.577 147.541 42.5956 147.981 41.4092 147.981C40.0762 147.981 38.9117 147.49 37.9156 146.509C36.9342 145.527 36.4435 144.224 36.4435 142.598C36.4435 140.928 36.8976 139.595 37.8058 138.599C38.7139 137.588 39.8858 137.083 41.3213 137.083C42.6835 137.083 43.7235 137.581 44.4413 138.577H44.4852V137.39H47.3635V147.805C47.3635 149.27 46.9168 150.412 46.0232 151.233C45.1151 152.082 43.7601 152.507 41.9584 152.507ZM41.9145 145.586C42.808 145.586 43.4745 145.3 43.9139 144.729C44.3534 144.158 44.5731 143.425 44.5731 142.532C44.5731 141.653 44.3387 140.928 43.87 140.357C43.4159 139.771 42.7568 139.478 41.8925 139.478C41.1308 139.478 40.5156 139.756 40.0469 140.313C39.5928 140.869 39.3658 141.616 39.3658 142.554C39.3658 143.506 39.5928 144.253 40.0469 144.795C40.5156 145.322 41.1382 145.586 41.9145 145.586Z" fill="white"/>
<path d="M54.5828 148.992C52.7665 148.992 51.3383 148.435 50.2983 147.322C49.2583 146.194 48.7383 144.758 48.7383 143.015C48.7383 141.331 49.2583 139.925 50.2983 138.797C51.3383 137.654 52.6713 137.083 54.2972 137.083C56.0696 137.083 57.4391 137.698 58.4059 138.928C59.3727 140.159 59.8561 141.807 59.8561 143.872H51.6825C51.7997 144.766 52.1 145.461 52.5834 145.959C53.0668 146.443 53.7259 146.685 54.5608 146.685C55.6594 146.685 56.3845 146.223 56.736 145.3H59.6803C59.4606 146.355 58.9039 147.234 58.0104 147.937C57.1169 148.64 55.9744 148.992 54.5828 148.992ZM54.3411 139.39C52.891 139.39 52.0194 140.196 51.7265 141.807H56.736C56.6921 141.089 56.4504 140.51 56.011 140.071C55.5715 139.617 55.0149 139.39 54.3411 139.39Z" fill="white"/>
<path d="M65.8092 148.992C64.198 148.992 62.9382 148.64 62.0301 147.937C61.1219 147.219 60.6239 146.245 60.536 145.015H63.3044C63.4949 146.26 64.3151 146.882 65.7653 146.882C66.4244 146.882 66.9298 146.765 67.2813 146.531C67.6475 146.296 67.8306 145.981 67.8306 145.586C67.8306 145.439 67.8013 145.308 67.7427 145.19C67.6988 145.073 67.6109 144.971 67.4791 144.883C67.3619 144.78 67.252 144.7 67.1495 144.641C67.0616 144.583 66.9005 144.524 66.6661 144.465C66.4318 144.407 66.2487 144.363 66.1168 144.334C65.9996 144.304 65.7872 144.268 65.4796 144.224C65.1867 144.165 64.9816 144.121 64.8644 144.092C64.2492 143.975 63.7439 143.858 63.3484 143.74C62.9675 143.608 62.5647 143.425 62.1399 143.191C61.7151 142.942 61.3929 142.612 61.1732 142.202C60.9681 141.778 60.8656 141.272 60.8656 140.686C60.8656 139.514 61.2903 138.621 62.1399 138.006C63.0041 137.39 64.1101 137.083 65.4577 137.083C66.9078 137.083 68.043 137.42 68.8633 138.094C69.6982 138.753 70.1743 139.661 70.2915 140.818H67.5889C67.4718 139.719 66.7467 139.17 65.4137 139.17C64.8132 139.17 64.3371 139.28 63.9856 139.5C63.6487 139.719 63.4802 140.027 63.4802 140.423C63.4802 140.554 63.5022 140.679 63.5461 140.796C63.6047 140.899 63.6926 140.994 63.8098 141.082C63.9416 141.155 64.0661 141.221 64.1833 141.279C64.3005 141.323 64.4689 141.375 64.6887 141.433C64.9084 141.477 65.0988 141.521 65.2599 141.565C65.421 141.594 65.6408 141.638 65.9191 141.697C66.1974 141.741 66.4171 141.778 66.5782 141.807C67.047 141.909 67.4278 142.005 67.7208 142.092C68.0284 142.166 68.3799 142.298 68.7754 142.488C69.1709 142.664 69.4785 142.869 69.6982 143.103C69.9326 143.323 70.1303 143.63 70.2915 144.026C70.4672 144.407 70.5551 144.854 70.5551 145.366C70.5551 146.479 70.1157 147.366 69.2368 148.025C68.3726 148.669 67.2301 148.992 65.8092 148.992Z" fill="white"/>
<path d="M23.4416 112.366V105.166H26.6641C27.4362 105.166 28.0169 105.34 28.4063 105.69C28.789 106.032 28.9803 106.482 28.9803 107.039C28.9803 107.744 28.6044 108.224 27.8525 108.479V108.509C28.2553 108.63 28.5775 108.848 28.8192 109.164C29.0676 109.479 29.1918 109.855 29.1918 110.292C29.1918 110.93 28.9803 111.43 28.5574 111.792C28.121 112.175 27.5168 112.366 26.7447 112.366H23.4416ZM24.9018 109.144V111.158H26.5836C26.9327 111.158 27.208 111.071 27.4094 110.896C27.6108 110.715 27.7115 110.476 27.7115 110.181C27.7115 109.852 27.6007 109.597 27.3791 109.416C27.1643 109.234 26.8857 109.144 26.5433 109.144H24.9018ZM24.9018 108.066H26.4829C26.8051 108.066 27.0636 107.992 27.2583 107.845C27.453 107.69 27.5503 107.475 27.5503 107.2C27.5503 106.932 27.4564 106.723 27.2684 106.576C27.0871 106.428 26.8353 106.354 26.5131 106.354H24.9018V108.066Z" fill="white"/>
<path d="M29.5267 112.366L32.0342 105.166H33.5448L36.0825 112.366H34.5619L34.0785 110.836H31.4803L31.007 112.366H29.5267ZM32.4672 107.643L31.8227 109.718H33.726L33.0815 107.643L32.7895 106.535H32.7693C32.6485 107.019 32.5478 107.388 32.4672 107.643Z" fill="white"/>
<path d="M39.4374 112.517C38.4236 112.517 37.5911 112.168 36.9399 111.47C36.2954 110.765 35.9732 109.872 35.9732 108.791C35.9732 107.704 36.2887 106.804 36.9198 106.092C37.5509 105.381 38.3867 105.025 39.4273 105.025C40.2867 105.025 40.9748 105.253 41.4917 105.71C42.0154 106.16 42.3175 106.74 42.3981 107.452H40.9479C40.8808 107.083 40.713 106.791 40.4444 106.576C40.1826 106.361 39.8436 106.253 39.4273 106.253C38.7895 106.253 38.3028 106.488 37.9671 106.958C37.6314 107.428 37.4636 108.039 37.4636 108.791C37.4636 109.536 37.6415 110.144 37.9973 110.614C38.3598 111.084 38.8399 111.319 39.4374 111.319C39.8603 111.319 40.2128 111.205 40.4948 110.977C40.7767 110.742 40.9412 110.433 40.9882 110.05H42.4182C42.3779 110.728 42.1128 111.295 41.6227 111.752C41.0789 112.262 40.3504 112.517 39.4374 112.517Z" fill="white"/>
<path d="M43.1694 112.366V105.166H44.6296V108.036L47.399 105.166H49.2117L46.392 108.046L49.3929 112.366H47.681L45.3648 109.003L44.6296 109.748V112.366H43.1694Z" fill="white"/>
<path d="M18.3101 109.317H18.7678V108.402H18.3101V109.317ZM10.6624 108.536C10.4837 108.714 10.4837 109.004 10.6624 109.183L13.5755 112.096C13.7543 112.275 14.0441 112.275 14.2229 112.096C14.4016 111.917 14.4016 111.627 14.2229 111.449L11.6335 108.859L14.2229 106.27C14.4016 106.091 14.4016 105.801 14.2229 105.622C14.0441 105.444 13.7543 105.444 13.5755 105.622L10.6624 108.536ZM18.3101 108.402H10.9861V109.317H18.3101V108.402Z" fill="white"/>
<rect x="0.916016" y="190.338" width="258.169" height="0.915493" fill="#242424"/>
<rect x="11.4436" y="206.359" width="237.113" height="30.2113" rx="6.8662" fill="#2F2F2F"/>
<rect x="11.4436" y="206.359" width="237.113" height="30.2113" rx="6.8662" stroke="#3A3A3A" stroke-width="0.915493"/>
<path d="M52.0625 225.887V216.985H53.8679V220.471H57.3665V216.985H59.1719V225.887H57.3665V221.965H53.8679V225.887H52.0625Z" fill="white"/>
<path d="M65.8288 225.115C65.2063 225.755 64.4053 226.074 63.4258 226.074C62.4464 226.074 61.6454 225.755 61.0228 225.115C60.4003 224.468 60.089 223.663 60.089 222.7C60.089 221.737 60.4003 220.936 61.0228 220.297C61.6454 219.65 62.4464 219.326 63.4258 219.326C64.4053 219.326 65.2063 219.65 65.8288 220.297C66.4513 220.936 66.7626 221.737 66.7626 222.7C66.7626 223.663 66.4513 224.468 65.8288 225.115ZM63.4258 224.779C63.9321 224.779 64.3264 224.592 64.6086 224.219C64.8991 223.837 65.0444 223.331 65.0444 222.7C65.0444 222.069 64.8991 221.563 64.6086 221.181C64.3264 220.799 63.9321 220.608 63.4258 220.608C62.9112 220.608 62.5128 220.799 62.2305 221.181C61.9483 221.555 61.8072 222.061 61.8072 222.7C61.8072 223.331 61.9483 223.837 62.2305 224.219C62.5128 224.592 62.9112 224.779 63.4258 224.779Z" fill="white"/>
<path d="M67.5497 225.887V219.5H69.1808V220.359H69.2181C69.6248 219.67 70.2432 219.326 71.0733 219.326C71.4717 219.326 71.8245 219.43 72.1316 219.637C72.447 219.836 72.6836 220.106 72.8413 220.446H72.8662C73.331 219.699 73.9701 219.326 74.7836 219.326C75.4476 219.326 75.9622 219.529 76.3275 219.936C76.701 220.334 76.8877 220.886 76.8877 221.592V225.887H75.1945V221.878C75.1945 221.148 74.8666 220.783 74.2108 220.783C73.8539 220.783 73.5717 220.911 73.3642 221.169C73.165 221.418 73.0654 221.754 73.0654 222.177V225.887H71.3721V221.878C71.3721 221.148 71.0442 220.783 70.3885 220.783C70.0482 220.783 69.7701 220.911 69.5543 221.169C69.3468 221.418 69.243 221.754 69.243 222.177V225.887H67.5497Z" fill="white"/>
<path d="M80.934 226.074C79.9048 226.074 79.0955 225.759 78.5061 225.128C77.9168 224.489 77.6221 223.675 77.6221 222.688C77.6221 221.733 77.9168 220.936 78.5061 220.297C79.0955 219.65 79.8508 219.326 80.7722 219.326C81.7765 219.326 82.5526 219.674 83.1005 220.372C83.6483 221.069 83.9222 222.003 83.9222 223.173H79.2905C79.3569 223.679 79.5271 224.074 79.801 224.356C80.0749 224.63 80.4485 224.767 80.9216 224.767C81.5441 224.767 81.955 224.505 82.1542 223.982H83.8226C83.6981 224.58 83.3827 225.078 82.8763 225.476C82.37 225.875 81.7226 226.074 80.934 226.074ZM80.7971 220.633C79.9753 220.633 79.4814 221.09 79.3154 222.003H82.1542C82.1293 221.596 81.9923 221.268 81.7433 221.019C81.4943 220.762 81.1789 220.633 80.7971 220.633Z" fill="white"/>
<path d="M36.3081 215.309C35.9744 214.972 35.4334 214.972 35.0997 215.309L29.4205 221.044C29.2537 221.213 29.2537 221.486 29.4205 221.654C29.5874 221.823 29.8579 221.823 30.0247 221.654L35.7039 215.919L41.383 221.654C41.5498 221.823 41.8203 221.823 41.9872 221.654C42.154 221.486 42.154 221.213 41.9872 221.044L39.9762 219.013V216.172C39.9762 215.934 39.7849 215.741 39.5489 215.741H38.6945C38.4585 215.741 38.2672 215.934 38.2672 216.172V217.288L36.3081 215.309Z" fill="white" fill-opacity="0.85"/>
<path d="M35.7039 216.856L40.8306 222.033V225.664C40.8306 226.378 40.2568 226.958 39.5489 226.958H31.8588C31.1509 226.958 30.5771 226.378 30.5771 225.664V222.033L35.7039 216.856Z" fill="white" fill-opacity="0.85"/>
<path d="M231.385 216.513C231.565 215.792 232.59 215.792 232.771 216.513L232.824 216.725C232.96 217.269 233.64 217.451 234.03 217.049L234.182 216.891C234.699 216.357 235.587 216.869 235.383 217.584L235.322 217.795C235.168 218.334 235.667 218.832 236.206 218.678L236.416 218.618C237.131 218.413 237.643 219.301 237.109 219.818L236.952 219.97C236.549 220.36 236.731 221.04 237.275 221.176L237.487 221.23C238.209 221.41 238.209 222.435 237.487 222.616L237.275 222.669C236.731 222.805 236.549 223.485 236.952 223.875L237.109 224.027C237.643 224.544 237.131 225.432 236.416 225.228L236.206 225.167C235.667 225.013 235.168 225.512 235.322 226.051L235.383 226.261C235.587 226.976 234.699 227.488 234.182 226.954L234.03 226.797C233.64 226.394 232.96 226.576 232.824 227.12L232.771 227.332C232.59 228.054 231.565 228.054 231.385 227.332L231.332 227.12C231.195 226.576 230.515 226.394 230.125 226.797L229.973 226.954C229.456 227.488 228.568 226.976 228.773 226.261L228.833 226.051C228.987 225.512 228.489 225.013 227.95 225.167L227.739 225.228C227.024 225.432 226.512 224.544 227.046 224.027L227.204 223.875C227.606 223.485 227.424 222.805 226.88 222.669L226.668 222.616C225.947 222.435 225.947 221.41 226.668 221.23L226.88 221.176C227.424 221.04 227.606 220.36 227.204 219.97L227.046 219.818C226.512 219.301 227.024 218.413 227.739 218.618L227.95 218.678C228.489 218.832 228.987 218.334 228.833 217.795L228.773 217.584C228.568 216.869 229.456 216.357 229.973 216.891L230.125 217.049C230.515 217.451 231.195 217.269 231.332 216.725L231.385 216.513ZM235.777 222.294H232.264L230.155 225.105C230.716 225.445 231.374 225.64 232.078 225.64C234.005 225.64 235.59 224.173 235.777 222.294ZM235.777 221.551C235.59 219.672 234.005 218.205 232.078 218.205C231.374 218.205 230.716 218.401 230.155 218.74L232.264 221.551H235.777ZM229.882 218.923C229.86 218.939 229.839 218.955 229.817 218.971L229.882 218.923ZM229.561 219.187C228.823 219.866 228.36 220.84 228.36 221.923C228.36 223.005 228.823 223.979 229.561 224.659L231.613 221.923L229.561 219.187ZM229.817 224.874C229.839 224.89 229.86 224.907 229.882 224.923L229.817 224.874Z" fill="white"/>
<path d="M50.3896 390.676L53.4899 381.774H55.3575L58.4951 390.676H56.615L56.0174 388.784H52.8051L52.2199 390.676H50.3896ZM54.0253 384.837L53.2284 387.402H55.5816L54.7847 384.837L54.4237 383.467H54.3988C54.2494 384.065 54.1249 384.521 54.0253 384.837Z" fill="white" fill-opacity="0.5"/>
<path d="M62.6683 390.863C61.805 390.863 61.17 390.535 60.7633 389.879H60.7384V390.676H59.1074V381.774H60.8007V385.061H60.838C61.2447 384.43 61.8382 384.115 62.6185 384.115C63.4236 384.115 64.0835 384.43 64.5981 385.061C65.1128 385.683 65.3701 386.493 65.3701 387.489C65.3701 388.518 65.1211 389.34 64.623 389.954C64.125 390.56 63.4734 390.863 62.6683 390.863ZM62.2948 389.443C62.7264 389.443 63.0584 389.273 63.2908 388.933C63.5315 388.593 63.6519 388.111 63.6519 387.489C63.6519 386.874 63.5274 386.389 63.2784 386.032C63.0377 385.667 62.689 385.484 62.2325 385.484C61.2531 385.484 60.7633 386.165 60.7633 387.526C60.7633 388.115 60.9003 388.584 61.1742 388.933C61.4481 389.273 61.8216 389.443 62.2948 389.443Z" fill="white" fill-opacity="0.5"/>
<path d="M71.588 389.904C70.9655 390.543 70.1645 390.863 69.1851 390.863C68.2056 390.863 67.4046 390.543 66.7821 389.904C66.1595 389.257 65.8483 388.452 65.8483 387.489C65.8483 386.526 66.1595 385.725 66.7821 385.086C67.4046 384.438 68.2056 384.115 69.1851 384.115C70.1645 384.115 70.9655 384.438 71.588 385.086C72.2106 385.725 72.5218 386.526 72.5218 387.489C72.5218 388.452 72.2106 389.257 71.588 389.904ZM69.1851 389.568C69.6914 389.568 70.0857 389.381 70.3679 389.008C70.6584 388.626 70.8036 388.12 70.8036 387.489C70.8036 386.858 70.6584 386.352 70.3679 385.97C70.0857 385.588 69.6914 385.397 69.1851 385.397C68.6704 385.397 68.272 385.588 67.9898 385.97C67.7076 386.343 67.5665 386.85 67.5665 387.489C67.5665 388.12 67.7076 388.626 67.9898 389.008C68.272 389.381 68.6704 389.568 69.1851 389.568Z" fill="white" fill-opacity="0.5"/>
<path d="M78.974 390.676H77.343V389.929H77.3056C77.0732 390.244 76.8159 390.477 76.5337 390.626C76.2598 390.776 75.907 390.85 75.4754 390.85C74.7781 390.85 74.2345 390.643 73.8443 390.228C73.4542 389.813 73.2592 389.253 73.2592 388.547V384.289H74.94V388.261C74.94 389.033 75.2928 389.419 75.9983 389.419C76.3884 389.419 76.6997 389.286 76.9321 389.02C77.1645 388.754 77.2807 388.406 77.2807 387.974V384.289H78.974V390.676Z" fill="white" fill-opacity="0.5"/>
<path d="M79.6958 385.409V384.289H80.5798V382.297H82.2357V384.289H83.3314V385.409H82.2357V388.796C82.2357 389.219 82.4474 389.431 82.8707 389.431L83.3687 389.419V390.664C83.1114 390.68 82.7587 390.689 82.3104 390.689C81.8207 390.689 81.4098 390.572 81.0778 390.34C80.7458 390.099 80.5798 389.705 80.5798 389.157V385.409H79.6958Z" fill="white" fill-opacity="0.5"/>
<path d="M32.6528 379.845H36.6908C36.8931 379.845 37.0872 379.923 37.2302 380.063L40.0584 382.82C40.2015 382.96 40.2819 383.149 40.2819 383.346V390.259C40.2819 391.08 39.5987 391.746 38.7561 391.746H32.6528C31.8101 391.746 31.127 391.08 31.127 390.259V381.333C31.127 380.511 31.8101 379.845 32.6528 379.845ZM36.8488 380.961V382.448C36.8488 382.859 37.1904 383.192 37.6117 383.192H39.1375L36.8488 380.961Z" fill="white" fill-opacity="0.33"/>
<path d="M54.9339 423.82C53.6806 423.82 52.6513 423.389 51.8461 422.526C51.0493 421.654 50.6509 420.55 50.6509 419.214C50.6509 417.869 51.041 416.757 51.8212 415.877C52.6015 414.997 53.6349 414.557 54.9215 414.557C55.9839 414.557 56.8347 414.839 57.4739 415.404C58.1213 415.96 58.4948 416.678 58.5944 417.558H56.8015C56.7185 417.101 56.511 416.74 56.179 416.475C55.8553 416.209 55.4361 416.076 54.9215 416.076C54.1329 416.076 53.5311 416.367 53.1161 416.948C52.7011 417.529 52.4936 418.284 52.4936 419.214C52.4936 420.135 52.7135 420.886 53.1535 421.467C53.6017 422.048 54.1952 422.339 54.9339 422.339C55.4569 422.339 55.8926 422.198 56.2412 421.915C56.5899 421.625 56.7932 421.243 56.8513 420.77H58.6193C58.5695 421.608 58.2417 422.31 57.6357 422.874C56.9634 423.505 56.0628 423.82 54.9339 423.82Z" fill="white" fill-opacity="0.5"/>
<path d="M64.9004 422.862C64.2779 423.501 63.4769 423.82 62.4974 423.82C61.518 423.82 60.717 423.501 60.0944 422.862C59.4719 422.214 59.1606 421.409 59.1606 420.446C59.1606 419.483 59.4719 418.682 60.0944 418.043C60.717 417.396 61.518 417.072 62.4974 417.072C63.4769 417.072 64.2779 417.396 64.9004 418.043C65.523 418.682 65.8342 419.483 65.8342 420.446C65.8342 421.409 65.523 422.214 64.9004 422.862ZM62.4974 422.526C63.0038 422.526 63.398 422.339 63.6803 421.965C63.9708 421.583 64.116 421.077 64.116 420.446C64.116 419.815 63.9708 419.309 63.6803 418.927C63.398 418.546 63.0038 418.355 62.4974 418.355C61.9828 418.355 61.5844 418.546 61.3022 418.927C61.0199 419.301 60.8788 419.807 60.8788 420.446C60.8788 421.077 61.0199 421.583 61.3022 421.965C61.5844 422.339 61.9828 422.526 62.4974 422.526Z" fill="white" fill-opacity="0.5"/>
<path d="M68.2773 417.246V418.118H68.3146C68.7546 417.421 69.3854 417.072 70.2071 417.072C70.8629 417.072 71.3941 417.296 71.8008 417.745C72.2076 418.184 72.4109 418.757 72.4109 419.463V423.634H70.7176V419.712C70.7176 419.363 70.618 419.081 70.4188 418.865C70.2279 418.649 69.9581 418.541 69.6095 418.541C69.236 418.541 68.9247 418.678 68.6757 418.952C68.435 419.226 68.3146 419.579 68.3146 420.011V423.634H66.6213V417.246H68.2773Z" fill="white" fill-opacity="0.5"/>
<path d="M72.9595 418.367V417.246H73.8435V415.254H75.4995V417.246H76.5951V418.367H75.4995V421.754C75.4995 422.177 75.7111 422.389 76.1345 422.389L76.6325 422.376V423.621C76.3752 423.638 76.0224 423.646 75.5742 423.646C75.0844 423.646 74.6736 423.53 74.3416 423.298C74.0095 423.057 73.8435 422.663 73.8435 422.115V418.367H72.9595Z" fill="white" fill-opacity="0.5"/>
<path d="M81.5494 423.634C81.4664 423.526 81.4 423.289 81.3502 422.924H81.3253C81.1427 423.198 80.9103 423.41 80.6281 423.559C80.3459 423.708 79.9516 423.783 79.4453 423.783C78.7729 423.783 78.2334 423.613 77.8267 423.273C77.42 422.932 77.2166 422.451 77.2166 421.828C77.2166 421.181 77.4407 420.708 77.8889 420.409C78.3372 420.102 78.968 419.89 79.7814 419.774C80.3791 419.691 80.7858 419.608 81.0016 419.525C81.2174 419.434 81.3253 419.276 81.3253 419.052C81.3253 418.819 81.234 418.637 81.0514 418.504C80.8688 418.363 80.6032 418.292 80.2546 418.292C79.4826 418.292 79.0718 418.591 79.0219 419.189H77.5154C77.5403 418.583 77.7852 418.081 78.25 417.682C78.7148 417.284 79.3872 417.085 80.267 417.085C82.0599 417.085 82.9564 417.869 82.9564 419.438V422.687C82.9564 423.169 83.0311 423.464 83.1805 423.571V423.634H81.5494ZM79.8561 422.6C80.321 422.6 80.6862 422.48 80.9518 422.239C81.2257 421.999 81.3627 421.712 81.3627 421.38V420.421C81.1801 420.529 80.7858 420.654 80.1799 420.795C79.6984 420.903 79.3581 421.027 79.1589 421.168C78.9597 421.301 78.8601 421.509 78.8601 421.791C78.8601 422.331 79.1921 422.6 79.8561 422.6Z" fill="white" fill-opacity="0.5"/>
<path d="M86.9961 423.82C86.0084 423.82 85.2157 423.501 84.6181 422.862C84.0204 422.223 83.7216 421.417 83.7216 420.446C83.7216 419.475 84.0121 418.67 84.5932 418.031C85.1825 417.392 85.9544 417.072 86.909 417.072C87.7141 417.072 88.3699 417.284 88.8762 417.707C89.3825 418.13 89.6938 418.699 89.81 419.413H88.1541C88.096 419.122 87.9631 418.886 87.7556 418.703C87.5481 418.521 87.2908 418.429 86.9837 418.429C86.4857 418.429 86.1038 418.608 85.8382 418.965C85.5726 419.322 85.4398 419.815 85.4398 420.446C85.4398 421.069 85.5685 421.563 85.8258 421.928C86.0831 422.285 86.4608 422.463 86.9588 422.463C87.6975 422.463 88.125 422.102 88.2412 421.38H89.8723C89.8142 422.086 89.5278 422.671 89.0132 423.136C88.4985 423.592 87.8262 423.82 86.9961 423.82Z" fill="white" fill-opacity="0.5"/>
<path d="M90.2373 418.367V417.246H91.1213V415.254H92.7773V417.246H93.8729V418.367H92.7773V421.754C92.7773 422.177 92.9889 422.389 93.4122 422.389L93.9103 422.376V423.621C93.653 423.638 93.3002 423.646 92.852 423.646C92.3622 423.646 91.9514 423.53 91.6193 423.298C91.2873 423.057 91.1213 422.663 91.1213 422.115V418.367H90.2373Z" fill="white" fill-opacity="0.5"/>
<path d="M32.6528 412.803H36.6908C36.8931 412.803 37.0872 412.881 37.2302 413.021L40.0584 415.778C40.2015 415.918 40.2819 416.107 40.2819 416.304V423.217C40.2819 424.038 39.5987 424.704 38.7561 424.704H32.6528C31.8101 424.704 31.127 424.038 31.127 423.217V414.291C31.127 413.469 31.8101 412.803 32.6528 412.803ZM36.8488 413.919V415.406C36.8488 415.817 37.1904 416.15 37.6117 416.15H39.1375L36.8488 413.919Z" fill="white" fill-opacity="0.33"/>
<path d="M51.0371 357.718V348.816H54.9466C55.9593 348.816 56.7354 349.094 57.2749 349.65C57.8061 350.198 58.0718 350.875 58.0718 351.68C58.0718 352.526 57.8061 353.207 57.2749 353.722C56.7437 354.236 56.0174 354.494 55.096 354.494H52.9047V357.718H51.0371ZM52.9047 350.385V353.024H54.7723C55.2371 353.024 55.5941 352.908 55.8431 352.676C56.0921 352.435 56.2166 352.107 56.2166 351.692C56.2166 351.277 56.0921 350.958 55.8431 350.733C55.5941 350.501 55.2454 350.385 54.7972 350.385H52.9047Z" fill="white" fill-opacity="0.5"/>
<path d="M62.6061 357.718C62.5231 357.61 62.4567 357.374 62.4069 357.009H62.382C62.1994 357.283 61.967 357.494 61.6848 357.644C61.4026 357.793 61.0083 357.868 60.502 357.868C59.8296 357.868 59.2901 357.698 58.8834 357.357C58.4767 357.017 58.2733 356.535 58.2733 355.913C58.2733 355.266 58.4974 354.792 58.9456 354.494C59.3939 354.186 60.0247 353.975 60.8381 353.859C61.4358 353.776 61.8425 353.693 62.0583 353.61C62.2741 353.518 62.382 353.361 62.382 353.136C62.382 352.904 62.2907 352.721 62.1081 352.589C61.9255 352.447 61.6599 352.377 61.3113 352.377C60.5393 352.377 60.1285 352.676 60.0787 353.273H58.5721C58.597 352.667 58.8419 352.165 59.3067 351.767C59.7715 351.368 60.4439 351.169 61.3237 351.169C63.1166 351.169 64.0131 351.954 64.0131 353.522V356.772C64.0131 357.253 64.0878 357.548 64.2372 357.656V357.718H62.6061ZM60.9129 356.685C61.3777 356.685 61.7429 356.565 62.0085 356.324C62.2824 356.083 62.4194 355.797 62.4194 355.465V354.506C62.2368 354.614 61.8425 354.738 61.2366 354.88C60.7551 354.987 60.4148 355.112 60.2156 355.253C60.0164 355.386 59.9168 355.593 59.9168 355.876C59.9168 356.415 60.2488 356.685 60.9129 356.685Z" fill="white" fill-opacity="0.5"/>
<path d="M66.7206 351.331V352.352H66.758C66.9572 351.979 67.1771 351.705 67.4179 351.53C67.6586 351.348 67.9615 351.256 68.3268 351.256C68.5011 351.256 68.6339 351.273 68.7252 351.306V352.788H68.6878C68.1151 352.73 67.6544 352.854 67.3058 353.161C66.9572 353.468 66.7829 353.95 66.7829 354.606V357.718H65.0896V351.331H66.7206Z" fill="white" fill-opacity="0.5"/>
<path d="M69.1419 352.452V351.331H70.0259V349.339H71.6818V351.331H72.7775V352.452H71.6818V355.838C71.6818 356.262 71.8935 356.473 72.3168 356.473L72.8149 356.461V357.706C72.5575 357.722 72.2048 357.731 71.7565 357.731C71.2668 357.731 70.8559 357.615 70.5239 357.382C70.1919 357.141 70.0259 356.747 70.0259 356.199V352.452H69.1419Z" fill="white" fill-opacity="0.5"/>
<path d="M75.3054 351.331V352.203H75.3427C75.7827 351.505 76.4135 351.157 77.2352 351.157C77.891 351.157 78.4222 351.381 78.8289 351.829C79.2357 352.269 79.439 352.842 79.439 353.547V357.718H77.7457V353.796C77.7457 353.448 77.6461 353.165 77.4469 352.95C77.256 352.734 76.9862 352.626 76.6376 352.626C76.2641 352.626 75.9528 352.763 75.7038 353.037C75.4631 353.311 75.3427 353.664 75.3427 354.095V357.718H73.6494V351.331H75.3054Z" fill="white" fill-opacity="0.5"/>
<path d="M83.4834 357.905C82.4541 357.905 81.6448 357.59 81.0555 356.959C80.4661 356.32 80.1715 355.506 80.1715 354.518C80.1715 353.564 80.4661 352.767 81.0555 352.128C81.6448 351.48 82.4001 351.157 83.3215 351.157C84.3259 351.157 85.1019 351.505 85.6498 352.203C86.1976 352.9 86.4715 353.834 86.4715 355.004H81.8399C81.9063 355.51 82.0764 355.905 82.3503 356.187C82.6243 356.461 82.9978 356.598 83.4709 356.598C84.0934 356.598 84.5043 356.336 84.7035 355.813H86.3719C86.2474 356.411 85.932 356.909 85.4257 357.307C84.9193 357.706 84.2719 357.905 83.4834 357.905ZM83.3464 352.464C82.5247 352.464 82.0308 352.921 81.8648 353.834H84.7035C84.6786 353.427 84.5417 353.099 84.2926 352.85C84.0436 352.593 83.7282 352.464 83.3464 352.464Z" fill="white" fill-opacity="0.5"/>
<path d="M88.8863 351.331V352.352H88.9236C89.1228 351.979 89.3428 351.705 89.5835 351.53C89.8242 351.348 90.1272 351.256 90.4924 351.256C90.6667 351.256 90.7995 351.273 90.8908 351.306V352.788H90.8535C90.2808 352.73 89.8201 352.854 89.4715 353.161C89.1228 353.468 88.9485 353.95 88.9485 354.606V357.718H87.2552V351.331H88.8863Z" fill="white" fill-opacity="0.5"/>
<path d="M94.21 357.905C93.297 357.905 92.5831 357.706 92.0685 357.307C91.5539 356.901 91.2717 356.349 91.2219 355.651H92.7906C92.8986 356.357 93.3634 356.71 94.1851 356.71C94.5586 356.71 94.845 356.643 95.0442 356.511C95.2517 356.378 95.3555 356.199 95.3555 355.975C95.3555 355.892 95.3389 355.817 95.3057 355.751C95.2808 355.685 95.231 355.627 95.1563 355.577C95.0899 355.519 95.0276 355.473 94.9695 355.44C94.9197 355.407 94.8284 355.373 94.6956 355.34C94.5628 355.307 94.459 355.282 94.3843 355.266C94.3179 355.249 94.1976 355.228 94.0233 355.203C93.8573 355.17 93.741 355.145 93.6746 355.129C93.326 355.062 93.0397 354.996 92.8155 354.929C92.5997 354.855 92.3715 354.751 92.1308 354.618C91.89 354.477 91.7074 354.29 91.5829 354.058C91.4667 353.817 91.4086 353.531 91.4086 353.199C91.4086 352.535 91.6493 352.028 92.1308 351.68C92.6205 351.331 93.2472 351.157 94.0108 351.157C94.8326 351.157 95.4758 351.348 95.9407 351.73C96.4138 352.103 96.6836 352.618 96.75 353.273H95.2185C95.1521 352.651 94.7413 352.34 93.9859 352.34C93.6456 352.34 93.3758 352.402 93.1766 352.526C92.9857 352.651 92.8903 352.825 92.8903 353.049C92.8903 353.124 92.9027 353.195 92.9276 353.261C92.9608 353.319 93.0106 353.373 93.077 353.423C93.1517 353.464 93.2223 353.502 93.2887 353.535C93.3551 353.56 93.4505 353.589 93.575 353.622C93.6995 353.647 93.8075 353.672 93.8988 353.697C93.9901 353.713 94.1146 353.738 94.2723 353.771C94.43 353.796 94.5545 353.817 94.6458 353.834C94.9114 353.892 95.1272 353.946 95.2932 353.996C95.4675 354.037 95.6668 354.112 95.8909 354.22C96.115 354.319 96.2893 354.435 96.4138 354.568C96.5466 354.693 96.6587 354.867 96.75 355.091C96.8496 355.307 96.8994 355.56 96.8994 355.851C96.8994 356.482 96.6504 356.984 96.1523 357.357C95.6626 357.722 95.0152 357.905 94.21 357.905Z" fill="white" fill-opacity="0.5"/>
<path d="M32.6528 346.887H36.6908C36.8931 346.887 37.0872 346.966 37.2302 347.105L40.0584 349.863C40.2015 350.002 40.2819 350.191 40.2819 350.389V357.301C40.2819 358.123 39.5987 358.789 38.7561 358.789H32.6528C31.8101 358.789 31.127 358.123 31.127 357.301V348.375C31.127 347.553 31.8101 346.887 32.6528 346.887ZM36.8488 348.003V349.491C36.8488 349.902 37.1904 350.235 37.6117 350.235H39.1375L36.8488 348.003Z" fill="white" fill-opacity="0.33"/>
<path d="M22.7617 353.652L20.7495 355.924C20.5121 356.192 20.1406 355.974 20.1406 355.568V351.024C20.1406 350.617 20.5121 350.399 20.7495 350.667L22.7617 352.939C22.9289 353.128 22.9289 353.463 22.7617 353.652Z" fill="white" fill-opacity="0.33"/>
<path d="M51.0371 258.845V249.943H54.9466C55.9593 249.943 56.7354 250.221 57.2749 250.777C57.8061 251.325 58.0718 252.001 58.0718 252.807C58.0718 253.653 57.8061 254.334 57.2749 254.848C56.7437 255.363 56.0174 255.62 55.096 255.62H52.9047V258.845H51.0371ZM52.9047 251.512V254.151H54.7723C55.2371 254.151 55.5941 254.035 55.8431 253.803C56.0921 253.562 56.2166 253.234 56.2166 252.819C56.2166 252.404 56.0921 252.084 55.8431 251.86C55.5941 251.628 55.2454 251.512 54.7972 251.512H52.9047Z" fill="white" fill-opacity="0.5"/>
<path d="M64.0739 258.073C63.4513 258.712 62.6503 259.032 61.6709 259.032C60.6914 259.032 59.8904 258.712 59.2679 258.073C58.6454 257.426 58.3341 256.621 58.3341 255.658C58.3341 254.695 58.6454 253.894 59.2679 253.255C59.8904 252.607 60.6914 252.284 61.6709 252.284C62.6503 252.284 63.4513 252.607 64.0739 253.255C64.6964 253.894 65.0077 254.695 65.0077 255.658C65.0077 256.621 64.6964 257.426 64.0739 258.073ZM61.6709 257.737C62.1772 257.737 62.5715 257.55 62.8537 257.177C63.1442 256.795 63.2895 256.289 63.2895 255.658C63.2895 255.027 63.1442 254.521 62.8537 254.139C62.5715 253.757 62.1772 253.566 61.6709 253.566C61.1563 253.566 60.7578 253.757 60.4756 254.139C60.1934 254.512 60.0523 255.019 60.0523 255.658C60.0523 256.289 60.1934 256.795 60.4756 257.177C60.7578 257.55 61.1563 257.737 61.6709 257.737Z" fill="white" fill-opacity="0.5"/>
<path d="M67.4258 252.458V253.479H67.4632C67.6624 253.105 67.8824 252.831 68.1231 252.657C68.3638 252.474 68.6668 252.383 69.032 252.383C69.2063 252.383 69.3391 252.4 69.4304 252.433V253.915H69.393C68.8203 253.857 68.3596 253.981 68.011 254.288C67.6624 254.595 67.4881 255.077 67.4881 255.732V258.845H65.7948V252.458H67.4258Z" fill="white" fill-opacity="0.5"/>
<path d="M69.8471 253.578V252.458H70.7311V250.466H72.3871V252.458H73.4827V253.578H72.3871V256.965C72.3871 257.388 72.5987 257.6 73.022 257.6L73.5201 257.588V258.833C73.2628 258.849 72.91 258.858 72.4618 258.858C71.972 258.858 71.5612 258.741 71.2291 258.509C70.8971 258.268 70.7311 257.874 70.7311 257.326V253.578H69.8471Z" fill="white" fill-opacity="0.5"/>
<path d="M73.8352 253.628V252.458H74.7068V251.885C74.7068 251.138 74.9641 250.607 75.4787 250.291C75.9933 249.976 76.6823 249.864 77.5455 249.955V251.263C77.1222 251.246 76.8234 251.283 76.6491 251.375C76.4831 251.466 76.4001 251.669 76.4001 251.985V252.458H77.5455V253.628H76.4001V258.845H74.7068V253.628H73.8352Z" fill="white" fill-opacity="0.5"/>
<path d="M83.5646 258.073C82.942 258.712 82.141 259.032 81.1616 259.032C80.1821 259.032 79.3811 258.712 78.7586 258.073C78.1361 257.426 77.8248 256.621 77.8248 255.658C77.8248 254.695 78.1361 253.894 78.7586 253.255C79.3811 252.607 80.1821 252.284 81.1616 252.284C82.141 252.284 82.942 252.607 83.5646 253.255C84.1871 253.894 84.4984 254.695 84.4984 255.658C84.4984 256.621 84.1871 257.426 83.5646 258.073ZM81.1616 257.737C81.6679 257.737 82.0622 257.55 82.3444 257.177C82.6349 256.795 82.7802 256.289 82.7802 255.658C82.7802 255.027 82.6349 254.521 82.3444 254.139C82.0622 253.757 81.6679 253.566 81.1616 253.566C80.647 253.566 80.2485 253.757 79.9663 254.139C79.6841 254.512 79.543 255.019 79.543 255.658C79.543 256.289 79.6841 256.795 79.9663 257.177C80.2485 257.55 80.647 257.737 81.1616 257.737Z" fill="white" fill-opacity="0.5"/>
<path d="M85.3104 258.845V249.943H87.0037V258.845H85.3104Z" fill="white" fill-opacity="0.5"/>
<path d="M88.1185 258.845V252.458H89.8118V258.845H88.1185ZM88.1185 251.462V249.943H89.8118V251.462H88.1185Z" fill="white" fill-opacity="0.5"/>
<path d="M96.3314 258.073C95.7089 258.712 94.9079 259.032 93.9284 259.032C92.949 259.032 92.148 258.712 91.5254 258.073C90.9029 257.426 90.5916 256.621 90.5916 255.658C90.5916 254.695 90.9029 253.894 91.5254 253.255C92.148 252.607 92.949 252.284 93.9284 252.284C94.9079 252.284 95.7089 252.607 96.3314 253.255C96.9539 253.894 97.2652 254.695 97.2652 255.658C97.2652 256.621 96.9539 257.426 96.3314 258.073ZM93.9284 257.737C94.4348 257.737 94.829 257.55 95.1112 257.177C95.4018 256.795 95.547 256.289 95.547 255.658C95.547 255.027 95.4018 254.521 95.1112 254.139C94.829 253.757 94.4348 253.566 93.9284 253.566C93.4138 253.566 93.0154 253.757 92.7332 254.139C92.4509 254.512 92.3098 255.019 92.3098 255.658C92.3098 256.289 92.4509 256.795 92.7332 257.177C93.0154 257.55 93.4138 257.737 93.9284 257.737Z" fill="white" fill-opacity="0.5"/>
<path d="M32.6528 248.014H36.6908C36.8931 248.014 37.0872 248.092 37.2302 248.232L40.0584 250.989C40.2015 251.129 40.2819 251.318 40.2819 251.515V258.428C40.2819 259.249 39.5987 259.915 38.7561 259.915H32.6528C31.8101 259.915 31.127 259.249 31.127 258.428V249.502C31.127 248.68 31.8101 248.014 32.6528 248.014ZM36.8488 249.13V250.617C36.8488 251.028 37.1904 251.361 37.6117 251.361H39.1375L36.8488 249.13Z" fill="white" fill-opacity="0.33"/>
<path d="M21.1576 255.67L18.8857 253.658C18.6177 253.421 18.8352 253.049 19.2422 253.049H23.7859C24.1929 253.049 24.4104 253.421 24.1424 253.658L21.8705 255.67C21.6818 255.837 21.3463 255.837 21.1576 255.67Z" fill="white" fill-opacity="0.33"/>
<path d="M74.6266 292.002C73.423 292.002 72.4892 291.749 71.8252 291.242C71.1611 290.728 70.8125 289.997 70.7793 289.051H72.5473C72.6054 289.582 72.7922 289.964 73.1076 290.197C73.4313 290.429 73.9127 290.545 74.5519 290.545C75.0582 290.545 75.4732 290.454 75.7969 290.271C76.1206 290.08 76.2825 289.79 76.2825 289.4C76.2825 289.259 76.2618 289.134 76.2203 289.026C76.1871 288.91 76.1123 288.81 75.9961 288.727C75.8799 288.636 75.7803 288.566 75.6973 288.516C75.6143 288.458 75.4608 288.4 75.2366 288.341C75.0125 288.275 74.8424 288.229 74.7262 288.205C74.61 288.171 74.3942 288.117 74.0787 288.043C73.6969 287.951 73.3815 287.872 73.1325 287.806C72.8918 287.74 72.622 287.636 72.3232 287.495C72.0327 287.354 71.8003 287.2 71.6259 287.034C71.4599 286.86 71.3188 286.636 71.2026 286.362C71.0864 286.08 71.0283 285.76 71.0283 285.403C71.0283 284.548 71.3396 283.892 71.9621 283.436C72.5929 282.971 73.4188 282.739 74.4398 282.739C75.4525 282.739 76.2618 282.979 76.8677 283.461C77.4736 283.942 77.8098 284.627 77.8762 285.515H76.1456C76.0957 285.084 75.9131 284.752 75.5977 284.519C75.2906 284.287 74.9005 284.17 74.4274 284.17C73.9376 284.17 73.5475 284.266 73.257 284.457C72.9665 284.648 72.8212 284.901 72.8212 285.216C72.8212 285.557 72.9623 285.806 73.2445 285.963C73.5351 286.121 74.0414 286.279 74.7635 286.437C75.1951 286.528 75.5479 286.615 75.8218 286.698C76.0957 286.773 76.3904 286.885 76.7058 287.034C77.0296 287.175 77.2786 287.333 77.4529 287.507C77.6355 287.682 77.7849 287.914 77.9011 288.205C78.0256 288.487 78.0879 288.815 78.0879 289.188C78.0879 290.068 77.7683 290.757 77.1292 291.255C76.49 291.753 75.6558 292.002 74.6266 292.002Z" fill="white" fill-opacity="0.5"/>
<path d="M81.9924 291.99C81.0047 291.99 80.212 291.67 79.6143 291.031C79.0167 290.392 78.7179 289.587 78.7179 288.615C78.7179 287.644 79.0084 286.839 79.5894 286.2C80.1788 285.561 80.9507 285.241 81.9053 285.241C82.7104 285.241 83.3661 285.453 83.8725 285.876C84.3788 286.3 84.6901 286.868 84.8063 287.582H83.1503C83.0922 287.291 82.9594 287.055 82.7519 286.872C82.5444 286.69 82.2871 286.598 81.98 286.598C81.4819 286.598 81.1001 286.777 80.8345 287.134C80.5689 287.491 80.4361 287.985 80.4361 288.615C80.4361 289.238 80.5647 289.732 80.8221 290.097C81.0794 290.454 81.457 290.632 81.9551 290.632C82.6938 290.632 83.1213 290.271 83.2375 289.549H84.8685C84.8104 290.255 84.5241 290.84 84.0094 291.305C83.4948 291.761 82.8225 291.99 81.9924 291.99Z" fill="white" fill-opacity="0.5"/>
<path d="M89.7503 291.803C89.6673 291.695 89.6009 291.458 89.5511 291.093H89.5262C89.3436 291.367 89.1111 291.579 88.8289 291.728C88.5467 291.877 88.1524 291.952 87.6461 291.952C86.9738 291.952 86.4342 291.782 86.0275 291.442C85.6208 291.101 85.4174 290.62 85.4174 289.997C85.4174 289.35 85.6415 288.877 86.0898 288.578C86.538 288.271 87.1688 288.059 87.9823 287.943C88.5799 287.86 88.9866 287.777 89.2024 287.694C89.4183 287.603 89.5262 287.445 89.5262 287.221C89.5262 286.988 89.4349 286.806 89.2523 286.673C89.0696 286.532 88.804 286.461 88.4554 286.461C87.6835 286.461 87.2726 286.76 87.2228 287.358H85.7163C85.7412 286.752 85.986 286.25 86.4508 285.851C86.9157 285.453 87.588 285.254 88.4679 285.254C90.2608 285.254 91.1572 286.038 91.1572 287.607V290.857C91.1572 291.338 91.2319 291.633 91.3813 291.741V291.803H89.7503ZM88.057 290.769C88.5218 290.769 88.887 290.649 89.1526 290.408C89.4266 290.168 89.5635 289.881 89.5635 289.549V288.59C89.3809 288.698 88.9866 288.823 88.3807 288.964C87.8993 289.072 87.559 289.196 87.3597 289.338C87.1605 289.47 87.0609 289.678 87.0609 289.96C87.0609 290.5 87.3929 290.769 88.057 290.769Z" fill="white" fill-opacity="0.5"/>
<path d="M93.8897 285.416V286.287H93.927C94.3669 285.59 94.9978 285.241 95.8195 285.241C96.4752 285.241 97.0065 285.465 97.4132 285.914C97.8199 286.354 98.0233 286.926 98.0233 287.632V291.803H96.33V287.881C96.33 287.532 96.2304 287.25 96.0312 287.034C95.8403 286.818 95.5705 286.71 95.2219 286.71C94.8484 286.71 94.5371 286.847 94.2881 287.121C94.0474 287.395 93.927 287.748 93.927 288.18V291.803H92.2337V285.416H93.8897Z" fill="white" fill-opacity="0.5"/>
<path d="M101.458 291.99C100.652 291.99 100.001 291.687 99.5028 291.081C99.0048 290.466 98.7557 289.645 98.7557 288.615C98.7557 287.619 99.0089 286.81 99.5152 286.187C100.03 285.557 100.686 285.241 101.482 285.241C102.279 285.241 102.881 285.557 103.288 286.187H103.325V282.901H105.018V291.803H103.387V290.969H103.362C102.947 291.649 102.312 291.99 101.458 291.99ZM101.831 290.57C102.329 290.57 102.707 290.4 102.964 290.06C103.23 289.719 103.362 289.25 103.362 288.653C103.362 287.291 102.869 286.611 101.881 286.611C101.424 286.611 101.076 286.793 100.835 287.159C100.594 287.524 100.474 288.009 100.474 288.615C100.474 289.238 100.59 289.719 100.823 290.06C101.063 290.4 101.399 290.57 101.831 290.57Z" fill="white" fill-opacity="0.5"/>
<path d="M106.119 291.803V285.416H107.812V291.803H106.119ZM106.119 284.419V282.901H107.812V284.419H106.119Z" fill="white" fill-opacity="0.5"/>
<path d="M110.559 285.416V286.287H110.597C111.037 285.59 111.668 285.241 112.489 285.241C113.145 285.241 113.676 285.465 114.083 285.914C114.49 286.354 114.693 286.926 114.693 287.632V291.803H113V287.881C113 287.532 112.9 287.25 112.701 287.034C112.51 286.818 112.24 286.71 111.892 286.71C111.518 286.71 111.207 286.847 110.958 287.121C110.717 287.395 110.597 287.748 110.597 288.18V291.803H108.904V285.416H110.559Z" fill="white" fill-opacity="0.5"/>
<path d="M119.758 291.803C119.675 291.695 119.609 291.458 119.559 291.093H119.534C119.352 291.367 119.119 291.579 118.837 291.728C118.555 291.877 118.161 291.952 117.654 291.952C116.982 291.952 116.442 291.782 116.036 291.442C115.629 291.101 115.426 290.62 115.426 289.997C115.426 289.35 115.65 288.877 116.098 288.578C116.546 288.271 117.177 288.059 117.99 287.943C118.588 287.86 118.995 287.777 119.211 287.694C119.426 287.603 119.534 287.445 119.534 287.221C119.534 286.988 119.443 286.806 119.26 286.673C119.078 286.532 118.812 286.461 118.464 286.461C117.692 286.461 117.281 286.76 117.231 287.358H115.724C115.749 286.752 115.994 286.25 116.459 285.851C116.924 285.453 117.596 285.254 118.476 285.254C120.269 285.254 121.165 286.038 121.165 287.607V290.857C121.165 291.338 121.24 291.633 121.389 291.741V291.803H119.758ZM118.065 290.769C118.53 290.769 118.895 290.649 119.161 290.408C119.435 290.168 119.572 289.881 119.572 289.549V288.59C119.389 288.698 118.995 288.823 118.389 288.964C117.907 289.072 117.567 289.196 117.368 289.338C117.169 289.47 117.069 289.678 117.069 289.96C117.069 290.5 117.401 290.769 118.065 290.769Z" fill="white" fill-opacity="0.5"/>
<path d="M123.874 291.803L121.658 285.416H123.376L124.397 288.727L124.684 289.748H124.709C124.767 289.474 124.858 289.134 124.982 288.727L126.028 285.416H127.722L125.493 291.803H123.874Z" fill="white" fill-opacity="0.5"/>
<path d="M128.297 291.803V285.416H129.99V291.803H128.297ZM128.297 284.419V282.901H129.99V284.419H128.297Z" fill="white" fill-opacity="0.5"/>
<path d="M135.103 291.803C135.02 291.695 134.954 291.458 134.904 291.093H134.879C134.696 291.367 134.464 291.579 134.182 291.728C133.899 291.877 133.505 291.952 132.999 291.952C132.326 291.952 131.787 291.782 131.38 291.442C130.973 291.101 130.77 290.62 130.77 289.997C130.77 289.35 130.994 288.877 131.442 288.578C131.891 288.271 132.521 288.059 133.335 287.943C133.933 287.86 134.339 287.777 134.555 287.694C134.771 287.603 134.879 287.445 134.879 287.221C134.879 286.988 134.788 286.806 134.605 286.673C134.422 286.532 134.157 286.461 133.808 286.461C133.036 286.461 132.625 286.76 132.575 287.358H131.069C131.094 286.752 131.339 286.25 131.804 285.851C132.268 285.453 132.941 285.254 133.821 285.254C135.613 285.254 136.51 286.038 136.51 287.607V290.857C136.51 291.338 136.585 291.633 136.734 291.741V291.803H135.103ZM133.41 290.769C133.874 290.769 134.24 290.649 134.505 290.408C134.779 290.168 134.916 289.881 134.916 289.549V288.59C134.734 288.698 134.339 288.823 133.733 288.964C133.252 289.072 132.912 289.196 132.712 289.338C132.513 289.47 132.414 289.678 132.414 289.96C132.414 290.5 132.746 290.769 133.41 290.769Z" fill="white" fill-opacity="0.5"/>
<path d="M52.7934 280.972H56.8314C57.0337 280.972 57.2278 281.05 57.3709 281.19L60.1991 283.947C60.3421 284.087 60.4225 284.276 60.4225 284.473V291.386C60.4225 292.207 59.7394 292.873 58.8967 292.873H52.7934C51.9507 292.873 51.2676 292.207 51.2676 291.386V282.459C51.2676 281.638 51.9507 280.972 52.7934 280.972ZM56.9894 282.088V283.575C56.9894 283.986 57.331 284.319 57.7523 284.319H59.2781L56.9894 282.088Z" fill="white" fill-opacity="0.33"/>
<path d="M74.6266 324.96C73.423 324.96 72.4892 324.707 71.8252 324.2C71.1611 323.686 70.8125 322.955 70.7793 322.009H72.5473C72.6054 322.54 72.7922 322.922 73.1076 323.154C73.4313 323.387 73.9127 323.503 74.5519 323.503C75.0582 323.503 75.4732 323.412 75.7969 323.229C76.1206 323.038 76.2825 322.748 76.2825 322.358C76.2825 322.216 76.2618 322.092 76.2203 321.984C76.1871 321.868 76.1123 321.768 75.9961 321.685C75.8799 321.594 75.7803 321.523 75.6973 321.474C75.6143 321.415 75.4608 321.357 75.2366 321.299C75.0125 321.233 74.8424 321.187 74.7262 321.162C74.61 321.129 74.3942 321.075 74.0787 321C73.6969 320.909 73.3815 320.83 73.1325 320.764C72.8918 320.697 72.622 320.594 72.3232 320.453C72.0327 320.311 71.8003 320.158 71.6259 319.992C71.4599 319.818 71.3188 319.593 71.2026 319.32C71.0864 319.037 71.0283 318.718 71.0283 318.361C71.0283 317.506 71.3396 316.85 71.9621 316.394C72.5929 315.929 73.4188 315.696 74.4398 315.696C75.4525 315.696 76.2618 315.937 76.8677 316.419C77.4736 316.9 77.8098 317.585 77.8762 318.473H76.1456C76.0957 318.041 75.9131 317.709 75.5977 317.477C75.2906 317.244 74.9005 317.128 74.4274 317.128C73.9376 317.128 73.5475 317.224 73.257 317.415C72.9665 317.606 72.8212 317.859 72.8212 318.174C72.8212 318.514 72.9623 318.763 73.2445 318.921C73.5351 319.079 74.0414 319.237 74.7635 319.394C75.1951 319.486 75.5479 319.573 75.8218 319.656C76.0957 319.73 76.3904 319.842 76.7058 319.992C77.0296 320.133 77.2786 320.291 77.4529 320.465C77.6355 320.639 77.7849 320.872 77.9011 321.162C78.0256 321.444 78.0879 321.772 78.0879 322.146C78.0879 323.026 77.7683 323.715 77.1292 324.213C76.49 324.711 75.6558 324.96 74.6266 324.96Z" fill="white" fill-opacity="0.5"/>
<path d="M81.9924 324.947C81.0047 324.947 80.212 324.628 79.6143 323.989C79.0167 323.349 78.7179 322.544 78.7179 321.573C78.7179 320.602 79.0084 319.797 79.5894 319.158C80.1788 318.519 80.9507 318.199 81.9053 318.199C82.7104 318.199 83.3661 318.411 83.8725 318.834C84.3788 319.257 84.6901 319.826 84.8063 320.54H83.1503C83.0922 320.249 82.9594 320.013 82.7519 319.83C82.5444 319.647 82.2871 319.556 81.98 319.556C81.4819 319.556 81.1001 319.735 80.8345 320.092C80.5689 320.448 80.4361 320.942 80.4361 321.573C80.4361 322.196 80.5647 322.69 80.8221 323.055C81.0794 323.412 81.457 323.59 81.9551 323.59C82.6938 323.59 83.1213 323.229 83.2375 322.507H84.8685C84.8104 323.212 84.5241 323.798 84.0094 324.262C83.4948 324.719 82.8225 324.947 81.9924 324.947Z" fill="white" fill-opacity="0.5"/>
<path d="M91.0356 323.989C90.4131 324.628 89.6121 324.947 88.6326 324.947C87.6532 324.947 86.8522 324.628 86.2296 323.989C85.6071 323.341 85.2958 322.536 85.2958 321.573C85.2958 320.61 85.6071 319.809 86.2296 319.17C86.8522 318.523 87.6532 318.199 88.6326 318.199C89.6121 318.199 90.4131 318.523 91.0356 319.17C91.6582 319.809 91.9694 320.61 91.9694 321.573C91.9694 322.536 91.6582 323.341 91.0356 323.989ZM88.6326 323.652C89.139 323.652 89.5332 323.466 89.8155 323.092C90.106 322.71 90.2512 322.204 90.2512 321.573C90.2512 320.942 90.106 320.436 89.8155 320.054C89.5332 319.672 89.139 319.481 88.6326 319.481C88.118 319.481 87.7196 319.672 87.4374 320.054C87.1552 320.428 87.014 320.934 87.014 321.573C87.014 322.204 87.1552 322.71 87.4374 323.092C87.7196 323.466 88.118 323.652 88.6326 323.652Z" fill="white" fill-opacity="0.5"/>
<path d="M92.2614 319.494V318.373H93.1454V316.381H94.8014V318.373H95.897V319.494H94.8014V322.88C94.8014 323.304 95.013 323.515 95.4364 323.515L95.9344 323.503V324.748C95.6771 324.765 95.3243 324.773 94.8761 324.773C94.3864 324.773 93.9755 324.657 93.6435 324.424C93.3114 324.184 93.1454 323.789 93.1454 323.242V319.494H92.2614Z" fill="white" fill-opacity="0.5"/>
<path d="M96.2739 319.494V318.373H97.1579V316.381H98.8138V318.373H99.9095V319.494H98.8138V322.88C98.8138 323.304 99.0255 323.515 99.4488 323.515L99.9468 323.503V324.748C99.6895 324.765 99.3367 324.773 98.8885 324.773C98.3988 324.773 97.9879 324.657 97.6559 324.424C97.3239 324.184 97.1579 323.789 97.1579 323.242V319.494H96.2739Z" fill="white" fill-opacity="0.5"/>
<path d="M100.781 324.761V318.373H102.475V324.761H100.781ZM100.781 317.377V315.858H102.475V317.377H100.781Z" fill="white" fill-opacity="0.5"/>
<path d="M106.156 324.947C105.242 324.947 104.529 324.748 104.014 324.35C103.499 323.943 103.217 323.391 103.167 322.694H104.736C104.844 323.399 105.309 323.752 106.131 323.752C106.504 323.752 106.791 323.686 106.99 323.553C107.197 323.42 107.301 323.242 107.301 323.017C107.301 322.934 107.284 322.86 107.251 322.793C107.226 322.727 107.176 322.669 107.102 322.619C107.035 322.561 106.973 322.515 106.915 322.482C106.865 322.449 106.774 322.416 106.641 322.382C106.508 322.349 106.405 322.324 106.33 322.308C106.263 322.291 106.143 322.27 105.969 322.245C105.803 322.212 105.687 322.187 105.62 322.171C105.272 322.104 104.985 322.038 104.761 321.972C104.545 321.897 104.317 321.793 104.076 321.66C103.836 321.519 103.653 321.332 103.528 321.1C103.412 320.859 103.354 320.573 103.354 320.241C103.354 319.577 103.595 319.071 104.076 318.722C104.566 318.373 105.193 318.199 105.956 318.199C106.778 318.199 107.421 318.39 107.886 318.772C108.359 319.145 108.629 319.66 108.695 320.316H107.164C107.098 319.693 106.687 319.382 105.931 319.382C105.591 319.382 105.321 319.444 105.122 319.569C104.931 319.693 104.836 319.867 104.836 320.092C104.836 320.166 104.848 320.237 104.873 320.303C104.906 320.361 104.956 320.415 105.023 320.465C105.097 320.507 105.168 320.544 105.234 320.577C105.301 320.602 105.396 320.631 105.521 320.664C105.645 320.689 105.753 320.714 105.844 320.739C105.936 320.756 106.06 320.78 106.218 320.814C106.376 320.839 106.5 320.859 106.591 320.876C106.857 320.934 107.073 320.988 107.239 321.038C107.413 321.079 107.612 321.154 107.836 321.262C108.06 321.361 108.235 321.478 108.359 321.61C108.492 321.735 108.604 321.909 108.695 322.133C108.795 322.349 108.845 322.602 108.845 322.893C108.845 323.524 108.596 324.026 108.098 324.399C107.608 324.765 106.961 324.947 106.156 324.947Z" fill="white" fill-opacity="0.5"/>
<path d="M111.302 315.858V319.208H111.339C111.58 318.859 111.842 318.606 112.124 318.448C112.414 318.282 112.771 318.199 113.195 318.199C113.85 318.199 114.382 318.423 114.788 318.871C115.195 319.311 115.398 319.884 115.398 320.59V324.761H113.705V320.839C113.705 320.49 113.605 320.208 113.406 319.992C113.215 319.776 112.946 319.668 112.597 319.668C112.223 319.668 111.912 319.805 111.663 320.079C111.422 320.353 111.302 320.706 111.302 321.137V324.761H109.609V315.858H111.302Z" fill="white" fill-opacity="0.5"/>
<path d="M118.67 324.761V315.858H120.476V319.344H123.974V315.858H125.78V324.761H123.974V320.839H120.476V324.761H118.67Z" fill="white" fill-opacity="0.5"/>
<path d="M127.008 324.761V318.373H128.701V324.761H127.008ZM127.008 317.377V315.858H128.701V317.377H127.008Z" fill="white" fill-opacity="0.5"/>
<path d="M132.606 326.939C131.743 326.939 131.05 326.765 130.527 326.416C130.012 326.068 129.71 325.578 129.618 324.947H131.299C131.465 325.42 131.893 325.657 132.581 325.657C133.528 325.657 134.001 325.213 134.001 324.325V323.628H133.964C133.524 324.126 132.967 324.375 132.295 324.375C131.54 324.375 130.88 324.096 130.315 323.54C129.759 322.984 129.481 322.245 129.481 321.324C129.481 320.378 129.739 319.623 130.253 319.058C130.768 318.485 131.432 318.199 132.245 318.199C133.017 318.199 133.607 318.481 134.013 319.046H134.038V318.373H135.669V324.275C135.669 325.105 135.416 325.752 134.91 326.217C134.395 326.699 133.627 326.939 132.606 326.939ZM132.581 323.017C133.088 323.017 133.465 322.856 133.714 322.532C133.964 322.208 134.088 321.793 134.088 321.287C134.088 320.789 133.955 320.378 133.69 320.054C133.432 319.722 133.059 319.556 132.569 319.556C132.137 319.556 131.789 319.714 131.523 320.029C131.266 320.345 131.137 320.768 131.137 321.299C131.137 321.839 131.266 322.262 131.523 322.569C131.789 322.868 132.142 323.017 132.581 323.017Z" fill="white" fill-opacity="0.5"/>
<path d="M138.453 315.858V319.208H138.49C138.731 318.859 138.992 318.606 139.275 318.448C139.565 318.282 139.922 318.199 140.345 318.199C141.001 318.199 141.532 318.423 141.939 318.871C142.346 319.311 142.549 319.884 142.549 320.59V324.761H140.856V320.839C140.856 320.49 140.756 320.208 140.557 319.992C140.366 319.776 140.096 319.668 139.748 319.668C139.374 319.668 139.063 319.805 138.814 320.079C138.573 320.353 138.453 320.706 138.453 321.137V324.761H136.76V315.858H138.453Z" fill="white" fill-opacity="0.5"/>
<path d="M143.618 324.761V315.858H145.311V324.761H143.618Z" fill="white" fill-opacity="0.5"/>
<path d="M150.447 324.761C150.364 324.653 150.298 324.416 150.248 324.051H150.223C150.041 324.325 149.808 324.536 149.526 324.686C149.244 324.835 148.85 324.91 148.343 324.91C147.671 324.91 147.131 324.74 146.725 324.399C146.318 324.059 146.115 323.578 146.115 322.955C146.115 322.308 146.339 321.835 146.787 321.536C147.235 321.229 147.866 321.017 148.679 320.901C149.277 320.818 149.684 320.735 149.9 320.652C150.115 320.56 150.223 320.403 150.223 320.179C150.223 319.946 150.132 319.764 149.949 319.631C149.767 319.49 149.501 319.419 149.153 319.419C148.381 319.419 147.97 319.718 147.92 320.316H146.413C146.438 319.71 146.683 319.208 147.148 318.809C147.613 318.411 148.285 318.211 149.165 318.211C150.958 318.211 151.854 318.996 151.854 320.565V323.814C151.854 324.296 151.929 324.59 152.079 324.698V324.761H150.447ZM148.754 323.727C149.219 323.727 149.584 323.607 149.85 323.366C150.124 323.125 150.261 322.839 150.261 322.507V321.548C150.078 321.656 149.684 321.781 149.078 321.922C148.596 322.03 148.256 322.154 148.057 322.295C147.858 322.428 147.758 322.636 147.758 322.918C147.758 323.457 148.09 323.727 148.754 323.727Z" fill="white" fill-opacity="0.5"/>
<path d="M154.587 318.373V319.245H154.624C155.064 318.548 155.695 318.199 156.517 318.199C157.172 318.199 157.704 318.423 158.11 318.871C158.517 319.311 158.72 319.884 158.72 320.59V324.761H157.027V320.839C157.027 320.49 156.928 320.208 156.728 319.992C156.537 319.776 156.268 319.668 155.919 319.668C155.546 319.668 155.234 319.805 154.985 320.079C154.745 320.353 154.624 320.706 154.624 321.137V324.761H152.931V318.373H154.587Z" fill="white" fill-opacity="0.5"/>
<path d="M162.155 324.947C161.35 324.947 160.698 324.644 160.2 324.038C159.702 323.424 159.453 322.602 159.453 321.573C159.453 320.577 159.706 319.768 160.212 319.145C160.727 318.514 161.383 318.199 162.18 318.199C162.976 318.199 163.578 318.514 163.985 319.145H164.022V315.858H165.716V324.761H164.085V323.926H164.06C163.645 324.607 163.01 324.947 162.155 324.947ZM162.528 323.528C163.026 323.528 163.404 323.358 163.661 323.017C163.927 322.677 164.06 322.208 164.06 321.61C164.06 320.249 163.566 319.569 162.578 319.569C162.122 319.569 161.773 319.751 161.532 320.116C161.291 320.482 161.171 320.967 161.171 321.573C161.171 322.196 161.287 322.677 161.52 323.017C161.76 323.358 162.097 323.528 162.528 323.528Z" fill="white" fill-opacity="0.5"/>
<path d="M169.406 324.947C168.493 324.947 167.779 324.748 167.265 324.35C166.75 323.943 166.468 323.391 166.418 322.694H167.987C168.095 323.399 168.559 323.752 169.381 323.752C169.755 323.752 170.041 323.686 170.24 323.553C170.448 323.42 170.552 323.242 170.552 323.017C170.552 322.934 170.535 322.86 170.502 322.793C170.477 322.727 170.427 322.669 170.352 322.619C170.286 322.561 170.224 322.515 170.166 322.482C170.116 322.449 170.024 322.416 169.892 322.382C169.759 322.349 169.655 322.324 169.58 322.308C169.514 322.291 169.394 322.27 169.219 322.245C169.053 322.212 168.937 322.187 168.871 322.171C168.522 322.104 168.236 322.038 168.012 321.972C167.796 321.897 167.568 321.793 167.327 321.66C167.086 321.519 166.904 321.332 166.779 321.1C166.663 320.859 166.605 320.573 166.605 320.241C166.605 319.577 166.845 319.071 167.327 318.722C167.817 318.373 168.443 318.199 169.207 318.199C170.029 318.199 170.672 318.39 171.137 318.772C171.61 319.145 171.88 319.66 171.946 320.316H170.415C170.348 319.693 169.937 319.382 169.182 319.382C168.842 319.382 168.572 319.444 168.373 319.569C168.182 319.693 168.086 319.867 168.086 320.092C168.086 320.166 168.099 320.237 168.124 320.303C168.157 320.361 168.207 320.415 168.273 320.465C168.348 320.507 168.418 320.544 168.485 320.577C168.551 320.602 168.647 320.631 168.771 320.664C168.896 320.689 169.004 320.714 169.095 320.739C169.186 320.756 169.311 320.78 169.468 320.814C169.626 320.839 169.751 320.859 169.842 320.876C170.107 320.934 170.323 320.988 170.489 321.038C170.664 321.079 170.863 321.154 171.087 321.262C171.311 321.361 171.485 321.478 171.61 321.61C171.743 321.735 171.855 321.909 171.946 322.133C172.046 322.349 172.095 322.602 172.095 322.893C172.095 323.524 171.846 324.026 171.348 324.399C170.859 324.765 170.211 324.947 169.406 324.947Z" fill="white" fill-opacity="0.5"/>
<path d="M52.7934 313.93H56.8314C57.0337 313.93 57.2278 314.008 57.3709 314.147L60.1991 316.905C60.3421 317.044 60.4225 317.234 60.4225 317.431V324.343C60.4225 325.165 59.7394 325.831 58.8967 325.831H52.7934C51.9507 325.831 51.2676 325.165 51.2676 324.343V315.417C51.2676 314.596 51.9507 313.93 52.7934 313.93ZM56.9894 315.045V316.533C56.9894 316.944 57.331 317.277 57.7523 317.277H59.2781L56.9894 315.045Z" fill="white" fill-opacity="0.33"/>
</g>
<rect x="0.5" y="0.5" width="259" height="468" rx="7.5" stroke="#2E2E2E"/>
<defs>
<clipPath id="clip0_97_851">
<rect width="260" height="469" rx="8" fill="white"/>
</clipPath>
<clipPath id="clip1_97_851">
<rect width="119.014" height="27.4648" fill="white" transform="translate(12.8169 13.6478)"/>
</clipPath>
<clipPath id="clip2_97_851">
<rect width="14.6479" height="13.7324" fill="white" transform="translate(228.873 20.0564)"/>
</clipPath>
</defs>
</svg>
